ISO-10303-21;
HEADER;
FILE_DESCRIPTION(('FreeCAD Model'),'2;1');
FILE_NAME('Open CASCADE Shape Model','2026-08-02T18:39:52',(''),(''),
  'Open CASCADE STEP processor 7.8','FreeCAD','Unknown');
FILE_SCHEMA(('AUTOMOTIVE_DESIGN { 1 0 10303 214 1 1 1 1 }'));
ENDSEC;
DATA;
#1 = APPLICATION_PROTOCOL_DEFINITION('international standard',
  'automotive_design',2000,#2);
#2 = APPLICATION_CONTEXT(
  'core data for automotive mechanical design processes');
#3 = SHAPE_DEFINITION_REPRESENTATION(#4,#10);
#4 = PRODUCT_DEFINITION_SHAPE('','',#5);
#5 = PRODUCT_DEFINITION('design','',#6,#9);
#6 = PRODUCT_DEFINITION_FORMATION('','',#7);
#7 = PRODUCT('CoverAssyL','CoverAssyL','',(#8));
#8 = PRODUCT_CONTEXT('',#2,'mechanical');
#9 = PRODUCT_DEFINITION_CONTEXT('part definition',#2,'design');
#10 = SHAPE_REPRESENTATION('',(#11,#15),#19);
#11 = AXIS2_PLACEMENT_3D('',#12,#13,#14);
#12 = CARTESIAN_POINT('',(0.,0.,0.));
#13 = DIRECTION('',(0.,0.,1.));
#14 = DIRECTION('',(1.,0.,-0.));
#15 = AXIS2_PLACEMENT_3D('',#16,#17,#18);
#16 = CARTESIAN_POINT('',(0.,0.,0.));
#17 = DIRECTION('',(0.,0.,1.));
#18 = DIRECTION('',(1.,0.,0.));
#19 = ( GEOMETRIC_REPRESENTATION_CONTEXT(3) 
GLOBAL_UNCERTAINTY_ASSIGNED_CONTEXT((#23)) GLOBAL_UNIT_ASSIGNED_CONTEXT(
(#20,#21,#22)) REPRESENTATION_CONTEXT('Context #1',
  '3D Context with UNIT and UNCERTAINTY') );
#20 = ( LENGTH_UNIT() NAMED_UNIT(*) SI_UNIT(.MILLI.,.METRE.) );
#21 = ( NAMED_UNIT(*) PLANE_ANGLE_UNIT() SI_UNIT($,.RADIAN.) );
#22 = ( NAMED_UNIT(*) SI_UNIT($,.STERADIAN.) SOLID_ANGLE_UNIT() );
#23 = UNCERTAINTY_MEASURE_WITH_UNIT(LENGTH_MEASURE(1.E-07),#20,
  'distance_accuracy_value','confusion accuracy');
#24 = PRODUCT_RELATED_PRODUCT_CATEGORY('part',$,(#7));
#25 = SHAPE_DEFINITION_REPRESENTATION(#26,#32);
#26 = PRODUCT_DEFINITION_SHAPE('','',#27);
#27 = PRODUCT_DEFINITION('design','',#28,#31);
#28 = PRODUCT_DEFINITION_FORMATION('','',#29);
#29 = PRODUCT('cover','cover','',(#30));
#30 = PRODUCT_CONTEXT('',#2,'mechanical');
#31 = PRODUCT_DEFINITION_CONTEXT('part definition',#2,'design');
#32 = SHAPE_REPRESENTATION('',(#11,#33,#37),#41);
#33 = AXIS2_PLACEMENT_3D('',#34,#35,#36);
#34 = CARTESIAN_POINT('',(0.,0.,0.));
#35 = DIRECTION('',(0.,0.,1.));
#36 = DIRECTION('',(1.,0.,0.));
#37 = AXIS2_PLACEMENT_3D('',#38,#39,#40);
#38 = CARTESIAN_POINT('',(-2.86719E+03,0.,0.));
#39 = DIRECTION('',(1.,4.440892098501E-16,-2.22044604925E-16));
#40 = DIRECTION('',(-4.440892098501E-16,1.,2.22044604925E-16));
#41 = ( GEOMETRIC_REPRESENTATION_CONTEXT(3) 
GLOBAL_UNCERTAINTY_ASSIGNED_CONTEXT((#45)) GLOBAL_UNIT_ASSIGNED_CONTEXT(
(#42,#43,#44)) REPRESENTATION_CONTEXT('Context #1',
  '3D Context with UNIT and UNCERTAINTY') );
#42 = ( LENGTH_UNIT() NAMED_UNIT(*) SI_UNIT(.MILLI.,.METRE.) );
#43 = ( NAMED_UNIT(*) PLANE_ANGLE_UNIT() SI_UNIT($,.RADIAN.) );
#44 = ( NAMED_UNIT(*) SI_UNIT($,.STERADIAN.) SOLID_ANGLE_UNIT() );
#45 = UNCERTAINTY_MEASURE_WITH_UNIT(LENGTH_MEASURE(1.E-07),#42,
  'distance_accuracy_value','confusion accuracy');
#46 = CONTEXT_DEPENDENT_SHAPE_REPRESENTATION(#47,#49);
#47 = ( REPRESENTATION_RELATIONSHIP('','',#32,#10) 
REPRESENTATION_RELATIONSHIP_WITH_TRANSFORMATION(#48) 
SHAPE_REPRESENTATION_RELATIONSHIP() );
#48 = ITEM_DEFINED_TRANSFORMATION('','',#11,#15);
#49 = PRODUCT_DEFINITION_SHAPE('Placement','Placement of an item',#50);
#50 = NEXT_ASSEMBLY_USAGE_OCCURRENCE('9','cover','',#5,#27,$);
#51 = PRODUCT_RELATED_PRODUCT_CATEGORY('part',$,(#29));
#52 = SHAPE_DEFINITION_REPRESENTATION(#53,#59);
#53 = PRODUCT_DEFINITION_SHAPE('','',#54);
#54 = PRODUCT_DEFINITION('design','',#55,#58);
#55 = PRODUCT_DEFINITION_FORMATION('','',#56);
#56 = PRODUCT('cover007','cover007','',(#57));
#57 = PRODUCT_CONTEXT('',#2,'mechanical');
#58 = PRODUCT_DEFINITION_CONTEXT('part definition',#2,'design');
#59 = SHAPE_REPRESENTATION('',(#11,#60,#64,#68,#72,#76),#80);
#60 = AXIS2_PLACEMENT_3D('',#61,#62,#63);
#61 = CARTESIAN_POINT('',(0.,1.109942993E+03,-1.354006715117E+03));
#62 = DIRECTION('',(0.,0.,1.));
#63 = DIRECTION('',(1.,0.,0.));
#64 = AXIS2_PLACEMENT_3D('',#65,#66,#67);
#65 = CARTESIAN_POINT('',(0.,1.109942993E+03,-1.354006715117E+03));
#66 = DIRECTION('',(0.,0.,1.));
#67 = DIRECTION('',(1.,0.,0.));
#68 = AXIS2_PLACEMENT_3D('',#69,#70,#71);
#69 = CARTESIAN_POINT('',(0.,1.109942993E+03,-1.354006715117E+03));
#70 = DIRECTION('',(0.,0.,1.));
#71 = DIRECTION('',(1.,0.,0.));
#72 = AXIS2_PLACEMENT_3D('',#73,#74,#75);
#73 = CARTESIAN_POINT('',(0.,1.109942993E+03,-1.354006715117E+03));
#74 = DIRECTION('',(0.,0.,1.));
#75 = DIRECTION('',(1.,0.,0.));
#76 = AXIS2_PLACEMENT_3D('',#77,#78,#79);
#77 = CARTESIAN_POINT('',(0.,1.109942993E+03,-1.354006715117E+03));
#78 = DIRECTION('',(0.,0.,1.));
#79 = DIRECTION('',(1.,0.,0.));
#80 = ( GEOMETRIC_REPRESENTATION_CONTEXT(3) 
GLOBAL_UNCERTAINTY_ASSIGNED_CONTEXT((#84)) GLOBAL_UNIT_ASSIGNED_CONTEXT(
(#81,#82,#83)) REPRESENTATION_CONTEXT('Context #1',
  '3D Context with UNIT and UNCERTAINTY') );
#81 = ( LENGTH_UNIT() NAMED_UNIT(*) SI_UNIT(.MILLI.,.METRE.) );
#82 = ( NAMED_UNIT(*) PLANE_ANGLE_UNIT() SI_UNIT($,.RADIAN.) );
#83 = ( NAMED_UNIT(*) SI_UNIT($,.STERADIAN.) SOLID_ANGLE_UNIT() );
#84 = UNCERTAINTY_MEASURE_WITH_UNIT(LENGTH_MEASURE(1.E-07),#81,
  'distance_accuracy_value','confusion accuracy');
#85 = CONTEXT_DEPENDENT_SHAPE_REPRESENTATION(#86,#88);
#86 = ( REPRESENTATION_RELATIONSHIP('','',#59,#32) 
REPRESENTATION_RELATIONSHIP_WITH_TRANSFORMATION(#87) 
SHAPE_REPRESENTATION_RELATIONSHIP() );
#87 = ITEM_DEFINED_TRANSFORMATION('','',#11,#33);
#88 = PRODUCT_DEFINITION_SHAPE('Placement','Placement of an item',#89);
#89 = NEXT_ASSEMBLY_USAGE_OCCURRENCE('7','cover007','',#27,#54,$);
#90 = PRODUCT_RELATED_PRODUCT_CATEGORY('part',$,(#56));
#91 = SHAPE_DEFINITION_REPRESENTATION(#92,#98);
#92 = PRODUCT_DEFINITION_SHAPE('','',#93);
#93 = PRODUCT_DEFINITION('design','',#94,#97);
#94 = PRODUCT_DEFINITION_FORMATION('','',#95);
#95 = PRODUCT('cover02','cover02','',(#96));
#96 = PRODUCT_CONTEXT('',#2,'mechanical');
#97 = PRODUCT_DEFINITION_CONTEXT('part definition',#2,'design');
#98 = ADVANCED_BREP_SHAPE_REPRESENTATION('',(#11,#99),#290);
#99 = MANIFOLD_SOLID_BREP('',#100);
#100 = CLOSED_SHELL('',(#101,#141,#172,#205,#227,#260,#275));
#101 = ADVANCED_FACE('',(#102),#136,.F.);
#102 = FACE_BOUND('',#103,.F.);
#103 = EDGE_LOOP('',(#104,#114,#122,#130));
#104 = ORIENTED_EDGE('',*,*,#105,.T.);
#105 = EDGE_CURVE('',#106,#108,#110,.T.);
#106 = VERTEX_POINT('',#107);
#107 = CARTESIAN_POINT('',(182.744,-1.099942993E+03,1.343832644234E+03)
  );
#108 = VERTEX_POINT('',#109);
#109 = CARTESIAN_POINT('',(232.744,-1.099942993E+03,1.343832644234E+03)
  );
#110 = LINE('',#111,#112);
#111 = CARTESIAN_POINT('',(182.744,-1.099942993E+03,1.343832644234E+03)
  );
#112 = VECTOR('',#113,1.);
#113 = DIRECTION('',(1.,0.,0.));
#114 = ORIENTED_EDGE('',*,*,#115,.T.);
#115 = EDGE_CURVE('',#108,#116,#118,.T.);
#116 = VERTEX_POINT('',#117);
#117 = CARTESIAN_POINT('',(232.744,-1.099942993E+03,1.364180786E+03));
#118 = LINE('',#119,#120);
#119 = CARTESIAN_POINT('',(232.744,-1.099942993E+03,1.343832644234E+03)
  );
#120 = VECTOR('',#121,1.);
#121 = DIRECTION('',(0.,0.,1.));
#122 = ORIENTED_EDGE('',*,*,#123,.F.);
#123 = EDGE_CURVE('',#124,#116,#126,.T.);
#124 = VERTEX_POINT('',#125);
#125 = CARTESIAN_POINT('',(182.744,-1.099942993E+03,1.364180786E+03));
#126 = LINE('',#127,#128);
#127 = CARTESIAN_POINT('',(182.744,-1.099942993E+03,1.364180786E+03));
#128 = VECTOR('',#129,1.);
#129 = DIRECTION('',(1.,0.,0.));
#130 = ORIENTED_EDGE('',*,*,#131,.F.);
#131 = EDGE_CURVE('',#106,#124,#132,.T.);
#132 = LINE('',#133,#134);
#133 = CARTESIAN_POINT('',(182.744,-1.099942993E+03,1.343832644234E+03)
  );
#134 = VECTOR('',#135,1.);
#135 = DIRECTION('',(0.,0.,1.));
#136 = PLANE('',#137);
#137 = AXIS2_PLACEMENT_3D('',#138,#139,#140);
#138 = CARTESIAN_POINT('',(182.744,-1.099942993E+03,1.343832644234E+03)
  );
#139 = DIRECTION('',(0.,-1.,0.));
#140 = DIRECTION('',(0.,0.,1.));
#141 = ADVANCED_FACE('',(#142),#167,.F.);
#142 = FACE_BOUND('',#143,.F.);
#143 = EDGE_LOOP('',(#144,#145,#153,#161));
#144 = ORIENTED_EDGE('',*,*,#123,.T.);
#145 = ORIENTED_EDGE('',*,*,#146,.T.);
#146 = EDGE_CURVE('',#116,#147,#149,.T.);
#147 = VERTEX_POINT('',#148);
#148 = CARTESIAN_POINT('',(232.744,-1.11094296215E+03,1.362950990476E+03
    ));
#149 = LINE('',#150,#151);
#150 = CARTESIAN_POINT('',(232.744,-1.099942993E+03,1.364180786E+03));
#151 = VECTOR('',#152,1.);
#152 = DIRECTION('',(0.,-0.993808373231,-0.111107683332));
#153 = ORIENTED_EDGE('',*,*,#154,.F.);
#154 = EDGE_CURVE('',#155,#147,#157,.T.);
#155 = VERTEX_POINT('',#156);
#156 = CARTESIAN_POINT('',(182.744,-1.11094296215E+03,1.362950990476E+03
    ));
#157 = LINE('',#158,#159);
#158 = CARTESIAN_POINT('',(182.744,-1.11094296215E+03,1.362950990476E+03
    ));
#159 = VECTOR('',#160,1.);
#160 = DIRECTION('',(1.,0.,0.));
#161 = ORIENTED_EDGE('',*,*,#162,.F.);
#162 = EDGE_CURVE('',#124,#155,#163,.T.);
#163 = LINE('',#164,#165);
#164 = CARTESIAN_POINT('',(182.744,-1.099942993E+03,1.364180786E+03));
#165 = VECTOR('',#166,1.);
#166 = DIRECTION('',(0.,-0.993808373231,-0.111107683332));
#167 = PLANE('',#168);
#168 = AXIS2_PLACEMENT_3D('',#169,#170,#171);
#169 = CARTESIAN_POINT('',(182.744,-1.099942993E+03,1.364180786E+03));
#170 = DIRECTION('',(0.,0.111107683332,-0.993808373231));
#171 = DIRECTION('',(0.,-0.993808373231,-0.111107683332));
#172 = ADVANCED_FACE('',(#173),#200,.T.);
#173 = FACE_BOUND('',#174,.T.);
#174 = EDGE_LOOP('',(#175,#184,#192,#199));
#175 = ORIENTED_EDGE('',*,*,#176,.T.);
#176 = EDGE_CURVE('',#155,#177,#179,.T.);
#177 = VERTEX_POINT('',#178);
#178 = CARTESIAN_POINT('',(182.744,-1.11094296215E+03,1.345062439758E+03
    ));
#179 = CIRCLE('',#180,9.);
#180 = AXIS2_PLACEMENT_3D('',#181,#182,#183);
#181 = CARTESIAN_POINT('',(182.744,-1.109942993E+03,1.354006715117E+03)
  );
#182 = DIRECTION('',(1.,0.,0.));
#183 = DIRECTION('',(-0.,1.,0.));
#184 = ORIENTED_EDGE('',*,*,#185,.T.);
#185 = EDGE_CURVE('',#177,#186,#188,.T.);
#186 = VERTEX_POINT('',#187);
#187 = CARTESIAN_POINT('',(232.744,-1.11094296215E+03,1.345062439758E+03
    ));
#188 = LINE('',#189,#190);
#189 = CARTESIAN_POINT('',(182.744,-1.11094296215E+03,1.345062439758E+03
    ));
#190 = VECTOR('',#191,1.);
#191 = DIRECTION('',(1.,0.,0.));
#192 = ORIENTED_EDGE('',*,*,#193,.F.);
#193 = EDGE_CURVE('',#147,#186,#194,.T.);
#194 = CIRCLE('',#195,9.);
#195 = AXIS2_PLACEMENT_3D('',#196,#197,#198);
#196 = CARTESIAN_POINT('',(232.744,-1.109942993E+03,1.354006715117E+03)
  );
#197 = DIRECTION('',(1.,0.,0.));
#198 = DIRECTION('',(-0.,1.,0.));
#199 = ORIENTED_EDGE('',*,*,#154,.F.);
#200 = CYLINDRICAL_SURFACE('',#201,9.);
#201 = AXIS2_PLACEMENT_3D('',#202,#203,#204);
#202 = CARTESIAN_POINT('',(182.744,-1.109942993E+03,1.354006715117E+03)
  );
#203 = DIRECTION('',(-1.,-0.,-0.));
#204 = DIRECTION('',(0.,1.,0.));
#205 = ADVANCED_FACE('',(#206),#222,.F.);
#206 = FACE_BOUND('',#207,.F.);
#207 = EDGE_LOOP('',(#208,#209,#215,#216));
#208 = ORIENTED_EDGE('',*,*,#185,.T.);
#209 = ORIENTED_EDGE('',*,*,#210,.T.);
#210 = EDGE_CURVE('',#186,#108,#211,.T.);
#211 = LINE('',#212,#213);
#212 = CARTESIAN_POINT('',(232.744,-1.11094296215E+03,1.345062439758E+03
    ));
#213 = VECTOR('',#214,1.);
#214 = DIRECTION('',(0.,0.993808373231,-0.111107683332));
#215 = ORIENTED_EDGE('',*,*,#105,.F.);
#216 = ORIENTED_EDGE('',*,*,#217,.F.);
#217 = EDGE_CURVE('',#177,#106,#218,.T.);
#218 = LINE('',#219,#220);
#219 = CARTESIAN_POINT('',(182.744,-1.11094296215E+03,1.345062439758E+03
    ));
#220 = VECTOR('',#221,1.);
#221 = DIRECTION('',(0.,0.993808373231,-0.111107683332));
#222 = PLANE('',#223);
#223 = AXIS2_PLACEMENT_3D('',#224,#225,#226);
#224 = CARTESIAN_POINT('',(182.744,-1.11094296215E+03,1.345062439758E+03
    ));
#225 = DIRECTION('',(0.,0.111107683332,0.993808373231));
#226 = DIRECTION('',(0.,0.993808373231,-0.111107683332));
#227 = ADVANCED_FACE('',(#228),#255,.F.);
#228 = FACE_BOUND('',#229,.F.);
#229 = EDGE_LOOP('',(#230,#239,#247,#254));
#230 = ORIENTED_EDGE('',*,*,#231,.T.);
#231 = EDGE_CURVE('',#232,#232,#234,.T.);
#232 = VERTEX_POINT('',#233);
#233 = CARTESIAN_POINT('',(182.744,-1.103942993E+03,1.354006715117E+03)
  );
#234 = CIRCLE('',#235,6.);
#235 = AXIS2_PLACEMENT_3D('',#236,#237,#238);
#236 = CARTESIAN_POINT('',(182.744,-1.109942993E+03,1.354006715117E+03)
  );
#237 = DIRECTION('',(1.,0.,0.));
#238 = DIRECTION('',(-0.,1.,0.));
#239 = ORIENTED_EDGE('',*,*,#240,.T.);
#240 = EDGE_CURVE('',#232,#241,#243,.T.);
#241 = VERTEX_POINT('',#242);
#242 = CARTESIAN_POINT('',(232.744,-1.103942993E+03,1.354006715117E+03)
  );
#243 = LINE('',#244,#245);
#244 = CARTESIAN_POINT('',(182.744,-1.103942993E+03,1.354006715117E+03)
  );
#245 = VECTOR('',#246,1.);
#246 = DIRECTION('',(1.,0.,0.));
#247 = ORIENTED_EDGE('',*,*,#248,.F.);
#248 = EDGE_CURVE('',#241,#241,#249,.T.);
#249 = CIRCLE('',#250,6.);
#250 = AXIS2_PLACEMENT_3D('',#251,#252,#253);
#251 = CARTESIAN_POINT('',(232.744,-1.109942993E+03,1.354006715117E+03)
  );
#252 = DIRECTION('',(1.,0.,0.));
#253 = DIRECTION('',(-0.,1.,0.));
#254 = ORIENTED_EDGE('',*,*,#240,.F.);
#255 = CYLINDRICAL_SURFACE('',#256,6.);
#256 = AXIS2_PLACEMENT_3D('',#257,#258,#259);
#257 = CARTESIAN_POINT('',(182.744,-1.109942993E+03,1.354006715117E+03)
  );
#258 = DIRECTION('',(-1.,-0.,-0.));
#259 = DIRECTION('',(0.,1.,0.));
#260 = ADVANCED_FACE('',(#261,#267),#270,.F.);
#261 = FACE_BOUND('',#262,.F.);
#262 = EDGE_LOOP('',(#263,#264,#265,#266));
#263 = ORIENTED_EDGE('',*,*,#131,.T.);
#264 = ORIENTED_EDGE('',*,*,#162,.T.);
#265 = ORIENTED_EDGE('',*,*,#176,.T.);
#266 = ORIENTED_EDGE('',*,*,#217,.T.);
#267 = FACE_BOUND('',#268,.T.);
#268 = EDGE_LOOP('',(#269));
#269 = ORIENTED_EDGE('',*,*,#231,.T.);
#270 = PLANE('',#271);
#271 = AXIS2_PLACEMENT_3D('',#272,#273,#274);
#272 = CARTESIAN_POINT('',(182.744,-1.108317446572E+03,
    1.354006715117E+03));
#273 = DIRECTION('',(1.,0.,0.));
#274 = DIRECTION('',(0.,0.,1.));
#275 = ADVANCED_FACE('',(#276,#282),#285,.T.);
#276 = FACE_BOUND('',#277,.T.);
#277 = EDGE_LOOP('',(#278,#279,#280,#281));
#278 = ORIENTED_EDGE('',*,*,#115,.T.);
#279 = ORIENTED_EDGE('',*,*,#146,.T.);
#280 = ORIENTED_EDGE('',*,*,#193,.T.);
#281 = ORIENTED_EDGE('',*,*,#210,.T.);
#282 = FACE_BOUND('',#283,.F.);
#283 = EDGE_LOOP('',(#284));
#284 = ORIENTED_EDGE('',*,*,#248,.T.);
#285 = PLANE('',#286);
#286 = AXIS2_PLACEMENT_3D('',#287,#288,#289);
#287 = CARTESIAN_POINT('',(232.744,-1.108317446572E+03,
    1.354006715117E+03));
#288 = DIRECTION('',(1.,0.,0.));
#289 = DIRECTION('',(0.,0.,1.));
#290 = ( GEOMETRIC_REPRESENTATION_CONTEXT(3) 
GLOBAL_UNCERTAINTY_ASSIGNED_CONTEXT((#294)) GLOBAL_UNIT_ASSIGNED_CONTEXT
((#291,#292,#293)) REPRESENTATION_CONTEXT('Context #1',
  '3D Context with UNIT and UNCERTAINTY') );
#291 = ( LENGTH_UNIT() NAMED_UNIT(*) SI_UNIT(.MILLI.,.METRE.) );
#292 = ( NAMED_UNIT(*) PLANE_ANGLE_UNIT() SI_UNIT($,.RADIAN.) );
#293 = ( NAMED_UNIT(*) SI_UNIT($,.STERADIAN.) SOLID_ANGLE_UNIT() );
#294 = UNCERTAINTY_MEASURE_WITH_UNIT(LENGTH_MEASURE(1.E-07),#291,
  'distance_accuracy_value','confusion accuracy');
#295 = CONTEXT_DEPENDENT_SHAPE_REPRESENTATION(#296,#298);
#296 = ( REPRESENTATION_RELATIONSHIP('','',#98,#59) 
REPRESENTATION_RELATIONSHIP_WITH_TRANSFORMATION(#297) 
SHAPE_REPRESENTATION_RELATIONSHIP() );
#297 = ITEM_DEFINED_TRANSFORMATION('','',#11,#60);
#298 = PRODUCT_DEFINITION_SHAPE('Placement','Placement of an item',#299
  );
#299 = NEXT_ASSEMBLY_USAGE_OCCURRENCE('2','cover02','',#54,#93,$);
#300 = PRODUCT_RELATED_PRODUCT_CATEGORY('part',$,(#95));
#301 = SHAPE_DEFINITION_REPRESENTATION(#302,#308);
#302 = PRODUCT_DEFINITION_SHAPE('','',#303);
#303 = PRODUCT_DEFINITION('design','',#304,#307);
#304 = PRODUCT_DEFINITION_FORMATION('','',#305);
#305 = PRODUCT('cover003','cover003','',(#306));
#306 = PRODUCT_CONTEXT('',#2,'mechanical');
#307 = PRODUCT_DEFINITION_CONTEXT('part definition',#2,'design');
#308 = ADVANCED_BREP_SHAPE_REPRESENTATION('',(#11,#309),#500);
#309 = MANIFOLD_SOLID_BREP('',#310);
#310 = CLOSED_SHELL('',(#311,#351,#382,#415,#437,#470,#485));
#311 = ADVANCED_FACE('',(#312),#346,.F.);
#312 = FACE_BOUND('',#313,.F.);
#313 = EDGE_LOOP('',(#314,#324,#332,#340));
#314 = ORIENTED_EDGE('',*,*,#315,.T.);
#315 = EDGE_CURVE('',#316,#318,#320,.T.);
#316 = VERTEX_POINT('',#317);
#317 = CARTESIAN_POINT('',(-817.256,-1.099942993E+03,1.343832644234E+03)
  );
#318 = VERTEX_POINT('',#319);
#319 = CARTESIAN_POINT('',(-767.256,-1.099942993E+03,1.343832644234E+03)
  );
#320 = LINE('',#321,#322);
#321 = CARTESIAN_POINT('',(-817.256,-1.099942993E+03,1.343832644234E+03)
  );
#322 = VECTOR('',#323,1.);
#323 = DIRECTION('',(1.,0.,0.));
#324 = ORIENTED_EDGE('',*,*,#325,.T.);
#325 = EDGE_CURVE('',#318,#326,#328,.T.);
#326 = VERTEX_POINT('',#327);
#327 = CARTESIAN_POINT('',(-767.256,-1.099942993E+03,1.364180786E+03));
#328 = LINE('',#329,#330);
#329 = CARTESIAN_POINT('',(-767.256,-1.099942993E+03,1.343832644234E+03)
  );
#330 = VECTOR('',#331,1.);
#331 = DIRECTION('',(0.,0.,1.));
#332 = ORIENTED_EDGE('',*,*,#333,.F.);
#333 = EDGE_CURVE('',#334,#326,#336,.T.);
#334 = VERTEX_POINT('',#335);
#335 = CARTESIAN_POINT('',(-817.256,-1.099942993E+03,1.364180786E+03));
#336 = LINE('',#337,#338);
#337 = CARTESIAN_POINT('',(-817.256,-1.099942993E+03,1.364180786E+03));
#338 = VECTOR('',#339,1.);
#339 = DIRECTION('',(1.,0.,0.));
#340 = ORIENTED_EDGE('',*,*,#341,.F.);
#341 = EDGE_CURVE('',#316,#334,#342,.T.);
#342 = LINE('',#343,#344);
#343 = CARTESIAN_POINT('',(-817.256,-1.099942993E+03,1.343832644234E+03)
  );
#344 = VECTOR('',#345,1.);
#345 = DIRECTION('',(0.,0.,1.));
#346 = PLANE('',#347);
#347 = AXIS2_PLACEMENT_3D('',#348,#349,#350);
#348 = CARTESIAN_POINT('',(-817.256,-1.099942993E+03,1.343832644234E+03)
  );
#349 = DIRECTION('',(0.,-1.,0.));
#350 = DIRECTION('',(0.,0.,1.));
#351 = ADVANCED_FACE('',(#352),#377,.F.);
#352 = FACE_BOUND('',#353,.F.);
#353 = EDGE_LOOP('',(#354,#355,#363,#371));
#354 = ORIENTED_EDGE('',*,*,#333,.T.);
#355 = ORIENTED_EDGE('',*,*,#356,.T.);
#356 = EDGE_CURVE('',#326,#357,#359,.T.);
#357 = VERTEX_POINT('',#358);
#358 = CARTESIAN_POINT('',(-767.256,-1.11094296215E+03,
    1.362950990476E+03));
#359 = LINE('',#360,#361);
#360 = CARTESIAN_POINT('',(-767.256,-1.099942993E+03,1.364180786E+03));
#361 = VECTOR('',#362,1.);
#362 = DIRECTION('',(0.,-0.993808373231,-0.111107683332));
#363 = ORIENTED_EDGE('',*,*,#364,.F.);
#364 = EDGE_CURVE('',#365,#357,#367,.T.);
#365 = VERTEX_POINT('',#366);
#366 = CARTESIAN_POINT('',(-817.256,-1.11094296215E+03,
    1.362950990476E+03));
#367 = LINE('',#368,#369);
#368 = CARTESIAN_POINT('',(-817.256,-1.11094296215E+03,
    1.362950990476E+03));
#369 = VECTOR('',#370,1.);
#370 = DIRECTION('',(1.,0.,0.));
#371 = ORIENTED_EDGE('',*,*,#372,.F.);
#372 = EDGE_CURVE('',#334,#365,#373,.T.);
#373 = LINE('',#374,#375);
#374 = CARTESIAN_POINT('',(-817.256,-1.099942993E+03,1.364180786E+03));
#375 = VECTOR('',#376,1.);
#376 = DIRECTION('',(0.,-0.993808373231,-0.111107683332));
#377 = PLANE('',#378);
#378 = AXIS2_PLACEMENT_3D('',#379,#380,#381);
#379 = CARTESIAN_POINT('',(-817.256,-1.099942993E+03,1.364180786E+03));
#380 = DIRECTION('',(0.,0.111107683332,-0.993808373231));
#381 = DIRECTION('',(0.,-0.993808373231,-0.111107683332));
#382 = ADVANCED_FACE('',(#383),#410,.T.);
#383 = FACE_BOUND('',#384,.T.);
#384 = EDGE_LOOP('',(#385,#394,#402,#409));
#385 = ORIENTED_EDGE('',*,*,#386,.T.);
#386 = EDGE_CURVE('',#365,#387,#389,.T.);
#387 = VERTEX_POINT('',#388);
#388 = CARTESIAN_POINT('',(-817.256,-1.11094296215E+03,
    1.345062439758E+03));
#389 = CIRCLE('',#390,9.);
#390 = AXIS2_PLACEMENT_3D('',#391,#392,#393);
#391 = CARTESIAN_POINT('',(-817.256,-1.109942993E+03,1.354006715117E+03)
  );
#392 = DIRECTION('',(1.,0.,0.));
#393 = DIRECTION('',(-0.,1.,0.));
#394 = ORIENTED_EDGE('',*,*,#395,.T.);
#395 = EDGE_CURVE('',#387,#396,#398,.T.);
#396 = VERTEX_POINT('',#397);
#397 = CARTESIAN_POINT('',(-767.256,-1.11094296215E+03,
    1.345062439758E+03));
#398 = LINE('',#399,#400);
#399 = CARTESIAN_POINT('',(-817.256,-1.11094296215E+03,
    1.345062439758E+03));
#400 = VECTOR('',#401,1.);
#401 = DIRECTION('',(1.,0.,0.));
#402 = ORIENTED_EDGE('',*,*,#403,.F.);
#403 = EDGE_CURVE('',#357,#396,#404,.T.);
#404 = CIRCLE('',#405,9.);
#405 = AXIS2_PLACEMENT_3D('',#406,#407,#408);
#406 = CARTESIAN_POINT('',(-767.256,-1.109942993E+03,1.354006715117E+03)
  );
#407 = DIRECTION('',(1.,0.,0.));
#408 = DIRECTION('',(-0.,1.,0.));
#409 = ORIENTED_EDGE('',*,*,#364,.F.);
#410 = CYLINDRICAL_SURFACE('',#411,9.);
#411 = AXIS2_PLACEMENT_3D('',#412,#413,#414);
#412 = CARTESIAN_POINT('',(-817.256,-1.109942993E+03,1.354006715117E+03)
  );
#413 = DIRECTION('',(-1.,-0.,-0.));
#414 = DIRECTION('',(0.,1.,0.));
#415 = ADVANCED_FACE('',(#416),#432,.F.);
#416 = FACE_BOUND('',#417,.F.);
#417 = EDGE_LOOP('',(#418,#419,#425,#426));
#418 = ORIENTED_EDGE('',*,*,#395,.T.);
#419 = ORIENTED_EDGE('',*,*,#420,.T.);
#420 = EDGE_CURVE('',#396,#318,#421,.T.);
#421 = LINE('',#422,#423);
#422 = CARTESIAN_POINT('',(-767.256,-1.11094296215E+03,
    1.345062439758E+03));
#423 = VECTOR('',#424,1.);
#424 = DIRECTION('',(0.,0.993808373231,-0.111107683332));
#425 = ORIENTED_EDGE('',*,*,#315,.F.);
#426 = ORIENTED_EDGE('',*,*,#427,.F.);
#427 = EDGE_CURVE('',#387,#316,#428,.T.);
#428 = LINE('',#429,#430);
#429 = CARTESIAN_POINT('',(-817.256,-1.11094296215E+03,
    1.345062439758E+03));
#430 = VECTOR('',#431,1.);
#431 = DIRECTION('',(0.,0.993808373231,-0.111107683332));
#432 = PLANE('',#433);
#433 = AXIS2_PLACEMENT_3D('',#434,#435,#436);
#434 = CARTESIAN_POINT('',(-817.256,-1.11094296215E+03,
    1.345062439758E+03));
#435 = DIRECTION('',(0.,0.111107683332,0.993808373231));
#436 = DIRECTION('',(0.,0.993808373231,-0.111107683332));
#437 = ADVANCED_FACE('',(#438),#465,.F.);
#438 = FACE_BOUND('',#439,.F.);
#439 = EDGE_LOOP('',(#440,#449,#457,#464));
#440 = ORIENTED_EDGE('',*,*,#441,.T.);
#441 = EDGE_CURVE('',#442,#442,#444,.T.);
#442 = VERTEX_POINT('',#443);
#443 = CARTESIAN_POINT('',(-817.256,-1.103942993E+03,1.354006715117E+03)
  );
#444 = CIRCLE('',#445,6.);
#445 = AXIS2_PLACEMENT_3D('',#446,#447,#448);
#446 = CARTESIAN_POINT('',(-817.256,-1.109942993E+03,1.354006715117E+03)
  );
#447 = DIRECTION('',(1.,0.,0.));
#448 = DIRECTION('',(-0.,1.,0.));
#449 = ORIENTED_EDGE('',*,*,#450,.T.);
#450 = EDGE_CURVE('',#442,#451,#453,.T.);
#451 = VERTEX_POINT('',#452);
#452 = CARTESIAN_POINT('',(-767.256,-1.103942993E+03,1.354006715117E+03)
  );
#453 = LINE('',#454,#455);
#454 = CARTESIAN_POINT('',(-817.256,-1.103942993E+03,1.354006715117E+03)
  );
#455 = VECTOR('',#456,1.);
#456 = DIRECTION('',(1.,0.,0.));
#457 = ORIENTED_EDGE('',*,*,#458,.F.);
#458 = EDGE_CURVE('',#451,#451,#459,.T.);
#459 = CIRCLE('',#460,6.);
#460 = AXIS2_PLACEMENT_3D('',#461,#462,#463);
#461 = CARTESIAN_POINT('',(-767.256,-1.109942993E+03,1.354006715117E+03)
  );
#462 = DIRECTION('',(1.,0.,0.));
#463 = DIRECTION('',(-0.,1.,0.));
#464 = ORIENTED_EDGE('',*,*,#450,.F.);
#465 = CYLINDRICAL_SURFACE('',#466,6.);
#466 = AXIS2_PLACEMENT_3D('',#467,#468,#469);
#467 = CARTESIAN_POINT('',(-817.256,-1.109942993E+03,1.354006715117E+03)
  );
#468 = DIRECTION('',(-1.,-0.,-0.));
#469 = DIRECTION('',(0.,1.,0.));
#470 = ADVANCED_FACE('',(#471,#477),#480,.F.);
#471 = FACE_BOUND('',#472,.F.);
#472 = EDGE_LOOP('',(#473,#474,#475,#476));
#473 = ORIENTED_EDGE('',*,*,#341,.T.);
#474 = ORIENTED_EDGE('',*,*,#372,.T.);
#475 = ORIENTED_EDGE('',*,*,#386,.T.);
#476 = ORIENTED_EDGE('',*,*,#427,.T.);
#477 = FACE_BOUND('',#478,.T.);
#478 = EDGE_LOOP('',(#479));
#479 = ORIENTED_EDGE('',*,*,#441,.T.);
#480 = PLANE('',#481);
#481 = AXIS2_PLACEMENT_3D('',#482,#483,#484);
#482 = CARTESIAN_POINT('',(-817.256,-1.108317446572E+03,
    1.354006715117E+03));
#483 = DIRECTION('',(1.,0.,0.));
#484 = DIRECTION('',(0.,0.,1.));
#485 = ADVANCED_FACE('',(#486,#492),#495,.T.);
#486 = FACE_BOUND('',#487,.T.);
#487 = EDGE_LOOP('',(#488,#489,#490,#491));
#488 = ORIENTED_EDGE('',*,*,#325,.T.);
#489 = ORIENTED_EDGE('',*,*,#356,.T.);
#490 = ORIENTED_EDGE('',*,*,#403,.T.);
#491 = ORIENTED_EDGE('',*,*,#420,.T.);
#492 = FACE_BOUND('',#493,.F.);
#493 = EDGE_LOOP('',(#494));
#494 = ORIENTED_EDGE('',*,*,#458,.T.);
#495 = PLANE('',#496);
#496 = AXIS2_PLACEMENT_3D('',#497,#498,#499);
#497 = CARTESIAN_POINT('',(-767.256,-1.108317446572E+03,
    1.354006715117E+03));
#498 = DIRECTION('',(1.,0.,0.));
#499 = DIRECTION('',(0.,0.,1.));
#500 = ( GEOMETRIC_REPRESENTATION_CONTEXT(3) 
GLOBAL_UNCERTAINTY_ASSIGNED_CONTEXT((#504)) GLOBAL_UNIT_ASSIGNED_CONTEXT
((#501,#502,#503)) REPRESENTATION_CONTEXT('Context #1',
  '3D Context with UNIT and UNCERTAINTY') );
#501 = ( LENGTH_UNIT() NAMED_UNIT(*) SI_UNIT(.MILLI.,.METRE.) );
#502 = ( NAMED_UNIT(*) PLANE_ANGLE_UNIT() SI_UNIT($,.RADIAN.) );
#503 = ( NAMED_UNIT(*) SI_UNIT($,.STERADIAN.) SOLID_ANGLE_UNIT() );
#504 = UNCERTAINTY_MEASURE_WITH_UNIT(LENGTH_MEASURE(1.E-07),#501,
  'distance_accuracy_value','confusion accuracy');
#505 = CONTEXT_DEPENDENT_SHAPE_REPRESENTATION(#506,#508);
#506 = ( REPRESENTATION_RELATIONSHIP('','',#308,#59) 
REPRESENTATION_RELATIONSHIP_WITH_TRANSFORMATION(#507) 
SHAPE_REPRESENTATION_RELATIONSHIP() );
#507 = ITEM_DEFINED_TRANSFORMATION('','',#11,#64);
#508 = PRODUCT_DEFINITION_SHAPE('Placement','Placement of an item',#509
  );
#509 = NEXT_ASSEMBLY_USAGE_OCCURRENCE('3','cover003','',#54,#303,$);
#510 = PRODUCT_RELATED_PRODUCT_CATEGORY('part',$,(#305));
#511 = SHAPE_DEFINITION_REPRESENTATION(#512,#518);
#512 = PRODUCT_DEFINITION_SHAPE('','',#513);
#513 = PRODUCT_DEFINITION('design','',#514,#517);
#514 = PRODUCT_DEFINITION_FORMATION('','',#515);
#515 = PRODUCT('cover004','cover004','',(#516));
#516 = PRODUCT_CONTEXT('',#2,'mechanical');
#517 = PRODUCT_DEFINITION_CONTEXT('part definition',#2,'design');
#518 = ADVANCED_BREP_SHAPE_REPRESENTATION('',(#11,#519),#710);
#519 = MANIFOLD_SOLID_BREP('',#520);
#520 = CLOSED_SHELL('',(#521,#561,#592,#625,#647,#680,#695));
#521 = ADVANCED_FACE('',(#522),#556,.F.);
#522 = FACE_BOUND('',#523,.F.);
#523 = EDGE_LOOP('',(#524,#534,#542,#550));
#524 = ORIENTED_EDGE('',*,*,#525,.T.);
#525 = EDGE_CURVE('',#526,#528,#530,.T.);
#526 = VERTEX_POINT('',#527);
#527 = CARTESIAN_POINT('',(-1.817256E+03,-1.099942993E+03,
    1.343832644234E+03));
#528 = VERTEX_POINT('',#529);
#529 = CARTESIAN_POINT('',(-1.767256E+03,-1.099942993E+03,
    1.343832644234E+03));
#530 = LINE('',#531,#532);
#531 = CARTESIAN_POINT('',(-1.817256E+03,-1.099942993E+03,
    1.343832644234E+03));
#532 = VECTOR('',#533,1.);
#533 = DIRECTION('',(1.,0.,0.));
#534 = ORIENTED_EDGE('',*,*,#535,.T.);
#535 = EDGE_CURVE('',#528,#536,#538,.T.);
#536 = VERTEX_POINT('',#537);
#537 = CARTESIAN_POINT('',(-1.767256E+03,-1.099942993E+03,
    1.364180786E+03));
#538 = LINE('',#539,#540);
#539 = CARTESIAN_POINT('',(-1.767256E+03,-1.099942993E+03,
    1.343832644234E+03));
#540 = VECTOR('',#541,1.);
#541 = DIRECTION('',(0.,0.,1.));
#542 = ORIENTED_EDGE('',*,*,#543,.F.);
#543 = EDGE_CURVE('',#544,#536,#546,.T.);
#544 = VERTEX_POINT('',#545);
#545 = CARTESIAN_POINT('',(-1.817256E+03,-1.099942993E+03,
    1.364180786E+03));
#546 = LINE('',#547,#548);
#547 = CARTESIAN_POINT('',(-1.817256E+03,-1.099942993E+03,
    1.364180786E+03));
#548 = VECTOR('',#549,1.);
#549 = DIRECTION('',(1.,0.,0.));
#550 = ORIENTED_EDGE('',*,*,#551,.F.);
#551 = EDGE_CURVE('',#526,#544,#552,.T.);
#552 = LINE('',#553,#554);
#553 = CARTESIAN_POINT('',(-1.817256E+03,-1.099942993E+03,
    1.343832644234E+03));
#554 = VECTOR('',#555,1.);
#555 = DIRECTION('',(0.,0.,1.));
#556 = PLANE('',#557);
#557 = AXIS2_PLACEMENT_3D('',#558,#559,#560);
#558 = CARTESIAN_POINT('',(-1.817256E+03,-1.099942993E+03,
    1.343832644234E+03));
#559 = DIRECTION('',(0.,-1.,0.));
#560 = DIRECTION('',(0.,0.,1.));
#561 = ADVANCED_FACE('',(#562),#587,.F.);
#562 = FACE_BOUND('',#563,.F.);
#563 = EDGE_LOOP('',(#564,#565,#573,#581));
#564 = ORIENTED_EDGE('',*,*,#543,.T.);
#565 = ORIENTED_EDGE('',*,*,#566,.T.);
#566 = EDGE_CURVE('',#536,#567,#569,.T.);
#567 = VERTEX_POINT('',#568);
#568 = CARTESIAN_POINT('',(-1.767256E+03,-1.11094296215E+03,
    1.362950990476E+03));
#569 = LINE('',#570,#571);
#570 = CARTESIAN_POINT('',(-1.767256E+03,-1.099942993E+03,
    1.364180786E+03));
#571 = VECTOR('',#572,1.);
#572 = DIRECTION('',(0.,-0.993808373231,-0.111107683332));
#573 = ORIENTED_EDGE('',*,*,#574,.F.);
#574 = EDGE_CURVE('',#575,#567,#577,.T.);
#575 = VERTEX_POINT('',#576);
#576 = CARTESIAN_POINT('',(-1.817256E+03,-1.11094296215E+03,
    1.362950990476E+03));
#577 = LINE('',#578,#579);
#578 = CARTESIAN_POINT('',(-1.817256E+03,-1.11094296215E+03,
    1.362950990476E+03));
#579 = VECTOR('',#580,1.);
#580 = DIRECTION('',(1.,0.,0.));
#581 = ORIENTED_EDGE('',*,*,#582,.F.);
#582 = EDGE_CURVE('',#544,#575,#583,.T.);
#583 = LINE('',#584,#585);
#584 = CARTESIAN_POINT('',(-1.817256E+03,-1.099942993E+03,
    1.364180786E+03));
#585 = VECTOR('',#586,1.);
#586 = DIRECTION('',(0.,-0.993808373231,-0.111107683332));
#587 = PLANE('',#588);
#588 = AXIS2_PLACEMENT_3D('',#589,#590,#591);
#589 = CARTESIAN_POINT('',(-1.817256E+03,-1.099942993E+03,
    1.364180786E+03));
#590 = DIRECTION('',(0.,0.111107683332,-0.993808373231));
#591 = DIRECTION('',(0.,-0.993808373231,-0.111107683332));
#592 = ADVANCED_FACE('',(#593),#620,.T.);
#593 = FACE_BOUND('',#594,.T.);
#594 = EDGE_LOOP('',(#595,#604,#612,#619));
#595 = ORIENTED_EDGE('',*,*,#596,.T.);
#596 = EDGE_CURVE('',#575,#597,#599,.T.);
#597 = VERTEX_POINT('',#598);
#598 = CARTESIAN_POINT('',(-1.817256E+03,-1.11094296215E+03,
    1.345062439758E+03));
#599 = CIRCLE('',#600,9.);
#600 = AXIS2_PLACEMENT_3D('',#601,#602,#603);
#601 = CARTESIAN_POINT('',(-1.817256E+03,-1.109942993E+03,
    1.354006715117E+03));
#602 = DIRECTION('',(1.,0.,0.));
#603 = DIRECTION('',(-0.,1.,0.));
#604 = ORIENTED_EDGE('',*,*,#605,.T.);
#605 = EDGE_CURVE('',#597,#606,#608,.T.);
#606 = VERTEX_POINT('',#607);
#607 = CARTESIAN_POINT('',(-1.767256E+03,-1.11094296215E+03,
    1.345062439758E+03));
#608 = LINE('',#609,#610);
#609 = CARTESIAN_POINT('',(-1.817256E+03,-1.11094296215E+03,
    1.345062439758E+03));
#610 = VECTOR('',#611,1.);
#611 = DIRECTION('',(1.,0.,0.));
#612 = ORIENTED_EDGE('',*,*,#613,.F.);
#613 = EDGE_CURVE('',#567,#606,#614,.T.);
#614 = CIRCLE('',#615,9.);
#615 = AXIS2_PLACEMENT_3D('',#616,#617,#618);
#616 = CARTESIAN_POINT('',(-1.767256E+03,-1.109942993E+03,
    1.354006715117E+03));
#617 = DIRECTION('',(1.,0.,0.));
#618 = DIRECTION('',(-0.,1.,0.));
#619 = ORIENTED_EDGE('',*,*,#574,.F.);
#620 = CYLINDRICAL_SURFACE('',#621,9.);
#621 = AXIS2_PLACEMENT_3D('',#622,#623,#624);
#622 = CARTESIAN_POINT('',(-1.817256E+03,-1.109942993E+03,
    1.354006715117E+03));
#623 = DIRECTION('',(-1.,-0.,-0.));
#624 = DIRECTION('',(0.,1.,0.));
#625 = ADVANCED_FACE('',(#626),#642,.F.);
#626 = FACE_BOUND('',#627,.F.);
#627 = EDGE_LOOP('',(#628,#629,#635,#636));
#628 = ORIENTED_EDGE('',*,*,#605,.T.);
#629 = ORIENTED_EDGE('',*,*,#630,.T.);
#630 = EDGE_CURVE('',#606,#528,#631,.T.);
#631 = LINE('',#632,#633);
#632 = CARTESIAN_POINT('',(-1.767256E+03,-1.11094296215E+03,
    1.345062439758E+03));
#633 = VECTOR('',#634,1.);
#634 = DIRECTION('',(0.,0.993808373231,-0.111107683332));
#635 = ORIENTED_EDGE('',*,*,#525,.F.);
#636 = ORIENTED_EDGE('',*,*,#637,.F.);
#637 = EDGE_CURVE('',#597,#526,#638,.T.);
#638 = LINE('',#639,#640);
#639 = CARTESIAN_POINT('',(-1.817256E+03,-1.11094296215E+03,
    1.345062439758E+03));
#640 = VECTOR('',#641,1.);
#641 = DIRECTION('',(0.,0.993808373231,-0.111107683332));
#642 = PLANE('',#643);
#643 = AXIS2_PLACEMENT_3D('',#644,#645,#646);
#644 = CARTESIAN_POINT('',(-1.817256E+03,-1.11094296215E+03,
    1.345062439758E+03));
#645 = DIRECTION('',(0.,0.111107683332,0.993808373231));
#646 = DIRECTION('',(0.,0.993808373231,-0.111107683332));
#647 = ADVANCED_FACE('',(#648),#675,.F.);
#648 = FACE_BOUND('',#649,.F.);
#649 = EDGE_LOOP('',(#650,#659,#667,#674));
#650 = ORIENTED_EDGE('',*,*,#651,.T.);
#651 = EDGE_CURVE('',#652,#652,#654,.T.);
#652 = VERTEX_POINT('',#653);
#653 = CARTESIAN_POINT('',(-1.817256E+03,-1.103942993E+03,
    1.354006715117E+03));
#654 = CIRCLE('',#655,6.);
#655 = AXIS2_PLACEMENT_3D('',#656,#657,#658);
#656 = CARTESIAN_POINT('',(-1.817256E+03,-1.109942993E+03,
    1.354006715117E+03));
#657 = DIRECTION('',(1.,0.,0.));
#658 = DIRECTION('',(-0.,1.,0.));
#659 = ORIENTED_EDGE('',*,*,#660,.T.);
#660 = EDGE_CURVE('',#652,#661,#663,.T.);
#661 = VERTEX_POINT('',#662);
#662 = CARTESIAN_POINT('',(-1.767256E+03,-1.103942993E+03,
    1.354006715117E+03));
#663 = LINE('',#664,#665);
#664 = CARTESIAN_POINT('',(-1.817256E+03,-1.103942993E+03,
    1.354006715117E+03));
#665 = VECTOR('',#666,1.);
#666 = DIRECTION('',(1.,0.,0.));
#667 = ORIENTED_EDGE('',*,*,#668,.F.);
#668 = EDGE_CURVE('',#661,#661,#669,.T.);
#669 = CIRCLE('',#670,6.);
#670 = AXIS2_PLACEMENT_3D('',#671,#672,#673);
#671 = CARTESIAN_POINT('',(-1.767256E+03,-1.109942993E+03,
    1.354006715117E+03));
#672 = DIRECTION('',(1.,0.,0.));
#673 = DIRECTION('',(-0.,1.,0.));
#674 = ORIENTED_EDGE('',*,*,#660,.F.);
#675 = CYLINDRICAL_SURFACE('',#676,6.);
#676 = AXIS2_PLACEMENT_3D('',#677,#678,#679);
#677 = CARTESIAN_POINT('',(-1.817256E+03,-1.109942993E+03,
    1.354006715117E+03));
#678 = DIRECTION('',(-1.,-0.,-0.));
#679 = DIRECTION('',(0.,1.,0.));
#680 = ADVANCED_FACE('',(#681,#687),#690,.F.);
#681 = FACE_BOUND('',#682,.F.);
#682 = EDGE_LOOP('',(#683,#684,#685,#686));
#683 = ORIENTED_EDGE('',*,*,#551,.T.);
#684 = ORIENTED_EDGE('',*,*,#582,.T.);
#685 = ORIENTED_EDGE('',*,*,#596,.T.);
#686 = ORIENTED_EDGE('',*,*,#637,.T.);
#687 = FACE_BOUND('',#688,.T.);
#688 = EDGE_LOOP('',(#689));
#689 = ORIENTED_EDGE('',*,*,#651,.T.);
#690 = PLANE('',#691);
#691 = AXIS2_PLACEMENT_3D('',#692,#693,#694);
#692 = CARTESIAN_POINT('',(-1.817256E+03,-1.108317446572E+03,
    1.354006715117E+03));
#693 = DIRECTION('',(1.,0.,0.));
#694 = DIRECTION('',(0.,0.,1.));
#695 = ADVANCED_FACE('',(#696,#702),#705,.T.);
#696 = FACE_BOUND('',#697,.T.);
#697 = EDGE_LOOP('',(#698,#699,#700,#701));
#698 = ORIENTED_EDGE('',*,*,#535,.T.);
#699 = ORIENTED_EDGE('',*,*,#566,.T.);
#700 = ORIENTED_EDGE('',*,*,#613,.T.);
#701 = ORIENTED_EDGE('',*,*,#630,.T.);
#702 = FACE_BOUND('',#703,.F.);
#703 = EDGE_LOOP('',(#704));
#704 = ORIENTED_EDGE('',*,*,#668,.T.);
#705 = PLANE('',#706);
#706 = AXIS2_PLACEMENT_3D('',#707,#708,#709);
#707 = CARTESIAN_POINT('',(-1.767256E+03,-1.108317446572E+03,
    1.354006715117E+03));
#708 = DIRECTION('',(1.,0.,0.));
#709 = DIRECTION('',(0.,0.,1.));
#710 = ( GEOMETRIC_REPRESENTATION_CONTEXT(3) 
GLOBAL_UNCERTAINTY_ASSIGNED_CONTEXT((#714)) GLOBAL_UNIT_ASSIGNED_CONTEXT
((#711,#712,#713)) REPRESENTATION_CONTEXT('Context #1',
  '3D Context with UNIT and UNCERTAINTY') );
#711 = ( LENGTH_UNIT() NAMED_UNIT(*) SI_UNIT(.MILLI.,.METRE.) );
#712 = ( NAMED_UNIT(*) PLANE_ANGLE_UNIT() SI_UNIT($,.RADIAN.) );
#713 = ( NAMED_UNIT(*) SI_UNIT($,.STERADIAN.) SOLID_ANGLE_UNIT() );
#714 = UNCERTAINTY_MEASURE_WITH_UNIT(LENGTH_MEASURE(1.E-07),#711,
  'distance_accuracy_value','confusion accuracy');
#715 = CONTEXT_DEPENDENT_SHAPE_REPRESENTATION(#716,#718);
#716 = ( REPRESENTATION_RELATIONSHIP('','',#518,#59) 
REPRESENTATION_RELATIONSHIP_WITH_TRANSFORMATION(#717) 
SHAPE_REPRESENTATION_RELATIONSHIP() );
#717 = ITEM_DEFINED_TRANSFORMATION('','',#11,#68);
#718 = PRODUCT_DEFINITION_SHAPE('Placement','Placement of an item',#719
  );
#719 = NEXT_ASSEMBLY_USAGE_OCCURRENCE('4','cover004','',#54,#513,$);
#720 = PRODUCT_RELATED_PRODUCT_CATEGORY('part',$,(#515));
#721 = SHAPE_DEFINITION_REPRESENTATION(#722,#728);
#722 = PRODUCT_DEFINITION_SHAPE('','',#723);
#723 = PRODUCT_DEFINITION('design','',#724,#727);
#724 = PRODUCT_DEFINITION_FORMATION('','',#725);
#725 = PRODUCT('cover005','cover005','',(#726));
#726 = PRODUCT_CONTEXT('',#2,'mechanical');
#727 = PRODUCT_DEFINITION_CONTEXT('part definition',#2,'design');
#728 = ADVANCED_BREP_SHAPE_REPRESENTATION('',(#11,#729),#920);
#729 = MANIFOLD_SOLID_BREP('',#730);
#730 = CLOSED_SHELL('',(#731,#771,#802,#835,#857,#890,#905));
#731 = ADVANCED_FACE('',(#732),#766,.F.);
#732 = FACE_BOUND('',#733,.F.);
#733 = EDGE_LOOP('',(#734,#744,#752,#760));
#734 = ORIENTED_EDGE('',*,*,#735,.T.);
#735 = EDGE_CURVE('',#736,#738,#740,.T.);
#736 = VERTEX_POINT('',#737);
#737 = CARTESIAN_POINT('',(-2.817256E+03,-1.099942993E+03,
    1.343832644234E+03));
#738 = VERTEX_POINT('',#739);
#739 = CARTESIAN_POINT('',(-2.767256E+03,-1.099942993E+03,
    1.343832644234E+03));
#740 = LINE('',#741,#742);
#741 = CARTESIAN_POINT('',(-2.817256E+03,-1.099942993E+03,
    1.343832644234E+03));
#742 = VECTOR('',#743,1.);
#743 = DIRECTION('',(1.,0.,0.));
#744 = ORIENTED_EDGE('',*,*,#745,.T.);
#745 = EDGE_CURVE('',#738,#746,#748,.T.);
#746 = VERTEX_POINT('',#747);
#747 = CARTESIAN_POINT('',(-2.767256E+03,-1.099942993E+03,
    1.364180786E+03));
#748 = LINE('',#749,#750);
#749 = CARTESIAN_POINT('',(-2.767256E+03,-1.099942993E+03,
    1.343832644234E+03));
#750 = VECTOR('',#751,1.);
#751 = DIRECTION('',(0.,0.,1.));
#752 = ORIENTED_EDGE('',*,*,#753,.F.);
#753 = EDGE_CURVE('',#754,#746,#756,.T.);
#754 = VERTEX_POINT('',#755);
#755 = CARTESIAN_POINT('',(-2.817256E+03,-1.099942993E+03,
    1.364180786E+03));
#756 = LINE('',#757,#758);
#757 = CARTESIAN_POINT('',(-2.817256E+03,-1.099942993E+03,
    1.364180786E+03));
#758 = VECTOR('',#759,1.);
#759 = DIRECTION('',(1.,0.,0.));
#760 = ORIENTED_EDGE('',*,*,#761,.F.);
#761 = EDGE_CURVE('',#736,#754,#762,.T.);
#762 = LINE('',#763,#764);
#763 = CARTESIAN_POINT('',(-2.817256E+03,-1.099942993E+03,
    1.343832644234E+03));
#764 = VECTOR('',#765,1.);
#765 = DIRECTION('',(0.,0.,1.));
#766 = PLANE('',#767);
#767 = AXIS2_PLACEMENT_3D('',#768,#769,#770);
#768 = CARTESIAN_POINT('',(-2.817256E+03,-1.099942993E+03,
    1.343832644234E+03));
#769 = DIRECTION('',(0.,-1.,0.));
#770 = DIRECTION('',(0.,0.,1.));
#771 = ADVANCED_FACE('',(#772),#797,.F.);
#772 = FACE_BOUND('',#773,.F.);
#773 = EDGE_LOOP('',(#774,#775,#783,#791));
#774 = ORIENTED_EDGE('',*,*,#753,.T.);
#775 = ORIENTED_EDGE('',*,*,#776,.T.);
#776 = EDGE_CURVE('',#746,#777,#779,.T.);
#777 = VERTEX_POINT('',#778);
#778 = CARTESIAN_POINT('',(-2.767256E+03,-1.11094296215E+03,
    1.362950990476E+03));
#779 = LINE('',#780,#781);
#780 = CARTESIAN_POINT('',(-2.767256E+03,-1.099942993E+03,
    1.364180786E+03));
#781 = VECTOR('',#782,1.);
#782 = DIRECTION('',(0.,-0.993808373231,-0.111107683332));
#783 = ORIENTED_EDGE('',*,*,#784,.F.);
#784 = EDGE_CURVE('',#785,#777,#787,.T.);
#785 = VERTEX_POINT('',#786);
#786 = CARTESIAN_POINT('',(-2.817256E+03,-1.11094296215E+03,
    1.362950990476E+03));
#787 = LINE('',#788,#789);
#788 = CARTESIAN_POINT('',(-2.817256E+03,-1.11094296215E+03,
    1.362950990476E+03));
#789 = VECTOR('',#790,1.);
#790 = DIRECTION('',(1.,0.,0.));
#791 = ORIENTED_EDGE('',*,*,#792,.F.);
#792 = EDGE_CURVE('',#754,#785,#793,.T.);
#793 = LINE('',#794,#795);
#794 = CARTESIAN_POINT('',(-2.817256E+03,-1.099942993E+03,
    1.364180786E+03));
#795 = VECTOR('',#796,1.);
#796 = DIRECTION('',(0.,-0.993808373231,-0.111107683332));
#797 = PLANE('',#798);
#798 = AXIS2_PLACEMENT_3D('',#799,#800,#801);
#799 = CARTESIAN_POINT('',(-2.817256E+03,-1.099942993E+03,
    1.364180786E+03));
#800 = DIRECTION('',(0.,0.111107683332,-0.993808373231));
#801 = DIRECTION('',(0.,-0.993808373231,-0.111107683332));
#802 = ADVANCED_FACE('',(#803),#830,.T.);
#803 = FACE_BOUND('',#804,.T.);
#804 = EDGE_LOOP('',(#805,#814,#822,#829));
#805 = ORIENTED_EDGE('',*,*,#806,.T.);
#806 = EDGE_CURVE('',#785,#807,#809,.T.);
#807 = VERTEX_POINT('',#808);
#808 = CARTESIAN_POINT('',(-2.817256E+03,-1.11094296215E+03,
    1.345062439758E+03));
#809 = CIRCLE('',#810,9.);
#810 = AXIS2_PLACEMENT_3D('',#811,#812,#813);
#811 = CARTESIAN_POINT('',(-2.817256E+03,-1.109942993E+03,
    1.354006715117E+03));
#812 = DIRECTION('',(1.,0.,0.));
#813 = DIRECTION('',(-0.,1.,0.));
#814 = ORIENTED_EDGE('',*,*,#815,.T.);
#815 = EDGE_CURVE('',#807,#816,#818,.T.);
#816 = VERTEX_POINT('',#817);
#817 = CARTESIAN_POINT('',(-2.767256E+03,-1.11094296215E+03,
    1.345062439758E+03));
#818 = LINE('',#819,#820);
#819 = CARTESIAN_POINT('',(-2.817256E+03,-1.11094296215E+03,
    1.345062439758E+03));
#820 = VECTOR('',#821,1.);
#821 = DIRECTION('',(1.,0.,0.));
#822 = ORIENTED_EDGE('',*,*,#823,.F.);
#823 = EDGE_CURVE('',#777,#816,#824,.T.);
#824 = CIRCLE('',#825,9.);
#825 = AXIS2_PLACEMENT_3D('',#826,#827,#828);
#826 = CARTESIAN_POINT('',(-2.767256E+03,-1.109942993E+03,
    1.354006715117E+03));
#827 = DIRECTION('',(1.,0.,0.));
#828 = DIRECTION('',(-0.,1.,0.));
#829 = ORIENTED_EDGE('',*,*,#784,.F.);
#830 = CYLINDRICAL_SURFACE('',#831,9.);
#831 = AXIS2_PLACEMENT_3D('',#832,#833,#834);
#832 = CARTESIAN_POINT('',(-2.817256E+03,-1.109942993E+03,
    1.354006715117E+03));
#833 = DIRECTION('',(-1.,-0.,-0.));
#834 = DIRECTION('',(0.,1.,0.));
#835 = ADVANCED_FACE('',(#836),#852,.F.);
#836 = FACE_BOUND('',#837,.F.);
#837 = EDGE_LOOP('',(#838,#839,#845,#846));
#838 = ORIENTED_EDGE('',*,*,#815,.T.);
#839 = ORIENTED_EDGE('',*,*,#840,.T.);
#840 = EDGE_CURVE('',#816,#738,#841,.T.);
#841 = LINE('',#842,#843);
#842 = CARTESIAN_POINT('',(-2.767256E+03,-1.11094296215E+03,
    1.345062439758E+03));
#843 = VECTOR('',#844,1.);
#844 = DIRECTION('',(0.,0.993808373231,-0.111107683332));
#845 = ORIENTED_EDGE('',*,*,#735,.F.);
#846 = ORIENTED_EDGE('',*,*,#847,.F.);
#847 = EDGE_CURVE('',#807,#736,#848,.T.);
#848 = LINE('',#849,#850);
#849 = CARTESIAN_POINT('',(-2.817256E+03,-1.11094296215E+03,
    1.345062439758E+03));
#850 = VECTOR('',#851,1.);
#851 = DIRECTION('',(0.,0.993808373231,-0.111107683332));
#852 = PLANE('',#853);
#853 = AXIS2_PLACEMENT_3D('',#854,#855,#856);
#854 = CARTESIAN_POINT('',(-2.817256E+03,-1.11094296215E+03,
    1.345062439758E+03));
#855 = DIRECTION('',(0.,0.111107683332,0.993808373231));
#856 = DIRECTION('',(0.,0.993808373231,-0.111107683332));
#857 = ADVANCED_FACE('',(#858),#885,.F.);
#858 = FACE_BOUND('',#859,.F.);
#859 = EDGE_LOOP('',(#860,#869,#877,#884));
#860 = ORIENTED_EDGE('',*,*,#861,.T.);
#861 = EDGE_CURVE('',#862,#862,#864,.T.);
#862 = VERTEX_POINT('',#863);
#863 = CARTESIAN_POINT('',(-2.817256E+03,-1.103942993E+03,
    1.354006715117E+03));
#864 = CIRCLE('',#865,6.);
#865 = AXIS2_PLACEMENT_3D('',#866,#867,#868);
#866 = CARTESIAN_POINT('',(-2.817256E+03,-1.109942993E+03,
    1.354006715117E+03));
#867 = DIRECTION('',(1.,0.,0.));
#868 = DIRECTION('',(-0.,1.,0.));
#869 = ORIENTED_EDGE('',*,*,#870,.T.);
#870 = EDGE_CURVE('',#862,#871,#873,.T.);
#871 = VERTEX_POINT('',#872);
#872 = CARTESIAN_POINT('',(-2.767256E+03,-1.103942993E+03,
    1.354006715117E+03));
#873 = LINE('',#874,#875);
#874 = CARTESIAN_POINT('',(-2.817256E+03,-1.103942993E+03,
    1.354006715117E+03));
#875 = VECTOR('',#876,1.);
#876 = DIRECTION('',(1.,0.,0.));
#877 = ORIENTED_EDGE('',*,*,#878,.F.);
#878 = EDGE_CURVE('',#871,#871,#879,.T.);
#879 = CIRCLE('',#880,6.);
#880 = AXIS2_PLACEMENT_3D('',#881,#882,#883);
#881 = CARTESIAN_POINT('',(-2.767256E+03,-1.109942993E+03,
    1.354006715117E+03));
#882 = DIRECTION('',(1.,0.,0.));
#883 = DIRECTION('',(-0.,1.,0.));
#884 = ORIENTED_EDGE('',*,*,#870,.F.);
#885 = CYLINDRICAL_SURFACE('',#886,6.);
#886 = AXIS2_PLACEMENT_3D('',#887,#888,#889);
#887 = CARTESIAN_POINT('',(-2.817256E+03,-1.109942993E+03,
    1.354006715117E+03));
#888 = DIRECTION('',(-1.,-0.,-0.));
#889 = DIRECTION('',(0.,1.,0.));
#890 = ADVANCED_FACE('',(#891,#897),#900,.F.);
#891 = FACE_BOUND('',#892,.F.);
#892 = EDGE_LOOP('',(#893,#894,#895,#896));
#893 = ORIENTED_EDGE('',*,*,#761,.T.);
#894 = ORIENTED_EDGE('',*,*,#792,.T.);
#895 = ORIENTED_EDGE('',*,*,#806,.T.);
#896 = ORIENTED_EDGE('',*,*,#847,.T.);
#897 = FACE_BOUND('',#898,.T.);
#898 = EDGE_LOOP('',(#899));
#899 = ORIENTED_EDGE('',*,*,#861,.T.);
#900 = PLANE('',#901);
#901 = AXIS2_PLACEMENT_3D('',#902,#903,#904);
#902 = CARTESIAN_POINT('',(-2.817256E+03,-1.108317446572E+03,
    1.354006715117E+03));
#903 = DIRECTION('',(1.,0.,0.));
#904 = DIRECTION('',(0.,0.,1.));
#905 = ADVANCED_FACE('',(#906,#912),#915,.T.);
#906 = FACE_BOUND('',#907,.T.);
#907 = EDGE_LOOP('',(#908,#909,#910,#911));
#908 = ORIENTED_EDGE('',*,*,#745,.T.);
#909 = ORIENTED_EDGE('',*,*,#776,.T.);
#910 = ORIENTED_EDGE('',*,*,#823,.T.);
#911 = ORIENTED_EDGE('',*,*,#840,.T.);
#912 = FACE_BOUND('',#913,.F.);
#913 = EDGE_LOOP('',(#914));
#914 = ORIENTED_EDGE('',*,*,#878,.T.);
#915 = PLANE('',#916);
#916 = AXIS2_PLACEMENT_3D('',#917,#918,#919);
#917 = CARTESIAN_POINT('',(-2.767256E+03,-1.108317446572E+03,
    1.354006715117E+03));
#918 = DIRECTION('',(1.,0.,0.));
#919 = DIRECTION('',(0.,0.,1.));
#920 = ( GEOMETRIC_REPRESENTATION_CONTEXT(3) 
GLOBAL_UNCERTAINTY_ASSIGNED_CONTEXT((#924)) GLOBAL_UNIT_ASSIGNED_CONTEXT
((#921,#922,#923)) REPRESENTATION_CONTEXT('Context #1',
  '3D Context with UNIT and UNCERTAINTY') );
#921 = ( LENGTH_UNIT() NAMED_UNIT(*) SI_UNIT(.MILLI.,.METRE.) );
#922 = ( NAMED_UNIT(*) PLANE_ANGLE_UNIT() SI_UNIT($,.RADIAN.) );
#923 = ( NAMED_UNIT(*) SI_UNIT($,.STERADIAN.) SOLID_ANGLE_UNIT() );
#924 = UNCERTAINTY_MEASURE_WITH_UNIT(LENGTH_MEASURE(1.E-07),#921,
  'distance_accuracy_value','confusion accuracy');
#925 = CONTEXT_DEPENDENT_SHAPE_REPRESENTATION(#926,#928);
#926 = ( REPRESENTATION_RELATIONSHIP('','',#728,#59) 
REPRESENTATION_RELATIONSHIP_WITH_TRANSFORMATION(#927) 
SHAPE_REPRESENTATION_RELATIONSHIP() );
#927 = ITEM_DEFINED_TRANSFORMATION('','',#11,#72);
#928 = PRODUCT_DEFINITION_SHAPE('Placement','Placement of an item',#929
  );
#929 = NEXT_ASSEMBLY_USAGE_OCCURRENCE('5','cover005','',#54,#723,$);
#930 = PRODUCT_RELATED_PRODUCT_CATEGORY('part',$,(#725));
#931 = SHAPE_DEFINITION_REPRESENTATION(#932,#938);
#932 = PRODUCT_DEFINITION_SHAPE('','',#933);
#933 = PRODUCT_DEFINITION('design','',#934,#937);
#934 = PRODUCT_DEFINITION_FORMATION('','',#935);
#935 = PRODUCT('cover006','cover006','',(#936));
#936 = PRODUCT_CONTEXT('',#2,'mechanical');
#937 = PRODUCT_DEFINITION_CONTEXT('part definition',#2,'design');
#938 = ADVANCED_BREP_SHAPE_REPRESENTATION('',(#11,#939),#1089);
#939 = MANIFOLD_SOLID_BREP('',#940);
#940 = CLOSED_SHELL('',(#941,#981,#1012,#1043,#1065,#1077));
#941 = ADVANCED_FACE('',(#942),#976,.T.);
#942 = FACE_BOUND('',#943,.T.);
#943 = EDGE_LOOP('',(#944,#954,#962,#970));
#944 = ORIENTED_EDGE('',*,*,#945,.T.);
#945 = EDGE_CURVE('',#946,#948,#950,.T.);
#946 = VERTEX_POINT('',#947);
#947 = CARTESIAN_POINT('',(539.99999999999,-1.099950899543E+03,
    1.343874881658E+03));
#948 = VERTEX_POINT('',#949);
#949 = CARTESIAN_POINT('',(-3.21E+03,-1.099950899543E+03,
    1.343874881658E+03));
#950 = LINE('',#951,#952);
#951 = CARTESIAN_POINT('',(539.99999999999,-1.099950899543E+03,
    1.343874881658E+03));
#952 = VECTOR('',#953,1.);
#953 = DIRECTION('',(-1.,4.4E-16,-3.9E-16));
#954 = ORIENTED_EDGE('',*,*,#955,.T.);
#955 = EDGE_CURVE('',#948,#956,#958,.T.);
#956 = VERTEX_POINT('',#957);
#957 = CARTESIAN_POINT('',(-3.21E+03,2.764E-12,1.537417847E+03));
#958 = LINE('',#959,#960);
#959 = CARTESIAN_POINT('',(-3.21E+03,-1.099950899543E+03,
    1.343874881658E+03));
#960 = VECTOR('',#961,1.);
#961 = DIRECTION('',(-2.8E-16,0.984870170098,0.173293820004));
#962 = ORIENTED_EDGE('',*,*,#963,.F.);
#963 = EDGE_CURVE('',#964,#956,#966,.T.);
#964 = VERTEX_POINT('',#965);
#965 = CARTESIAN_POINT('',(539.99999999999,6.83E-13,1.537417847E+03));
#966 = LINE('',#967,#968);
#967 = CARTESIAN_POINT('',(539.99999999999,5.1206E-13,1.537417847E+03));
#968 = VECTOR('',#969,1.);
#969 = DIRECTION('',(-1.,4.4E-16,-3.9E-16));
#970 = ORIENTED_EDGE('',*,*,#971,.F.);
#971 = EDGE_CURVE('',#946,#964,#972,.T.);
#972 = LINE('',#973,#974);
#973 = CARTESIAN_POINT('',(540.,-1.099950899543E+03,1.343874881658E+03)
  );
#974 = VECTOR('',#975,1.);
#975 = DIRECTION('',(-2.8E-16,0.984870170098,0.173293820004));
#976 = PLANE('',#977);
#977 = AXIS2_PLACEMENT_3D('',#978,#979,#980);
#978 = CARTESIAN_POINT('',(539.99999999999,-1.099950899543E+03,
    1.343874881658E+03));
#979 = DIRECTION('',(4.6E-16,0.173293820004,-0.984870170098));
#980 = DIRECTION('',(1.2E-16,0.984870170098,0.173293820004));
#981 = ADVANCED_FACE('',(#982),#1007,.T.);
#982 = FACE_BOUND('',#983,.T.);
#983 = EDGE_LOOP('',(#984,#985,#993,#1001));
#984 = ORIENTED_EDGE('',*,*,#963,.T.);
#985 = ORIENTED_EDGE('',*,*,#986,.T.);
#986 = EDGE_CURVE('',#956,#987,#989,.T.);
#987 = VERTEX_POINT('',#988);
#988 = CARTESIAN_POINT('',(-3.21E+03,2.773E-12,1.557725092165E+03));
#989 = LINE('',#990,#991);
#990 = CARTESIAN_POINT('',(-3.21E+03,-1.00352E-12,1.537417847E+03));
#991 = VECTOR('',#992,1.);
#992 = DIRECTION('',(-3.3E-16,-1.1E-16,1.));
#993 = ORIENTED_EDGE('',*,*,#994,.F.);
#994 = EDGE_CURVE('',#995,#987,#997,.T.);
#995 = VERTEX_POINT('',#996);
#996 = CARTESIAN_POINT('',(539.99999999999,6.92E-13,1.557725092165E+03)
  );
#997 = LINE('',#998,#999);
#998 = CARTESIAN_POINT('',(539.99999999999,5.1883E-13,1.557725092165E+03
    ));
#999 = VECTOR('',#1000,1.);
#1000 = DIRECTION('',(-1.,4.4E-16,-3.9E-16));
#1001 = ORIENTED_EDGE('',*,*,#1002,.F.);
#1002 = EDGE_CURVE('',#964,#995,#1003,.T.);
#1003 = LINE('',#1004,#1005);
#1004 = CARTESIAN_POINT('',(539.99999999999,-1.7069E-13,1.537417847E+03)
  );
#1005 = VECTOR('',#1006,1.);
#1006 = DIRECTION('',(-3.3E-16,-1.1E-16,1.));
#1007 = PLANE('',#1008);
#1008 = AXIS2_PLACEMENT_3D('',#1009,#1010,#1011);
#1009 = CARTESIAN_POINT('',(539.99999999999,5.1206E-13,1.537417847E+03)
  );
#1010 = DIRECTION('',(4.4E-16,1.,-3.3E-16));
#1011 = DIRECTION('',(-5.6E-16,3.3E-16,1.));
#1012 = ADVANCED_FACE('',(#1013),#1038,.T.);
#1013 = FACE_BOUND('',#1014,.T.);
#1014 = EDGE_LOOP('',(#1015,#1016,#1024,#1032));
#1015 = ORIENTED_EDGE('',*,*,#994,.T.);
#1016 = ORIENTED_EDGE('',*,*,#1017,.T.);
#1017 = EDGE_CURVE('',#987,#1018,#1020,.T.);
#1018 = VERTEX_POINT('',#1019);
#1019 = CARTESIAN_POINT('',(-3.21E+03,-1.099950899543E+03,
    1.364182126823E+03));
#1020 = LINE('',#1021,#1022);
#1021 = CARTESIAN_POINT('',(-3.21E+03,-1.00578E-12,1.557725092165E+03));
#1022 = VECTOR('',#1023,1.);
#1023 = DIRECTION('',(2.8E-16,-0.984870170098,-0.173293820004));
#1024 = ORIENTED_EDGE('',*,*,#1025,.F.);
#1025 = EDGE_CURVE('',#1026,#1018,#1028,.T.);
#1026 = VERTEX_POINT('',#1027);
#1027 = CARTESIAN_POINT('',(539.99999999999,-1.099950899543E+03,
    1.364182126823E+03));
#1028 = LINE('',#1029,#1030);
#1029 = CARTESIAN_POINT('',(539.99999999999,-1.099950899543E+03,
    1.364182126823E+03));
#1030 = VECTOR('',#1031,1.);
#1031 = DIRECTION('',(-1.,4.4E-16,-3.9E-16));
#1032 = ORIENTED_EDGE('',*,*,#1033,.F.);
#1033 = EDGE_CURVE('',#995,#1026,#1034,.T.);
#1034 = LINE('',#1035,#1036);
#1035 = CARTESIAN_POINT('',(539.99999999999,-1.7294E-13,
    1.557725092165E+03));
#1036 = VECTOR('',#1037,1.);
#1037 = DIRECTION('',(2.8E-16,-0.984870170098,-0.173293820004));
#1038 = PLANE('',#1039);
#1039 = AXIS2_PLACEMENT_3D('',#1040,#1041,#1042);
#1040 = CARTESIAN_POINT('',(539.99999999999,5.1883E-13,
    1.557725092165E+03));
#1041 = DIRECTION('',(-4.6E-16,-0.173293820004,0.984870170098));
#1042 = DIRECTION('',(-1.2E-16,-0.984870170098,-0.173293820004));
#1043 = ADVANCED_FACE('',(#1044),#1060,.T.);
#1044 = FACE_BOUND('',#1045,.T.);
#1045 = EDGE_LOOP('',(#1046,#1047,#1053,#1054));
#1046 = ORIENTED_EDGE('',*,*,#1025,.T.);
#1047 = ORIENTED_EDGE('',*,*,#1048,.T.);
#1048 = EDGE_CURVE('',#1018,#948,#1049,.T.);
#1049 = LINE('',#1050,#1051);
#1050 = CARTESIAN_POINT('',(-3.21E+03,-1.099950899543E+03,
    1.364182126823E+03));
#1051 = VECTOR('',#1052,1.);
#1052 = DIRECTION('',(3.3E-16,1.1E-16,-1.));
#1053 = ORIENTED_EDGE('',*,*,#945,.F.);
#1054 = ORIENTED_EDGE('',*,*,#1055,.F.);
#1055 = EDGE_CURVE('',#1026,#946,#1056,.T.);
#1056 = LINE('',#1057,#1058);
#1057 = CARTESIAN_POINT('',(540.,-1.099950899543E+03,1.364182126823E+03)
  );
#1058 = VECTOR('',#1059,1.);
#1059 = DIRECTION('',(3.3E-16,1.1E-16,-1.));
#1060 = PLANE('',#1061);
#1061 = AXIS2_PLACEMENT_3D('',#1062,#1063,#1064);
#1062 = CARTESIAN_POINT('',(539.99999999999,-1.099950899543E+03,
    1.364182126823E+03));
#1063 = DIRECTION('',(-4.4E-16,-1.,3.3E-16));
#1064 = DIRECTION('',(5.6E-16,-3.3E-16,-1.));
#1065 = ADVANCED_FACE('',(#1066),#1072,.T.);
#1066 = FACE_BOUND('',#1067,.T.);
#1067 = EDGE_LOOP('',(#1068,#1069,#1070,#1071));
#1068 = ORIENTED_EDGE('',*,*,#971,.T.);
#1069 = ORIENTED_EDGE('',*,*,#1002,.T.);
#1070 = ORIENTED_EDGE('',*,*,#1033,.T.);
#1071 = ORIENTED_EDGE('',*,*,#1055,.T.);
#1072 = PLANE('',#1073);
#1073 = AXIS2_PLACEMENT_3D('',#1074,#1075,#1076);
#1074 = CARTESIAN_POINT('',(539.99999999999,-549.9754497714,
    1.450799986911E+03));
#1075 = DIRECTION('',(1.,-4.4E-16,1.1E-16));
#1076 = DIRECTION('',(-1.1E-16,-1.1E-16,1.));
#1077 = ADVANCED_FACE('',(#1078),#1084,.F.);
#1078 = FACE_BOUND('',#1079,.F.);
#1079 = EDGE_LOOP('',(#1080,#1081,#1082,#1083));
#1080 = ORIENTED_EDGE('',*,*,#955,.T.);
#1081 = ORIENTED_EDGE('',*,*,#986,.T.);
#1082 = ORIENTED_EDGE('',*,*,#1017,.T.);
#1083 = ORIENTED_EDGE('',*,*,#1048,.T.);
#1084 = PLANE('',#1085);
#1085 = AXIS2_PLACEMENT_3D('',#1086,#1087,#1088);
#1086 = CARTESIAN_POINT('',(-3.21E+03,-549.9754497714,1.450799986911E+03
    ));
#1087 = DIRECTION('',(1.,-4.4E-16,1.1E-16));
#1088 = DIRECTION('',(-1.1E-16,-1.1E-16,1.));
#1089 = ( GEOMETRIC_REPRESENTATION_CONTEXT(3) 
GLOBAL_UNCERTAINTY_ASSIGNED_CONTEXT((#1093)) 
GLOBAL_UNIT_ASSIGNED_CONTEXT((#1090,#1091,#1092)) REPRESENTATION_CONTEXT
('Context #1','3D Context with UNIT and UNCERTAINTY') );
#1090 = ( LENGTH_UNIT() NAMED_UNIT(*) SI_UNIT(.MILLI.,.METRE.) );
#1091 = ( NAMED_UNIT(*) PLANE_ANGLE_UNIT() SI_UNIT($,.RADIAN.) );
#1092 = ( NAMED_UNIT(*) SI_UNIT($,.STERADIAN.) SOLID_ANGLE_UNIT() );
#1093 = UNCERTAINTY_MEASURE_WITH_UNIT(LENGTH_MEASURE(1.E-07),#1090,
  'distance_accuracy_value','confusion accuracy');
#1094 = CONTEXT_DEPENDENT_SHAPE_REPRESENTATION(#1095,#1097);
#1095 = ( REPRESENTATION_RELATIONSHIP('','',#938,#59) 
REPRESENTATION_RELATIONSHIP_WITH_TRANSFORMATION(#1096) 
SHAPE_REPRESENTATION_RELATIONSHIP() );
#1096 = ITEM_DEFINED_TRANSFORMATION('','',#11,#76);
#1097 = PRODUCT_DEFINITION_SHAPE('Placement','Placement of an item',
  #1098);
#1098 = NEXT_ASSEMBLY_USAGE_OCCURRENCE('6','cover006','',#54,#933,$);
#1099 = PRODUCT_RELATED_PRODUCT_CATEGORY('part',$,(#935));
#1100 = SHAPE_DEFINITION_REPRESENTATION(#1101,#1107);
#1101 = PRODUCT_DEFINITION_SHAPE('','',#1102);
#1102 = PRODUCT_DEFINITION('design','',#1103,#1106);
#1103 = PRODUCT_DEFINITION_FORMATION('','',#1104);
#1104 = PRODUCT('rod','rod','',(#1105));
#1105 = PRODUCT_CONTEXT('',#2,'mechanical');
#1106 = PRODUCT_DEFINITION_CONTEXT('part definition',#2,'design');
#1107 = ADVANCED_BREP_SHAPE_REPRESENTATION('',(#11,#1108),#1161);
#1108 = MANIFOLD_SOLID_BREP('',#1109);
#1109 = CLOSED_SHELL('',(#1110,#1143,#1152));
#1110 = ADVANCED_FACE('',(#1111),#1138,.T.);
#1111 = FACE_BOUND('',#1112,.T.);
#1112 = EDGE_LOOP('',(#1113,#1122,#1130,#1137));
#1113 = ORIENTED_EDGE('',*,*,#1114,.T.);
#1114 = EDGE_CURVE('',#1115,#1115,#1117,.T.);
#1115 = VERTEX_POINT('',#1116);
#1116 = CARTESIAN_POINT('',(6.,-1.E-15,0.));
#1117 = CIRCLE('',#1118,6.);
#1118 = AXIS2_PLACEMENT_3D('',#1119,#1120,#1121);
#1119 = CARTESIAN_POINT('',(0.,0.,0.));
#1120 = DIRECTION('',(0.,0.,1.));
#1121 = DIRECTION('',(1.,0.,-0.));
#1122 = ORIENTED_EDGE('',*,*,#1123,.T.);
#1123 = EDGE_CURVE('',#1115,#1124,#1126,.T.);
#1124 = VERTEX_POINT('',#1125);
#1125 = CARTESIAN_POINT('',(6.,-1.E-15,3.1E+03));
#1126 = LINE('',#1127,#1128);
#1127 = CARTESIAN_POINT('',(6.,-1.47E-15,0.));
#1128 = VECTOR('',#1129,1.);
#1129 = DIRECTION('',(0.,0.,1.));
#1130 = ORIENTED_EDGE('',*,*,#1131,.F.);
#1131 = EDGE_CURVE('',#1124,#1124,#1132,.T.);
#1132 = CIRCLE('',#1133,6.);
#1133 = AXIS2_PLACEMENT_3D('',#1134,#1135,#1136);
#1134 = CARTESIAN_POINT('',(0.,0.,3.1E+03));
#1135 = DIRECTION('',(0.,0.,1.));
#1136 = DIRECTION('',(1.,0.,-0.));
#1137 = ORIENTED_EDGE('',*,*,#1123,.F.);
#1138 = CYLINDRICAL_SURFACE('',#1139,6.);
#1139 = AXIS2_PLACEMENT_3D('',#1140,#1141,#1142);
#1140 = CARTESIAN_POINT('',(0.,0.,0.));
#1141 = DIRECTION('',(-0.,-0.,-1.));
#1142 = DIRECTION('',(1.,0.,-0.));
#1143 = ADVANCED_FACE('',(#1144),#1147,.F.);
#1144 = FACE_BOUND('',#1145,.T.);
#1145 = EDGE_LOOP('',(#1146));
#1146 = ORIENTED_EDGE('',*,*,#1114,.F.);
#1147 = PLANE('',#1148);
#1148 = AXIS2_PLACEMENT_3D('',#1149,#1150,#1151);
#1149 = CARTESIAN_POINT('',(0.,0.,0.));
#1150 = DIRECTION('',(0.,0.,1.));
#1151 = DIRECTION('',(1.,0.,-0.));
#1152 = ADVANCED_FACE('',(#1153),#1156,.T.);
#1153 = FACE_BOUND('',#1154,.F.);
#1154 = EDGE_LOOP('',(#1155));
#1155 = ORIENTED_EDGE('',*,*,#1131,.F.);
#1156 = PLANE('',#1157);
#1157 = AXIS2_PLACEMENT_3D('',#1158,#1159,#1160);
#1158 = CARTESIAN_POINT('',(0.,0.,3.1E+03));
#1159 = DIRECTION('',(0.,0.,1.));
#1160 = DIRECTION('',(1.,0.,-0.));
#1161 = ( GEOMETRIC_REPRESENTATION_CONTEXT(3) 
GLOBAL_UNCERTAINTY_ASSIGNED_CONTEXT((#1165)) 
GLOBAL_UNIT_ASSIGNED_CONTEXT((#1162,#1163,#1164)) REPRESENTATION_CONTEXT
('Context #1','3D Context with UNIT and UNCERTAINTY') );
#1162 = ( LENGTH_UNIT() NAMED_UNIT(*) SI_UNIT(.MILLI.,.METRE.) );
#1163 = ( NAMED_UNIT(*) PLANE_ANGLE_UNIT() SI_UNIT($,.RADIAN.) );
#1164 = ( NAMED_UNIT(*) SI_UNIT($,.STERADIAN.) SOLID_ANGLE_UNIT() );
#1165 = UNCERTAINTY_MEASURE_WITH_UNIT(LENGTH_MEASURE(1.E-07),#1162,
  'distance_accuracy_value','confusion accuracy');
#1166 = CONTEXT_DEPENDENT_SHAPE_REPRESENTATION(#1167,#1169);
#1167 = ( REPRESENTATION_RELATIONSHIP('','',#1107,#32) 
REPRESENTATION_RELATIONSHIP_WITH_TRANSFORMATION(#1168) 
SHAPE_REPRESENTATION_RELATIONSHIP() );
#1168 = ITEM_DEFINED_TRANSFORMATION('','',#11,#37);
#1169 = PRODUCT_DEFINITION_SHAPE('Placement','Placement of an item',
  #1170);
#1170 = NEXT_ASSEMBLY_USAGE_OCCURRENCE('8','rod','',#27,#1102,$);
#1171 = PRODUCT_RELATED_PRODUCT_CATEGORY('part',$,(#1104));
#1172 = MECHANICAL_DESIGN_GEOMETRIC_PRESENTATION_REPRESENTATION('',(
    #1173),#1089);
#1173 = STYLED_ITEM('color',(#1174),#939);
#1174 = PRESENTATION_STYLE_ASSIGNMENT((#1175,#1183));
#1175 = SURFACE_STYLE_USAGE(.BOTH.,#1176);
#1176 = SURFACE_SIDE_STYLE('',(#1177,#1181));
#1177 = SURFACE_STYLE_FILL_AREA(#1178);
#1178 = FILL_AREA_STYLE('',(#1179));
#1179 = FILL_AREA_STYLE_COLOUR('',#1180);
#1180 = COLOUR_RGB('',0.666666687201,1.,0.);
#1181 = SURFACE_STYLE_RENDERING_WITH_PROPERTIES(.NORMAL_SHADING.,#1180,(
    #1182));
#1182 = SURFACE_STYLE_TRANSPARENT(0.5);
#1183 = CURVE_STYLE('',#1184,POSITIVE_LENGTH_MEASURE(0.1),#1185);
#1184 = DRAUGHTING_PRE_DEFINED_CURVE_FONT('continuous');
#1185 = COLOUR_RGB('',9.803921802644E-02,9.803921802644E-02,
  9.803921802644E-02);
#1186 = MECHANICAL_DESIGN_GEOMETRIC_PRESENTATION_REPRESENTATION('',(
    #1187),#710);
#1187 = STYLED_ITEM('color',(#1188),#519);
#1188 = PRESENTATION_STYLE_ASSIGNMENT((#1189,#1195));
#1189 = SURFACE_STYLE_USAGE(.BOTH.,#1190);
#1190 = SURFACE_SIDE_STYLE('',(#1191));
#1191 = SURFACE_STYLE_FILL_AREA(#1192);
#1192 = FILL_AREA_STYLE('',(#1193));
#1193 = FILL_AREA_STYLE_COLOUR('',#1194);
#1194 = COLOUR_RGB('',0.800000010877,0.800000010877,0.800000010877);
#1195 = CURVE_STYLE('',#1196,POSITIVE_LENGTH_MEASURE(0.1),#1185);
#1196 = DRAUGHTING_PRE_DEFINED_CURVE_FONT('continuous');
#1197 = MECHANICAL_DESIGN_GEOMETRIC_PRESENTATION_REPRESENTATION('',(
    #1198),#920);
#1198 = STYLED_ITEM('color',(#1199),#729);
#1199 = PRESENTATION_STYLE_ASSIGNMENT((#1200,#1205));
#1200 = SURFACE_STYLE_USAGE(.BOTH.,#1201);
#1201 = SURFACE_SIDE_STYLE('',(#1202));
#1202 = SURFACE_STYLE_FILL_AREA(#1203);
#1203 = FILL_AREA_STYLE('',(#1204));
#1204 = FILL_AREA_STYLE_COLOUR('',#1194);
#1205 = CURVE_STYLE('',#1206,POSITIVE_LENGTH_MEASURE(0.1),#1185);
#1206 = DRAUGHTING_PRE_DEFINED_CURVE_FONT('continuous');
#1207 = MECHANICAL_DESIGN_GEOMETRIC_PRESENTATION_REPRESENTATION('',(
    #1208),#1161);
#1208 = STYLED_ITEM('color',(#1209),#1108);
#1209 = PRESENTATION_STYLE_ASSIGNMENT((#1210,#1215));
#1210 = SURFACE_STYLE_USAGE(.BOTH.,#1211);
#1211 = SURFACE_SIDE_STYLE('',(#1212));
#1212 = SURFACE_STYLE_FILL_AREA(#1213);
#1213 = FILL_AREA_STYLE('',(#1214));
#1214 = FILL_AREA_STYLE_COLOUR('',#1194);
#1215 = CURVE_STYLE('',#1216,POSITIVE_LENGTH_MEASURE(0.1),#1185);
#1216 = DRAUGHTING_PRE_DEFINED_CURVE_FONT('continuous');
#1217 = MECHANICAL_DESIGN_GEOMETRIC_PRESENTATION_REPRESENTATION('',(
    #1218),#500);
#1218 = STYLED_ITEM('color',(#1219),#309);
#1219 = PRESENTATION_STYLE_ASSIGNMENT((#1220,#1225));
#1220 = SURFACE_STYLE_USAGE(.BOTH.,#1221);
#1221 = SURFACE_SIDE_STYLE('',(#1222));
#1222 = SURFACE_STYLE_FILL_AREA(#1223);
#1223 = FILL_AREA_STYLE('',(#1224));
#1224 = FILL_AREA_STYLE_COLOUR('',#1194);
#1225 = CURVE_STYLE('',#1226,POSITIVE_LENGTH_MEASURE(0.1),#1185);
#1226 = DRAUGHTING_PRE_DEFINED_CURVE_FONT('continuous');
#1227 = MECHANICAL_DESIGN_GEOMETRIC_PRESENTATION_REPRESENTATION('',(
    #1228),#290);
#1228 = STYLED_ITEM('color',(#1229),#99);
#1229 = PRESENTATION_STYLE_ASSIGNMENT((#1230,#1235));
#1230 = SURFACE_STYLE_USAGE(.BOTH.,#1231);
#1231 = SURFACE_SIDE_STYLE('',(#1232));
#1232 = SURFACE_STYLE_FILL_AREA(#1233);
#1233 = FILL_AREA_STYLE('',(#1234));
#1234 = FILL_AREA_STYLE_COLOUR('',#1194);
#1235 = CURVE_STYLE('',#1236,POSITIVE_LENGTH_MEASURE(0.1),#1185);
#1236 = DRAUGHTING_PRE_DEFINED_CURVE_FONT('continuous');
ENDSEC;
END-ISO-10303-21;
