ISO-10303-21;
HEADER;
FILE_DESCRIPTION(('FreeCAD Model'),'2;1');
FILE_NAME('Open CASCADE Shape Model','2026-08-02T18:40:17',(''),(''),
  'Open CASCADE STEP processor 7.8','FreeCAD','Unknown');
FILE_SCHEMA(('AUTOMOTIVE_DESIGN { 1 0 10303 214 1 1 1 1 }'));
ENDSEC;
DATA;
#1 = APPLICATION_PROTOCOL_DEFINITION('international standard',
  'automotive_design',2000,#2);
#2 = APPLICATION_CONTEXT(
  'core data for automotive mechanical design processes');
#3 = SHAPE_DEFINITION_REPRESENTATION(#4,#10);
#4 = PRODUCT_DEFINITION_SHAPE('','',#5);
#5 = PRODUCT_DEFINITION('design','',#6,#9);
#6 = PRODUCT_DEFINITION_FORMATION('','',#7);
#7 = PRODUCT('CoverAssyR','CoverAssyR','',(#8));
#8 = PRODUCT_CONTEXT('',#2,'mechanical');
#9 = PRODUCT_DEFINITION_CONTEXT('part definition',#2,'design');
#10 = SHAPE_REPRESENTATION('',(#11,#15),#19);
#11 = AXIS2_PLACEMENT_3D('',#12,#13,#14);
#12 = CARTESIAN_POINT('',(0.,0.,0.));
#13 = DIRECTION('',(0.,0.,1.));
#14 = DIRECTION('',(1.,0.,-0.));
#15 = AXIS2_PLACEMENT_3D('',#16,#17,#18);
#16 = CARTESIAN_POINT('',(0.,0.,0.));
#17 = DIRECTION('',(0.,0.,1.));
#18 = DIRECTION('',(1.,0.,0.));
#19 = ( GEOMETRIC_REPRESENTATION_CONTEXT(3) 
GLOBAL_UNCERTAINTY_ASSIGNED_CONTEXT((#23)) GLOBAL_UNIT_ASSIGNED_CONTEXT(
(#20,#21,#22)) REPRESENTATION_CONTEXT('Context #1',
  '3D Context with UNIT and UNCERTAINTY') );
#20 = ( LENGTH_UNIT() NAMED_UNIT(*) SI_UNIT(.MILLI.,.METRE.) );
#21 = ( NAMED_UNIT(*) PLANE_ANGLE_UNIT() SI_UNIT($,.RADIAN.) );
#22 = ( NAMED_UNIT(*) SI_UNIT($,.STERADIAN.) SOLID_ANGLE_UNIT() );
#23 = UNCERTAINTY_MEASURE_WITH_UNIT(LENGTH_MEASURE(1.E-07),#20,
  'distance_accuracy_value','confusion accuracy');
#24 = PRODUCT_RELATED_PRODUCT_CATEGORY('part',$,(#7));
#25 = SHAPE_DEFINITION_REPRESENTATION(#26,#32);
#26 = PRODUCT_DEFINITION_SHAPE('','',#27);
#27 = PRODUCT_DEFINITION('design','',#28,#31);
#28 = PRODUCT_DEFINITION_FORMATION('','',#29);
#29 = PRODUCT('coverAssyR006','coverAssyR006','',(#30));
#30 = PRODUCT_CONTEXT('',#2,'mechanical');
#31 = PRODUCT_DEFINITION_CONTEXT('part definition',#2,'design');
#32 = SHAPE_REPRESENTATION('',(#11,#33,#37,#41,#45,#49,#53),#57);
#33 = AXIS2_PLACEMENT_3D('',#34,#35,#36);
#34 = CARTESIAN_POINT('',(0.,0.,0.));
#35 = DIRECTION('',(0.,0.,1.));
#36 = DIRECTION('',(1.,0.,0.));
#37 = AXIS2_PLACEMENT_3D('',#38,#39,#40);
#38 = CARTESIAN_POINT('',(0.,0.,0.));
#39 = DIRECTION('',(0.,0.,1.));
#40 = DIRECTION('',(1.,0.,0.));
#41 = AXIS2_PLACEMENT_3D('',#42,#43,#44);
#42 = CARTESIAN_POINT('',(0.,0.,0.));
#43 = DIRECTION('',(0.,0.,1.));
#44 = DIRECTION('',(1.,0.,0.));
#45 = AXIS2_PLACEMENT_3D('',#46,#47,#48);
#46 = CARTESIAN_POINT('',(0.,0.,0.));
#47 = DIRECTION('',(0.,0.,1.));
#48 = DIRECTION('',(1.,0.,0.));
#49 = AXIS2_PLACEMENT_3D('',#50,#51,#52);
#50 = CARTESIAN_POINT('',(0.,0.,0.));
#51 = DIRECTION('',(0.,0.,1.));
#52 = DIRECTION('',(1.,0.,0.));
#53 = AXIS2_PLACEMENT_3D('',#54,#55,#56);
#54 = CARTESIAN_POINT('',(0.,0.,0.));
#55 = DIRECTION('',(0.,0.,1.));
#56 = DIRECTION('',(1.,0.,0.));
#57 = ( GEOMETRIC_REPRESENTATION_CONTEXT(3) 
GLOBAL_UNCERTAINTY_ASSIGNED_CONTEXT((#61)) GLOBAL_UNIT_ASSIGNED_CONTEXT(
(#58,#59,#60)) REPRESENTATION_CONTEXT('Context #1',
  '3D Context with UNIT and UNCERTAINTY') );
#58 = ( LENGTH_UNIT() NAMED_UNIT(*) SI_UNIT(.MILLI.,.METRE.) );
#59 = ( NAMED_UNIT(*) PLANE_ANGLE_UNIT() SI_UNIT($,.RADIAN.) );
#60 = ( NAMED_UNIT(*) SI_UNIT($,.STERADIAN.) SOLID_ANGLE_UNIT() );
#61 = UNCERTAINTY_MEASURE_WITH_UNIT(LENGTH_MEASURE(1.E-07),#58,
  'distance_accuracy_value','confusion accuracy');
#62 = CONTEXT_DEPENDENT_SHAPE_REPRESENTATION(#63,#65);
#63 = ( REPRESENTATION_RELATIONSHIP('','',#32,#10) 
REPRESENTATION_RELATIONSHIP_WITH_TRANSFORMATION(#64) 
SHAPE_REPRESENTATION_RELATIONSHIP() );
#64 = ITEM_DEFINED_TRANSFORMATION('','',#11,#15);
#65 = PRODUCT_DEFINITION_SHAPE('Placement','Placement of an item',#66);
#66 = NEXT_ASSEMBLY_USAGE_OCCURRENCE('16','coverAssyR006','',#5,#27,$);
#67 = PRODUCT_RELATED_PRODUCT_CATEGORY('part',$,(#29));
#68 = SHAPE_DEFINITION_REPRESENTATION(#69,#75);
#69 = PRODUCT_DEFINITION_SHAPE('','',#70);
#70 = PRODUCT_DEFINITION('design','',#71,#74);
#71 = PRODUCT_DEFINITION_FORMATION('','',#72);
#72 = PRODUCT('coverAssyR','coverAssyR','',(#73));
#73 = PRODUCT_CONTEXT('',#2,'mechanical');
#74 = PRODUCT_DEFINITION_CONTEXT('part definition',#2,'design');
#75 = ADVANCED_BREP_SHAPE_REPRESENTATION('',(#11,#76),#267);
#76 = MANIFOLD_SOLID_BREP('',#77);
#77 = CLOSED_SHELL('',(#78,#118,#149,#182,#204,#237,#252));
#78 = ADVANCED_FACE('',(#79),#113,.F.);
#79 = FACE_BOUND('',#80,.T.);
#80 = EDGE_LOOP('',(#81,#91,#99,#107));
#81 = ORIENTED_EDGE('',*,*,#82,.T.);
#82 = EDGE_CURVE('',#83,#85,#87,.T.);
#83 = VERTEX_POINT('',#84);
#84 = CARTESIAN_POINT('',(182.744,-10.,-10.174070883));
#85 = VERTEX_POINT('',#86);
#86 = CARTESIAN_POINT('',(232.744,-10.,-10.174070883));
#87 = LINE('',#88,#89);
#88 = CARTESIAN_POINT('',(182.744,-10.,-10.174070883));
#89 = VECTOR('',#90,1.);
#90 = DIRECTION('',(1.,0.,0.));
#91 = ORIENTED_EDGE('',*,*,#92,.T.);
#92 = EDGE_CURVE('',#85,#93,#95,.T.);
#93 = VERTEX_POINT('',#94);
#94 = CARTESIAN_POINT('',(232.744,-10.,10.174070883));
#95 = LINE('',#96,#97);
#96 = CARTESIAN_POINT('',(232.744,-10.,-10.174070883));
#97 = VECTOR('',#98,1.);
#98 = DIRECTION('',(0.,0.,1.));
#99 = ORIENTED_EDGE('',*,*,#100,.F.);
#100 = EDGE_CURVE('',#101,#93,#103,.T.);
#101 = VERTEX_POINT('',#102);
#102 = CARTESIAN_POINT('',(182.744,-10.,10.174070883));
#103 = LINE('',#104,#105);
#104 = CARTESIAN_POINT('',(182.744,-10.,10.174070883));
#105 = VECTOR('',#106,1.);
#106 = DIRECTION('',(1.,0.,0.));
#107 = ORIENTED_EDGE('',*,*,#108,.F.);
#108 = EDGE_CURVE('',#83,#101,#109,.T.);
#109 = LINE('',#110,#111);
#110 = CARTESIAN_POINT('',(182.744,-10.,-10.174070883));
#111 = VECTOR('',#112,1.);
#112 = DIRECTION('',(0.,0.,1.));
#113 = PLANE('',#114);
#114 = AXIS2_PLACEMENT_3D('',#115,#116,#117);
#115 = CARTESIAN_POINT('',(182.744,-10.,-10.174070883));
#116 = DIRECTION('',(0.,1.,0.));
#117 = DIRECTION('',(0.,0.,-1.));
#118 = ADVANCED_FACE('',(#119),#144,.F.);
#119 = FACE_BOUND('',#120,.T.);
#120 = EDGE_LOOP('',(#121,#122,#130,#138));
#121 = ORIENTED_EDGE('',*,*,#100,.T.);
#122 = ORIENTED_EDGE('',*,*,#123,.T.);
#123 = EDGE_CURVE('',#93,#124,#126,.T.);
#124 = VERTEX_POINT('',#125);
#125 = CARTESIAN_POINT('',(232.744,0.99996915,8.944275359));
#126 = LINE('',#127,#128);
#127 = CARTESIAN_POINT('',(232.744,-10.,10.174070883));
#128 = VECTOR('',#129,1.);
#129 = DIRECTION('',(0.,0.993808373231,-0.111107683332));
#130 = ORIENTED_EDGE('',*,*,#131,.F.);
#131 = EDGE_CURVE('',#132,#124,#134,.T.);
#132 = VERTEX_POINT('',#133);
#133 = CARTESIAN_POINT('',(182.744,0.99996915,8.944275359));
#134 = LINE('',#135,#136);
#135 = CARTESIAN_POINT('',(182.744,0.99996915,8.944275359));
#136 = VECTOR('',#137,1.);
#137 = DIRECTION('',(1.,0.,0.));
#138 = ORIENTED_EDGE('',*,*,#139,.F.);
#139 = EDGE_CURVE('',#101,#132,#140,.T.);
#140 = LINE('',#141,#142);
#141 = CARTESIAN_POINT('',(182.744,-10.,10.174070883));
#142 = VECTOR('',#143,1.);
#143 = DIRECTION('',(0.,0.993808373231,-0.111107683332));
#144 = PLANE('',#145);
#145 = AXIS2_PLACEMENT_3D('',#146,#147,#148);
#146 = CARTESIAN_POINT('',(182.744,-10.,10.174070883));
#147 = DIRECTION('',(-0.,-0.111107683332,-0.993808373231));
#148 = DIRECTION('',(0.,-0.993808373231,0.111107683332));
#149 = ADVANCED_FACE('',(#150),#177,.T.);
#150 = FACE_BOUND('',#151,.T.);
#151 = EDGE_LOOP('',(#152,#153,#162,#170));
#152 = ORIENTED_EDGE('',*,*,#131,.T.);
#153 = ORIENTED_EDGE('',*,*,#154,.T.);
#154 = EDGE_CURVE('',#124,#155,#157,.T.);
#155 = VERTEX_POINT('',#156);
#156 = CARTESIAN_POINT('',(232.744,0.99996915,-8.944275359));
#157 = CIRCLE('',#158,9.);
#158 = AXIS2_PLACEMENT_3D('',#159,#160,#161);
#159 = CARTESIAN_POINT('',(232.744,0.,0.));
#160 = DIRECTION('',(-1.,0.,0.));
#161 = DIRECTION('',(-0.,-1.,-0.));
#162 = ORIENTED_EDGE('',*,*,#163,.F.);
#163 = EDGE_CURVE('',#164,#155,#166,.T.);
#164 = VERTEX_POINT('',#165);
#165 = CARTESIAN_POINT('',(182.744,0.99996915,-8.944275359));
#166 = LINE('',#167,#168);
#167 = CARTESIAN_POINT('',(182.744,0.99996915,-8.944275359));
#168 = VECTOR('',#169,1.);
#169 = DIRECTION('',(1.,0.,0.));
#170 = ORIENTED_EDGE('',*,*,#171,.F.);
#171 = EDGE_CURVE('',#132,#164,#172,.T.);
#172 = CIRCLE('',#173,9.);
#173 = AXIS2_PLACEMENT_3D('',#174,#175,#176);
#174 = CARTESIAN_POINT('',(182.744,0.,0.));
#175 = DIRECTION('',(-1.,0.,0.));
#176 = DIRECTION('',(-0.,-1.,-0.));
#177 = CYLINDRICAL_SURFACE('',#178,9.);
#178 = AXIS2_PLACEMENT_3D('',#179,#180,#181);
#179 = CARTESIAN_POINT('',(182.744,0.,0.));
#180 = DIRECTION('',(-1.,0.,0.));
#181 = DIRECTION('',(0.,-1.,0.));
#182 = ADVANCED_FACE('',(#183),#199,.F.);
#183 = FACE_BOUND('',#184,.T.);
#184 = EDGE_LOOP('',(#185,#186,#192,#193));
#185 = ORIENTED_EDGE('',*,*,#163,.T.);
#186 = ORIENTED_EDGE('',*,*,#187,.T.);
#187 = EDGE_CURVE('',#155,#85,#188,.T.);
#188 = LINE('',#189,#190);
#189 = CARTESIAN_POINT('',(232.744,0.99996915,-8.944275359));
#190 = VECTOR('',#191,1.);
#191 = DIRECTION('',(-0.,-0.993808373231,-0.111107683332));
#192 = ORIENTED_EDGE('',*,*,#82,.F.);
#193 = ORIENTED_EDGE('',*,*,#194,.F.);
#194 = EDGE_CURVE('',#164,#83,#195,.T.);
#195 = LINE('',#196,#197);
#196 = CARTESIAN_POINT('',(182.744,0.99996915,-8.944275359));
#197 = VECTOR('',#198,1.);
#198 = DIRECTION('',(-0.,-0.993808373231,-0.111107683332));
#199 = PLANE('',#200);
#200 = AXIS2_PLACEMENT_3D('',#201,#202,#203);
#201 = CARTESIAN_POINT('',(182.744,0.99996915,-8.944275359));
#202 = DIRECTION('',(0.,-0.111107683332,0.993808373231));
#203 = DIRECTION('',(0.,0.993808373231,0.111107683332));
#204 = ADVANCED_FACE('',(#205),#232,.F.);
#205 = FACE_BOUND('',#206,.F.);
#206 = EDGE_LOOP('',(#207,#217,#224,#225));
#207 = ORIENTED_EDGE('',*,*,#208,.T.);
#208 = EDGE_CURVE('',#209,#211,#213,.T.);
#209 = VERTEX_POINT('',#210);
#210 = CARTESIAN_POINT('',(182.744,-6.,0.));
#211 = VERTEX_POINT('',#212);
#212 = CARTESIAN_POINT('',(232.744,-6.,0.));
#213 = LINE('',#214,#215);
#214 = CARTESIAN_POINT('',(182.744,-6.,0.));
#215 = VECTOR('',#216,1.);
#216 = DIRECTION('',(1.,0.,0.));
#217 = ORIENTED_EDGE('',*,*,#218,.T.);
#218 = EDGE_CURVE('',#211,#211,#219,.T.);
#219 = CIRCLE('',#220,6.);
#220 = AXIS2_PLACEMENT_3D('',#221,#222,#223);
#221 = CARTESIAN_POINT('',(232.744,0.,0.));
#222 = DIRECTION('',(-1.,0.,0.));
#223 = DIRECTION('',(-0.,-1.,-0.));
#224 = ORIENTED_EDGE('',*,*,#208,.F.);
#225 = ORIENTED_EDGE('',*,*,#226,.F.);
#226 = EDGE_CURVE('',#209,#209,#227,.T.);
#227 = CIRCLE('',#228,6.);
#228 = AXIS2_PLACEMENT_3D('',#229,#230,#231);
#229 = CARTESIAN_POINT('',(182.744,0.,0.));
#230 = DIRECTION('',(-1.,0.,0.));
#231 = DIRECTION('',(-0.,-1.,-0.));
#232 = CYLINDRICAL_SURFACE('',#233,6.);
#233 = AXIS2_PLACEMENT_3D('',#234,#235,#236);
#234 = CARTESIAN_POINT('',(182.744,0.,0.));
#235 = DIRECTION('',(-1.,0.,0.));
#236 = DIRECTION('',(0.,-1.,0.));
#237 = ADVANCED_FACE('',(#238,#244),#247,.F.);
#238 = FACE_BOUND('',#239,.T.);
#239 = EDGE_LOOP('',(#240,#241,#242,#243));
#240 = ORIENTED_EDGE('',*,*,#108,.T.);
#241 = ORIENTED_EDGE('',*,*,#139,.T.);
#242 = ORIENTED_EDGE('',*,*,#171,.T.);
#243 = ORIENTED_EDGE('',*,*,#194,.T.);
#244 = FACE_BOUND('',#245,.F.);
#245 = EDGE_LOOP('',(#246));
#246 = ORIENTED_EDGE('',*,*,#226,.T.);
#247 = PLANE('',#248);
#248 = AXIS2_PLACEMENT_3D('',#249,#250,#251);
#249 = CARTESIAN_POINT('',(182.744,-1.625546428,0.));
#250 = DIRECTION('',(1.,0.,0.));
#251 = DIRECTION('',(0.,0.,-1.));
#252 = ADVANCED_FACE('',(#253,#259),#262,.T.);
#253 = FACE_BOUND('',#254,.F.);
#254 = EDGE_LOOP('',(#255,#256,#257,#258));
#255 = ORIENTED_EDGE('',*,*,#92,.T.);
#256 = ORIENTED_EDGE('',*,*,#123,.T.);
#257 = ORIENTED_EDGE('',*,*,#154,.T.);
#258 = ORIENTED_EDGE('',*,*,#187,.T.);
#259 = FACE_BOUND('',#260,.T.);
#260 = EDGE_LOOP('',(#261));
#261 = ORIENTED_EDGE('',*,*,#218,.T.);
#262 = PLANE('',#263);
#263 = AXIS2_PLACEMENT_3D('',#264,#265,#266);
#264 = CARTESIAN_POINT('',(232.744,-1.625546428,0.));
#265 = DIRECTION('',(1.,0.,0.));
#266 = DIRECTION('',(0.,0.,-1.));
#267 = ( GEOMETRIC_REPRESENTATION_CONTEXT(3) 
GLOBAL_UNCERTAINTY_ASSIGNED_CONTEXT((#271)) GLOBAL_UNIT_ASSIGNED_CONTEXT
((#268,#269,#270)) REPRESENTATION_CONTEXT('Context #1',
  '3D Context with UNIT and UNCERTAINTY') );
#268 = ( LENGTH_UNIT() NAMED_UNIT(*) SI_UNIT(.MILLI.,.METRE.) );
#269 = ( NAMED_UNIT(*) PLANE_ANGLE_UNIT() SI_UNIT($,.RADIAN.) );
#270 = ( NAMED_UNIT(*) SI_UNIT($,.STERADIAN.) SOLID_ANGLE_UNIT() );
#271 = UNCERTAINTY_MEASURE_WITH_UNIT(LENGTH_MEASURE(1.E-07),#268,
  'distance_accuracy_value','confusion accuracy');
#272 = CONTEXT_DEPENDENT_SHAPE_REPRESENTATION(#273,#275);
#273 = ( REPRESENTATION_RELATIONSHIP('','',#75,#32) 
REPRESENTATION_RELATIONSHIP_WITH_TRANSFORMATION(#274) 
SHAPE_REPRESENTATION_RELATIONSHIP() );
#274 = ITEM_DEFINED_TRANSFORMATION('','',#11,#33);
#275 = PRODUCT_DEFINITION_SHAPE('Placement','Placement of an item',#276
  );
#276 = NEXT_ASSEMBLY_USAGE_OCCURRENCE('10','coverAssyR','',#27,#70,$);
#277 = PRODUCT_RELATED_PRODUCT_CATEGORY('part',$,(#72));
#278 = SHAPE_DEFINITION_REPRESENTATION(#279,#285);
#279 = PRODUCT_DEFINITION_SHAPE('','',#280);
#280 = PRODUCT_DEFINITION('design','',#281,#284);
#281 = PRODUCT_DEFINITION_FORMATION('','',#282);
#282 = PRODUCT('coverAssyR001','coverAssyR001','',(#283));
#283 = PRODUCT_CONTEXT('',#2,'mechanical');
#284 = PRODUCT_DEFINITION_CONTEXT('part definition',#2,'design');
#285 = ADVANCED_BREP_SHAPE_REPRESENTATION('',(#11,#286),#477);
#286 = MANIFOLD_SOLID_BREP('',#287);
#287 = CLOSED_SHELL('',(#288,#328,#359,#392,#414,#447,#462));
#288 = ADVANCED_FACE('',(#289),#323,.F.);
#289 = FACE_BOUND('',#290,.T.);
#290 = EDGE_LOOP('',(#291,#301,#309,#317));
#291 = ORIENTED_EDGE('',*,*,#292,.T.);
#292 = EDGE_CURVE('',#293,#295,#297,.T.);
#293 = VERTEX_POINT('',#294);
#294 = CARTESIAN_POINT('',(-817.256,-10.,-10.174070883));
#295 = VERTEX_POINT('',#296);
#296 = CARTESIAN_POINT('',(-767.256,-10.,-10.174070883));
#297 = LINE('',#298,#299);
#298 = CARTESIAN_POINT('',(-817.256,-10.,-10.174070883));
#299 = VECTOR('',#300,1.);
#300 = DIRECTION('',(1.,0.,0.));
#301 = ORIENTED_EDGE('',*,*,#302,.T.);
#302 = EDGE_CURVE('',#295,#303,#305,.T.);
#303 = VERTEX_POINT('',#304);
#304 = CARTESIAN_POINT('',(-767.256,-10.,10.174070883));
#305 = LINE('',#306,#307);
#306 = CARTESIAN_POINT('',(-767.256,-10.,-10.174070883));
#307 = VECTOR('',#308,1.);
#308 = DIRECTION('',(0.,0.,1.));
#309 = ORIENTED_EDGE('',*,*,#310,.F.);
#310 = EDGE_CURVE('',#311,#303,#313,.T.);
#311 = VERTEX_POINT('',#312);
#312 = CARTESIAN_POINT('',(-817.256,-10.,10.174070883));
#313 = LINE('',#314,#315);
#314 = CARTESIAN_POINT('',(-817.256,-10.,10.174070883));
#315 = VECTOR('',#316,1.);
#316 = DIRECTION('',(1.,0.,0.));
#317 = ORIENTED_EDGE('',*,*,#318,.F.);
#318 = EDGE_CURVE('',#293,#311,#319,.T.);
#319 = LINE('',#320,#321);
#320 = CARTESIAN_POINT('',(-817.256,-10.,-10.174070883));
#321 = VECTOR('',#322,1.);
#322 = DIRECTION('',(0.,0.,1.));
#323 = PLANE('',#324);
#324 = AXIS2_PLACEMENT_3D('',#325,#326,#327);
#325 = CARTESIAN_POINT('',(-817.256,-10.,-10.174070883));
#326 = DIRECTION('',(0.,1.,0.));
#327 = DIRECTION('',(0.,0.,-1.));
#328 = ADVANCED_FACE('',(#329),#354,.F.);
#329 = FACE_BOUND('',#330,.T.);
#330 = EDGE_LOOP('',(#331,#332,#340,#348));
#331 = ORIENTED_EDGE('',*,*,#310,.T.);
#332 = ORIENTED_EDGE('',*,*,#333,.T.);
#333 = EDGE_CURVE('',#303,#334,#336,.T.);
#334 = VERTEX_POINT('',#335);
#335 = CARTESIAN_POINT('',(-767.256,0.99996915,8.944275359));
#336 = LINE('',#337,#338);
#337 = CARTESIAN_POINT('',(-767.256,-10.,10.174070883));
#338 = VECTOR('',#339,1.);
#339 = DIRECTION('',(0.,0.993808373231,-0.111107683332));
#340 = ORIENTED_EDGE('',*,*,#341,.F.);
#341 = EDGE_CURVE('',#342,#334,#344,.T.);
#342 = VERTEX_POINT('',#343);
#343 = CARTESIAN_POINT('',(-817.256,0.99996915,8.944275359));
#344 = LINE('',#345,#346);
#345 = CARTESIAN_POINT('',(-817.256,0.99996915,8.944275359));
#346 = VECTOR('',#347,1.);
#347 = DIRECTION('',(1.,0.,0.));
#348 = ORIENTED_EDGE('',*,*,#349,.F.);
#349 = EDGE_CURVE('',#311,#342,#350,.T.);
#350 = LINE('',#351,#352);
#351 = CARTESIAN_POINT('',(-817.256,-10.,10.174070883));
#352 = VECTOR('',#353,1.);
#353 = DIRECTION('',(0.,0.993808373231,-0.111107683332));
#354 = PLANE('',#355);
#355 = AXIS2_PLACEMENT_3D('',#356,#357,#358);
#356 = CARTESIAN_POINT('',(-817.256,-10.,10.174070883));
#357 = DIRECTION('',(-0.,-0.111107683332,-0.993808373231));
#358 = DIRECTION('',(0.,-0.993808373231,0.111107683332));
#359 = ADVANCED_FACE('',(#360),#387,.T.);
#360 = FACE_BOUND('',#361,.T.);
#361 = EDGE_LOOP('',(#362,#363,#372,#380));
#362 = ORIENTED_EDGE('',*,*,#341,.T.);
#363 = ORIENTED_EDGE('',*,*,#364,.T.);
#364 = EDGE_CURVE('',#334,#365,#367,.T.);
#365 = VERTEX_POINT('',#366);
#366 = CARTESIAN_POINT('',(-767.256,0.99996915,-8.944275359));
#367 = CIRCLE('',#368,9.);
#368 = AXIS2_PLACEMENT_3D('',#369,#370,#371);
#369 = CARTESIAN_POINT('',(-767.256,0.,0.));
#370 = DIRECTION('',(-1.,0.,0.));
#371 = DIRECTION('',(-0.,-1.,-0.));
#372 = ORIENTED_EDGE('',*,*,#373,.F.);
#373 = EDGE_CURVE('',#374,#365,#376,.T.);
#374 = VERTEX_POINT('',#375);
#375 = CARTESIAN_POINT('',(-817.256,0.99996915,-8.944275359));
#376 = LINE('',#377,#378);
#377 = CARTESIAN_POINT('',(-817.256,0.99996915,-8.944275359));
#378 = VECTOR('',#379,1.);
#379 = DIRECTION('',(1.,0.,0.));
#380 = ORIENTED_EDGE('',*,*,#381,.F.);
#381 = EDGE_CURVE('',#342,#374,#382,.T.);
#382 = CIRCLE('',#383,9.);
#383 = AXIS2_PLACEMENT_3D('',#384,#385,#386);
#384 = CARTESIAN_POINT('',(-817.256,0.,0.));
#385 = DIRECTION('',(-1.,0.,0.));
#386 = DIRECTION('',(-0.,-1.,-0.));
#387 = CYLINDRICAL_SURFACE('',#388,9.);
#388 = AXIS2_PLACEMENT_3D('',#389,#390,#391);
#389 = CARTESIAN_POINT('',(-817.256,0.,0.));
#390 = DIRECTION('',(-1.,0.,0.));
#391 = DIRECTION('',(0.,-1.,0.));
#392 = ADVANCED_FACE('',(#393),#409,.F.);
#393 = FACE_BOUND('',#394,.T.);
#394 = EDGE_LOOP('',(#395,#396,#402,#403));
#395 = ORIENTED_EDGE('',*,*,#373,.T.);
#396 = ORIENTED_EDGE('',*,*,#397,.T.);
#397 = EDGE_CURVE('',#365,#295,#398,.T.);
#398 = LINE('',#399,#400);
#399 = CARTESIAN_POINT('',(-767.256,0.99996915,-8.944275359));
#400 = VECTOR('',#401,1.);
#401 = DIRECTION('',(-0.,-0.993808373231,-0.111107683332));
#402 = ORIENTED_EDGE('',*,*,#292,.F.);
#403 = ORIENTED_EDGE('',*,*,#404,.F.);
#404 = EDGE_CURVE('',#374,#293,#405,.T.);
#405 = LINE('',#406,#407);
#406 = CARTESIAN_POINT('',(-817.256,0.99996915,-8.944275359));
#407 = VECTOR('',#408,1.);
#408 = DIRECTION('',(-0.,-0.993808373231,-0.111107683332));
#409 = PLANE('',#410);
#410 = AXIS2_PLACEMENT_3D('',#411,#412,#413);
#411 = CARTESIAN_POINT('',(-817.256,0.99996915,-8.944275359));
#412 = DIRECTION('',(0.,-0.111107683332,0.993808373231));
#413 = DIRECTION('',(0.,0.993808373231,0.111107683332));
#414 = ADVANCED_FACE('',(#415),#442,.F.);
#415 = FACE_BOUND('',#416,.F.);
#416 = EDGE_LOOP('',(#417,#427,#434,#435));
#417 = ORIENTED_EDGE('',*,*,#418,.T.);
#418 = EDGE_CURVE('',#419,#421,#423,.T.);
#419 = VERTEX_POINT('',#420);
#420 = CARTESIAN_POINT('',(-817.256,-6.,0.));
#421 = VERTEX_POINT('',#422);
#422 = CARTESIAN_POINT('',(-767.256,-6.,0.));
#423 = LINE('',#424,#425);
#424 = CARTESIAN_POINT('',(-817.256,-6.,0.));
#425 = VECTOR('',#426,1.);
#426 = DIRECTION('',(1.,0.,0.));
#427 = ORIENTED_EDGE('',*,*,#428,.T.);
#428 = EDGE_CURVE('',#421,#421,#429,.T.);
#429 = CIRCLE('',#430,6.);
#430 = AXIS2_PLACEMENT_3D('',#431,#432,#433);
#431 = CARTESIAN_POINT('',(-767.256,0.,0.));
#432 = DIRECTION('',(-1.,0.,0.));
#433 = DIRECTION('',(-0.,-1.,-0.));
#434 = ORIENTED_EDGE('',*,*,#418,.F.);
#435 = ORIENTED_EDGE('',*,*,#436,.F.);
#436 = EDGE_CURVE('',#419,#419,#437,.T.);
#437 = CIRCLE('',#438,6.);
#438 = AXIS2_PLACEMENT_3D('',#439,#440,#441);
#439 = CARTESIAN_POINT('',(-817.256,0.,0.));
#440 = DIRECTION('',(-1.,0.,0.));
#441 = DIRECTION('',(-0.,-1.,-0.));
#442 = CYLINDRICAL_SURFACE('',#443,6.);
#443 = AXIS2_PLACEMENT_3D('',#444,#445,#446);
#444 = CARTESIAN_POINT('',(-817.256,0.,0.));
#445 = DIRECTION('',(-1.,0.,0.));
#446 = DIRECTION('',(0.,-1.,0.));
#447 = ADVANCED_FACE('',(#448,#454),#457,.F.);
#448 = FACE_BOUND('',#449,.T.);
#449 = EDGE_LOOP('',(#450,#451,#452,#453));
#450 = ORIENTED_EDGE('',*,*,#318,.T.);
#451 = ORIENTED_EDGE('',*,*,#349,.T.);
#452 = ORIENTED_EDGE('',*,*,#381,.T.);
#453 = ORIENTED_EDGE('',*,*,#404,.T.);
#454 = FACE_BOUND('',#455,.F.);
#455 = EDGE_LOOP('',(#456));
#456 = ORIENTED_EDGE('',*,*,#436,.T.);
#457 = PLANE('',#458);
#458 = AXIS2_PLACEMENT_3D('',#459,#460,#461);
#459 = CARTESIAN_POINT('',(-817.256,-1.625546428,0.));
#460 = DIRECTION('',(1.,0.,0.));
#461 = DIRECTION('',(0.,0.,-1.));
#462 = ADVANCED_FACE('',(#463,#469),#472,.T.);
#463 = FACE_BOUND('',#464,.F.);
#464 = EDGE_LOOP('',(#465,#466,#467,#468));
#465 = ORIENTED_EDGE('',*,*,#302,.T.);
#466 = ORIENTED_EDGE('',*,*,#333,.T.);
#467 = ORIENTED_EDGE('',*,*,#364,.T.);
#468 = ORIENTED_EDGE('',*,*,#397,.T.);
#469 = FACE_BOUND('',#470,.T.);
#470 = EDGE_LOOP('',(#471));
#471 = ORIENTED_EDGE('',*,*,#428,.T.);
#472 = PLANE('',#473);
#473 = AXIS2_PLACEMENT_3D('',#474,#475,#476);
#474 = CARTESIAN_POINT('',(-767.256,-1.625546428,0.));
#475 = DIRECTION('',(1.,0.,0.));
#476 = DIRECTION('',(0.,0.,-1.));
#477 = ( GEOMETRIC_REPRESENTATION_CONTEXT(3) 
GLOBAL_UNCERTAINTY_ASSIGNED_CONTEXT((#481)) GLOBAL_UNIT_ASSIGNED_CONTEXT
((#478,#479,#480)) REPRESENTATION_CONTEXT('Context #1',
  '3D Context with UNIT and UNCERTAINTY') );
#478 = ( LENGTH_UNIT() NAMED_UNIT(*) SI_UNIT(.MILLI.,.METRE.) );
#479 = ( NAMED_UNIT(*) PLANE_ANGLE_UNIT() SI_UNIT($,.RADIAN.) );
#480 = ( NAMED_UNIT(*) SI_UNIT($,.STERADIAN.) SOLID_ANGLE_UNIT() );
#481 = UNCERTAINTY_MEASURE_WITH_UNIT(LENGTH_MEASURE(1.E-07),#478,
  'distance_accuracy_value','confusion accuracy');
#482 = CONTEXT_DEPENDENT_SHAPE_REPRESENTATION(#483,#485);
#483 = ( REPRESENTATION_RELATIONSHIP('','',#285,#32) 
REPRESENTATION_RELATIONSHIP_WITH_TRANSFORMATION(#484) 
SHAPE_REPRESENTATION_RELATIONSHIP() );
#484 = ITEM_DEFINED_TRANSFORMATION('','',#11,#37);
#485 = PRODUCT_DEFINITION_SHAPE('Placement','Placement of an item',#486
  );
#486 = NEXT_ASSEMBLY_USAGE_OCCURRENCE('11','coverAssyR001','',#27,#280,$
  );
#487 = PRODUCT_RELATED_PRODUCT_CATEGORY('part',$,(#282));
#488 = SHAPE_DEFINITION_REPRESENTATION(#489,#495);
#489 = PRODUCT_DEFINITION_SHAPE('','',#490);
#490 = PRODUCT_DEFINITION('design','',#491,#494);
#491 = PRODUCT_DEFINITION_FORMATION('','',#492);
#492 = PRODUCT('coverAssyR002','coverAssyR002','',(#493));
#493 = PRODUCT_CONTEXT('',#2,'mechanical');
#494 = PRODUCT_DEFINITION_CONTEXT('part definition',#2,'design');
#495 = ADVANCED_BREP_SHAPE_REPRESENTATION('',(#11,#496),#687);
#496 = MANIFOLD_SOLID_BREP('',#497);
#497 = CLOSED_SHELL('',(#498,#538,#569,#602,#624,#657,#672));
#498 = ADVANCED_FACE('',(#499),#533,.F.);
#499 = FACE_BOUND('',#500,.T.);
#500 = EDGE_LOOP('',(#501,#511,#519,#527));
#501 = ORIENTED_EDGE('',*,*,#502,.T.);
#502 = EDGE_CURVE('',#503,#505,#507,.T.);
#503 = VERTEX_POINT('',#504);
#504 = CARTESIAN_POINT('',(-1.817256E+03,-10.,-10.174070883));
#505 = VERTEX_POINT('',#506);
#506 = CARTESIAN_POINT('',(-1.767256E+03,-10.,-10.174070883));
#507 = LINE('',#508,#509);
#508 = CARTESIAN_POINT('',(-1.817256E+03,-10.,-10.174070883));
#509 = VECTOR('',#510,1.);
#510 = DIRECTION('',(1.,0.,0.));
#511 = ORIENTED_EDGE('',*,*,#512,.T.);
#512 = EDGE_CURVE('',#505,#513,#515,.T.);
#513 = VERTEX_POINT('',#514);
#514 = CARTESIAN_POINT('',(-1.767256E+03,-10.,10.174070883));
#515 = LINE('',#516,#517);
#516 = CARTESIAN_POINT('',(-1.767256E+03,-10.,-10.174070883));
#517 = VECTOR('',#518,1.);
#518 = DIRECTION('',(0.,0.,1.));
#519 = ORIENTED_EDGE('',*,*,#520,.F.);
#520 = EDGE_CURVE('',#521,#513,#523,.T.);
#521 = VERTEX_POINT('',#522);
#522 = CARTESIAN_POINT('',(-1.817256E+03,-10.,10.174070883));
#523 = LINE('',#524,#525);
#524 = CARTESIAN_POINT('',(-1.817256E+03,-10.,10.174070883));
#525 = VECTOR('',#526,1.);
#526 = DIRECTION('',(1.,0.,0.));
#527 = ORIENTED_EDGE('',*,*,#528,.F.);
#528 = EDGE_CURVE('',#503,#521,#529,.T.);
#529 = LINE('',#530,#531);
#530 = CARTESIAN_POINT('',(-1.817256E+03,-10.,-10.174070883));
#531 = VECTOR('',#532,1.);
#532 = DIRECTION('',(0.,0.,1.));
#533 = PLANE('',#534);
#534 = AXIS2_PLACEMENT_3D('',#535,#536,#537);
#535 = CARTESIAN_POINT('',(-1.817256E+03,-10.,-10.174070883));
#536 = DIRECTION('',(0.,1.,0.));
#537 = DIRECTION('',(0.,0.,-1.));
#538 = ADVANCED_FACE('',(#539),#564,.F.);
#539 = FACE_BOUND('',#540,.T.);
#540 = EDGE_LOOP('',(#541,#542,#550,#558));
#541 = ORIENTED_EDGE('',*,*,#520,.T.);
#542 = ORIENTED_EDGE('',*,*,#543,.T.);
#543 = EDGE_CURVE('',#513,#544,#546,.T.);
#544 = VERTEX_POINT('',#545);
#545 = CARTESIAN_POINT('',(-1.767256E+03,0.99996915,8.944275359));
#546 = LINE('',#547,#548);
#547 = CARTESIAN_POINT('',(-1.767256E+03,-10.,10.174070883));
#548 = VECTOR('',#549,1.);
#549 = DIRECTION('',(0.,0.993808373231,-0.111107683332));
#550 = ORIENTED_EDGE('',*,*,#551,.F.);
#551 = EDGE_CURVE('',#552,#544,#554,.T.);
#552 = VERTEX_POINT('',#553);
#553 = CARTESIAN_POINT('',(-1.817256E+03,0.99996915,8.944275359));
#554 = LINE('',#555,#556);
#555 = CARTESIAN_POINT('',(-1.817256E+03,0.99996915,8.944275359));
#556 = VECTOR('',#557,1.);
#557 = DIRECTION('',(1.,0.,0.));
#558 = ORIENTED_EDGE('',*,*,#559,.F.);
#559 = EDGE_CURVE('',#521,#552,#560,.T.);
#560 = LINE('',#561,#562);
#561 = CARTESIAN_POINT('',(-1.817256E+03,-10.,10.174070883));
#562 = VECTOR('',#563,1.);
#563 = DIRECTION('',(0.,0.993808373231,-0.111107683332));
#564 = PLANE('',#565);
#565 = AXIS2_PLACEMENT_3D('',#566,#567,#568);
#566 = CARTESIAN_POINT('',(-1.817256E+03,-10.,10.174070883));
#567 = DIRECTION('',(-0.,-0.111107683332,-0.993808373231));
#568 = DIRECTION('',(0.,-0.993808373231,0.111107683332));
#569 = ADVANCED_FACE('',(#570),#597,.T.);
#570 = FACE_BOUND('',#571,.T.);
#571 = EDGE_LOOP('',(#572,#573,#582,#590));
#572 = ORIENTED_EDGE('',*,*,#551,.T.);
#573 = ORIENTED_EDGE('',*,*,#574,.T.);
#574 = EDGE_CURVE('',#544,#575,#577,.T.);
#575 = VERTEX_POINT('',#576);
#576 = CARTESIAN_POINT('',(-1.767256E+03,0.99996915,-8.944275359));
#577 = CIRCLE('',#578,9.);
#578 = AXIS2_PLACEMENT_3D('',#579,#580,#581);
#579 = CARTESIAN_POINT('',(-1.767256E+03,0.,0.));
#580 = DIRECTION('',(-1.,0.,0.));
#581 = DIRECTION('',(-0.,-1.,-0.));
#582 = ORIENTED_EDGE('',*,*,#583,.F.);
#583 = EDGE_CURVE('',#584,#575,#586,.T.);
#584 = VERTEX_POINT('',#585);
#585 = CARTESIAN_POINT('',(-1.817256E+03,0.99996915,-8.944275359));
#586 = LINE('',#587,#588);
#587 = CARTESIAN_POINT('',(-1.817256E+03,0.99996915,-8.944275359));
#588 = VECTOR('',#589,1.);
#589 = DIRECTION('',(1.,0.,0.));
#590 = ORIENTED_EDGE('',*,*,#591,.F.);
#591 = EDGE_CURVE('',#552,#584,#592,.T.);
#592 = CIRCLE('',#593,9.);
#593 = AXIS2_PLACEMENT_3D('',#594,#595,#596);
#594 = CARTESIAN_POINT('',(-1.817256E+03,0.,0.));
#595 = DIRECTION('',(-1.,0.,0.));
#596 = DIRECTION('',(-0.,-1.,-0.));
#597 = CYLINDRICAL_SURFACE('',#598,9.);
#598 = AXIS2_PLACEMENT_3D('',#599,#600,#601);
#599 = CARTESIAN_POINT('',(-1.817256E+03,0.,0.));
#600 = DIRECTION('',(-1.,0.,0.));
#601 = DIRECTION('',(0.,-1.,0.));
#602 = ADVANCED_FACE('',(#603),#619,.F.);
#603 = FACE_BOUND('',#604,.T.);
#604 = EDGE_LOOP('',(#605,#606,#612,#613));
#605 = ORIENTED_EDGE('',*,*,#583,.T.);
#606 = ORIENTED_EDGE('',*,*,#607,.T.);
#607 = EDGE_CURVE('',#575,#505,#608,.T.);
#608 = LINE('',#609,#610);
#609 = CARTESIAN_POINT('',(-1.767256E+03,0.99996915,-8.944275359));
#610 = VECTOR('',#611,1.);
#611 = DIRECTION('',(-0.,-0.993808373231,-0.111107683332));
#612 = ORIENTED_EDGE('',*,*,#502,.F.);
#613 = ORIENTED_EDGE('',*,*,#614,.F.);
#614 = EDGE_CURVE('',#584,#503,#615,.T.);
#615 = LINE('',#616,#617);
#616 = CARTESIAN_POINT('',(-1.817256E+03,0.99996915,-8.944275359));
#617 = VECTOR('',#618,1.);
#618 = DIRECTION('',(-0.,-0.993808373231,-0.111107683332));
#619 = PLANE('',#620);
#620 = AXIS2_PLACEMENT_3D('',#621,#622,#623);
#621 = CARTESIAN_POINT('',(-1.817256E+03,0.99996915,-8.944275359));
#622 = DIRECTION('',(0.,-0.111107683332,0.993808373231));
#623 = DIRECTION('',(0.,0.993808373231,0.111107683332));
#624 = ADVANCED_FACE('',(#625),#652,.F.);
#625 = FACE_BOUND('',#626,.F.);
#626 = EDGE_LOOP('',(#627,#637,#644,#645));
#627 = ORIENTED_EDGE('',*,*,#628,.T.);
#628 = EDGE_CURVE('',#629,#631,#633,.T.);
#629 = VERTEX_POINT('',#630);
#630 = CARTESIAN_POINT('',(-1.817256E+03,-6.,0.));
#631 = VERTEX_POINT('',#632);
#632 = CARTESIAN_POINT('',(-1.767256E+03,-6.,0.));
#633 = LINE('',#634,#635);
#634 = CARTESIAN_POINT('',(-1.817256E+03,-6.,0.));
#635 = VECTOR('',#636,1.);
#636 = DIRECTION('',(1.,0.,0.));
#637 = ORIENTED_EDGE('',*,*,#638,.T.);
#638 = EDGE_CURVE('',#631,#631,#639,.T.);
#639 = CIRCLE('',#640,6.);
#640 = AXIS2_PLACEMENT_3D('',#641,#642,#643);
#641 = CARTESIAN_POINT('',(-1.767256E+03,0.,0.));
#642 = DIRECTION('',(-1.,0.,0.));
#643 = DIRECTION('',(-0.,-1.,-0.));
#644 = ORIENTED_EDGE('',*,*,#628,.F.);
#645 = ORIENTED_EDGE('',*,*,#646,.F.);
#646 = EDGE_CURVE('',#629,#629,#647,.T.);
#647 = CIRCLE('',#648,6.);
#648 = AXIS2_PLACEMENT_3D('',#649,#650,#651);
#649 = CARTESIAN_POINT('',(-1.817256E+03,0.,0.));
#650 = DIRECTION('',(-1.,0.,0.));
#651 = DIRECTION('',(-0.,-1.,-0.));
#652 = CYLINDRICAL_SURFACE('',#653,6.);
#653 = AXIS2_PLACEMENT_3D('',#654,#655,#656);
#654 = CARTESIAN_POINT('',(-1.817256E+03,0.,0.));
#655 = DIRECTION('',(-1.,0.,0.));
#656 = DIRECTION('',(0.,-1.,0.));
#657 = ADVANCED_FACE('',(#658,#664),#667,.F.);
#658 = FACE_BOUND('',#659,.T.);
#659 = EDGE_LOOP('',(#660,#661,#662,#663));
#660 = ORIENTED_EDGE('',*,*,#528,.T.);
#661 = ORIENTED_EDGE('',*,*,#559,.T.);
#662 = ORIENTED_EDGE('',*,*,#591,.T.);
#663 = ORIENTED_EDGE('',*,*,#614,.T.);
#664 = FACE_BOUND('',#665,.F.);
#665 = EDGE_LOOP('',(#666));
#666 = ORIENTED_EDGE('',*,*,#646,.T.);
#667 = PLANE('',#668);
#668 = AXIS2_PLACEMENT_3D('',#669,#670,#671);
#669 = CARTESIAN_POINT('',(-1.817256E+03,-1.625546428,0.));
#670 = DIRECTION('',(1.,0.,0.));
#671 = DIRECTION('',(0.,0.,-1.));
#672 = ADVANCED_FACE('',(#673,#679),#682,.T.);
#673 = FACE_BOUND('',#674,.F.);
#674 = EDGE_LOOP('',(#675,#676,#677,#678));
#675 = ORIENTED_EDGE('',*,*,#512,.T.);
#676 = ORIENTED_EDGE('',*,*,#543,.T.);
#677 = ORIENTED_EDGE('',*,*,#574,.T.);
#678 = ORIENTED_EDGE('',*,*,#607,.T.);
#679 = FACE_BOUND('',#680,.T.);
#680 = EDGE_LOOP('',(#681));
#681 = ORIENTED_EDGE('',*,*,#638,.T.);
#682 = PLANE('',#683);
#683 = AXIS2_PLACEMENT_3D('',#684,#685,#686);
#684 = CARTESIAN_POINT('',(-1.767256E+03,-1.625546428,0.));
#685 = DIRECTION('',(1.,0.,0.));
#686 = DIRECTION('',(0.,0.,-1.));
#687 = ( GEOMETRIC_REPRESENTATION_CONTEXT(3) 
GLOBAL_UNCERTAINTY_ASSIGNED_CONTEXT((#691)) GLOBAL_UNIT_ASSIGNED_CONTEXT
((#688,#689,#690)) REPRESENTATION_CONTEXT('Context #1',
  '3D Context with UNIT and UNCERTAINTY') );
#688 = ( LENGTH_UNIT() NAMED_UNIT(*) SI_UNIT(.MILLI.,.METRE.) );
#689 = ( NAMED_UNIT(*) PLANE_ANGLE_UNIT() SI_UNIT($,.RADIAN.) );
#690 = ( NAMED_UNIT(*) SI_UNIT($,.STERADIAN.) SOLID_ANGLE_UNIT() );
#691 = UNCERTAINTY_MEASURE_WITH_UNIT(LENGTH_MEASURE(1.E-07),#688,
  'distance_accuracy_value','confusion accuracy');
#692 = CONTEXT_DEPENDENT_SHAPE_REPRESENTATION(#693,#695);
#693 = ( REPRESENTATION_RELATIONSHIP('','',#495,#32) 
REPRESENTATION_RELATIONSHIP_WITH_TRANSFORMATION(#694) 
SHAPE_REPRESENTATION_RELATIONSHIP() );
#694 = ITEM_DEFINED_TRANSFORMATION('','',#11,#41);
#695 = PRODUCT_DEFINITION_SHAPE('Placement','Placement of an item',#696
  );
#696 = NEXT_ASSEMBLY_USAGE_OCCURRENCE('12','coverAssyR002','',#27,#490,$
  );
#697 = PRODUCT_RELATED_PRODUCT_CATEGORY('part',$,(#492));
#698 = SHAPE_DEFINITION_REPRESENTATION(#699,#705);
#699 = PRODUCT_DEFINITION_SHAPE('','',#700);
#700 = PRODUCT_DEFINITION('design','',#701,#704);
#701 = PRODUCT_DEFINITION_FORMATION('','',#702);
#702 = PRODUCT('coverAssyR003','coverAssyR003','',(#703));
#703 = PRODUCT_CONTEXT('',#2,'mechanical');
#704 = PRODUCT_DEFINITION_CONTEXT('part definition',#2,'design');
#705 = ADVANCED_BREP_SHAPE_REPRESENTATION('',(#11,#706),#897);
#706 = MANIFOLD_SOLID_BREP('',#707);
#707 = CLOSED_SHELL('',(#708,#748,#779,#812,#834,#867,#882));
#708 = ADVANCED_FACE('',(#709),#743,.F.);
#709 = FACE_BOUND('',#710,.T.);
#710 = EDGE_LOOP('',(#711,#721,#729,#737));
#711 = ORIENTED_EDGE('',*,*,#712,.T.);
#712 = EDGE_CURVE('',#713,#715,#717,.T.);
#713 = VERTEX_POINT('',#714);
#714 = CARTESIAN_POINT('',(-2.817256E+03,-10.,-10.174070883));
#715 = VERTEX_POINT('',#716);
#716 = CARTESIAN_POINT('',(-2.767256E+03,-10.,-10.174070883));
#717 = LINE('',#718,#719);
#718 = CARTESIAN_POINT('',(-2.817256E+03,-10.,-10.174070883));
#719 = VECTOR('',#720,1.);
#720 = DIRECTION('',(1.,0.,0.));
#721 = ORIENTED_EDGE('',*,*,#722,.T.);
#722 = EDGE_CURVE('',#715,#723,#725,.T.);
#723 = VERTEX_POINT('',#724);
#724 = CARTESIAN_POINT('',(-2.767256E+03,-10.,10.174070883));
#725 = LINE('',#726,#727);
#726 = CARTESIAN_POINT('',(-2.767256E+03,-10.,-10.174070883));
#727 = VECTOR('',#728,1.);
#728 = DIRECTION('',(0.,0.,1.));
#729 = ORIENTED_EDGE('',*,*,#730,.F.);
#730 = EDGE_CURVE('',#731,#723,#733,.T.);
#731 = VERTEX_POINT('',#732);
#732 = CARTESIAN_POINT('',(-2.817256E+03,-10.,10.174070883));
#733 = LINE('',#734,#735);
#734 = CARTESIAN_POINT('',(-2.817256E+03,-10.,10.174070883));
#735 = VECTOR('',#736,1.);
#736 = DIRECTION('',(1.,0.,0.));
#737 = ORIENTED_EDGE('',*,*,#738,.F.);
#738 = EDGE_CURVE('',#713,#731,#739,.T.);
#739 = LINE('',#740,#741);
#740 = CARTESIAN_POINT('',(-2.817256E+03,-10.,-10.174070883));
#741 = VECTOR('',#742,1.);
#742 = DIRECTION('',(0.,0.,1.));
#743 = PLANE('',#744);
#744 = AXIS2_PLACEMENT_3D('',#745,#746,#747);
#745 = CARTESIAN_POINT('',(-2.817256E+03,-10.,-10.174070883));
#746 = DIRECTION('',(0.,1.,0.));
#747 = DIRECTION('',(0.,0.,-1.));
#748 = ADVANCED_FACE('',(#749),#774,.F.);
#749 = FACE_BOUND('',#750,.T.);
#750 = EDGE_LOOP('',(#751,#752,#760,#768));
#751 = ORIENTED_EDGE('',*,*,#730,.T.);
#752 = ORIENTED_EDGE('',*,*,#753,.T.);
#753 = EDGE_CURVE('',#723,#754,#756,.T.);
#754 = VERTEX_POINT('',#755);
#755 = CARTESIAN_POINT('',(-2.767256E+03,0.99996915,8.944275359));
#756 = LINE('',#757,#758);
#757 = CARTESIAN_POINT('',(-2.767256E+03,-10.,10.174070883));
#758 = VECTOR('',#759,1.);
#759 = DIRECTION('',(0.,0.993808373231,-0.111107683332));
#760 = ORIENTED_EDGE('',*,*,#761,.F.);
#761 = EDGE_CURVE('',#762,#754,#764,.T.);
#762 = VERTEX_POINT('',#763);
#763 = CARTESIAN_POINT('',(-2.817256E+03,0.99996915,8.944275359));
#764 = LINE('',#765,#766);
#765 = CARTESIAN_POINT('',(-2.817256E+03,0.99996915,8.944275359));
#766 = VECTOR('',#767,1.);
#767 = DIRECTION('',(1.,0.,0.));
#768 = ORIENTED_EDGE('',*,*,#769,.F.);
#769 = EDGE_CURVE('',#731,#762,#770,.T.);
#770 = LINE('',#771,#772);
#771 = CARTESIAN_POINT('',(-2.817256E+03,-10.,10.174070883));
#772 = VECTOR('',#773,1.);
#773 = DIRECTION('',(0.,0.993808373231,-0.111107683332));
#774 = PLANE('',#775);
#775 = AXIS2_PLACEMENT_3D('',#776,#777,#778);
#776 = CARTESIAN_POINT('',(-2.817256E+03,-10.,10.174070883));
#777 = DIRECTION('',(-0.,-0.111107683332,-0.993808373231));
#778 = DIRECTION('',(0.,-0.993808373231,0.111107683332));
#779 = ADVANCED_FACE('',(#780),#807,.T.);
#780 = FACE_BOUND('',#781,.T.);
#781 = EDGE_LOOP('',(#782,#783,#792,#800));
#782 = ORIENTED_EDGE('',*,*,#761,.T.);
#783 = ORIENTED_EDGE('',*,*,#784,.T.);
#784 = EDGE_CURVE('',#754,#785,#787,.T.);
#785 = VERTEX_POINT('',#786);
#786 = CARTESIAN_POINT('',(-2.767256E+03,0.99996915,-8.944275359));
#787 = CIRCLE('',#788,9.);
#788 = AXIS2_PLACEMENT_3D('',#789,#790,#791);
#789 = CARTESIAN_POINT('',(-2.767256E+03,0.,0.));
#790 = DIRECTION('',(-1.,0.,0.));
#791 = DIRECTION('',(-0.,-1.,-0.));
#792 = ORIENTED_EDGE('',*,*,#793,.F.);
#793 = EDGE_CURVE('',#794,#785,#796,.T.);
#794 = VERTEX_POINT('',#795);
#795 = CARTESIAN_POINT('',(-2.817256E+03,0.99996915,-8.944275359));
#796 = LINE('',#797,#798);
#797 = CARTESIAN_POINT('',(-2.817256E+03,0.99996915,-8.944275359));
#798 = VECTOR('',#799,1.);
#799 = DIRECTION('',(1.,0.,0.));
#800 = ORIENTED_EDGE('',*,*,#801,.F.);
#801 = EDGE_CURVE('',#762,#794,#802,.T.);
#802 = CIRCLE('',#803,9.);
#803 = AXIS2_PLACEMENT_3D('',#804,#805,#806);
#804 = CARTESIAN_POINT('',(-2.817256E+03,0.,0.));
#805 = DIRECTION('',(-1.,0.,0.));
#806 = DIRECTION('',(-0.,-1.,-0.));
#807 = CYLINDRICAL_SURFACE('',#808,9.);
#808 = AXIS2_PLACEMENT_3D('',#809,#810,#811);
#809 = CARTESIAN_POINT('',(-2.817256E+03,0.,0.));
#810 = DIRECTION('',(-1.,0.,0.));
#811 = DIRECTION('',(0.,-1.,0.));
#812 = ADVANCED_FACE('',(#813),#829,.F.);
#813 = FACE_BOUND('',#814,.T.);
#814 = EDGE_LOOP('',(#815,#816,#822,#823));
#815 = ORIENTED_EDGE('',*,*,#793,.T.);
#816 = ORIENTED_EDGE('',*,*,#817,.T.);
#817 = EDGE_CURVE('',#785,#715,#818,.T.);
#818 = LINE('',#819,#820);
#819 = CARTESIAN_POINT('',(-2.767256E+03,0.99996915,-8.944275359));
#820 = VECTOR('',#821,1.);
#821 = DIRECTION('',(-0.,-0.993808373231,-0.111107683332));
#822 = ORIENTED_EDGE('',*,*,#712,.F.);
#823 = ORIENTED_EDGE('',*,*,#824,.F.);
#824 = EDGE_CURVE('',#794,#713,#825,.T.);
#825 = LINE('',#826,#827);
#826 = CARTESIAN_POINT('',(-2.817256E+03,0.99996915,-8.944275359));
#827 = VECTOR('',#828,1.);
#828 = DIRECTION('',(-0.,-0.993808373231,-0.111107683332));
#829 = PLANE('',#830);
#830 = AXIS2_PLACEMENT_3D('',#831,#832,#833);
#831 = CARTESIAN_POINT('',(-2.817256E+03,0.99996915,-8.944275359));
#832 = DIRECTION('',(0.,-0.111107683332,0.993808373231));
#833 = DIRECTION('',(0.,0.993808373231,0.111107683332));
#834 = ADVANCED_FACE('',(#835),#862,.F.);
#835 = FACE_BOUND('',#836,.F.);
#836 = EDGE_LOOP('',(#837,#847,#854,#855));
#837 = ORIENTED_EDGE('',*,*,#838,.T.);
#838 = EDGE_CURVE('',#839,#841,#843,.T.);
#839 = VERTEX_POINT('',#840);
#840 = CARTESIAN_POINT('',(-2.817256E+03,-6.,0.));
#841 = VERTEX_POINT('',#842);
#842 = CARTESIAN_POINT('',(-2.767256E+03,-6.,0.));
#843 = LINE('',#844,#845);
#844 = CARTESIAN_POINT('',(-2.817256E+03,-6.,0.));
#845 = VECTOR('',#846,1.);
#846 = DIRECTION('',(1.,0.,0.));
#847 = ORIENTED_EDGE('',*,*,#848,.T.);
#848 = EDGE_CURVE('',#841,#841,#849,.T.);
#849 = CIRCLE('',#850,6.);
#850 = AXIS2_PLACEMENT_3D('',#851,#852,#853);
#851 = CARTESIAN_POINT('',(-2.767256E+03,0.,0.));
#852 = DIRECTION('',(-1.,0.,0.));
#853 = DIRECTION('',(-0.,-1.,-0.));
#854 = ORIENTED_EDGE('',*,*,#838,.F.);
#855 = ORIENTED_EDGE('',*,*,#856,.F.);
#856 = EDGE_CURVE('',#839,#839,#857,.T.);
#857 = CIRCLE('',#858,6.);
#858 = AXIS2_PLACEMENT_3D('',#859,#860,#861);
#859 = CARTESIAN_POINT('',(-2.817256E+03,0.,0.));
#860 = DIRECTION('',(-1.,0.,0.));
#861 = DIRECTION('',(-0.,-1.,-0.));
#862 = CYLINDRICAL_SURFACE('',#863,6.);
#863 = AXIS2_PLACEMENT_3D('',#864,#865,#866);
#864 = CARTESIAN_POINT('',(-2.817256E+03,0.,0.));
#865 = DIRECTION('',(-1.,0.,0.));
#866 = DIRECTION('',(0.,-1.,0.));
#867 = ADVANCED_FACE('',(#868,#874),#877,.F.);
#868 = FACE_BOUND('',#869,.T.);
#869 = EDGE_LOOP('',(#870,#871,#872,#873));
#870 = ORIENTED_EDGE('',*,*,#738,.T.);
#871 = ORIENTED_EDGE('',*,*,#769,.T.);
#872 = ORIENTED_EDGE('',*,*,#801,.T.);
#873 = ORIENTED_EDGE('',*,*,#824,.T.);
#874 = FACE_BOUND('',#875,.F.);
#875 = EDGE_LOOP('',(#876));
#876 = ORIENTED_EDGE('',*,*,#856,.T.);
#877 = PLANE('',#878);
#878 = AXIS2_PLACEMENT_3D('',#879,#880,#881);
#879 = CARTESIAN_POINT('',(-2.817256E+03,-1.625546428,0.));
#880 = DIRECTION('',(1.,0.,0.));
#881 = DIRECTION('',(0.,0.,-1.));
#882 = ADVANCED_FACE('',(#883,#889),#892,.T.);
#883 = FACE_BOUND('',#884,.F.);
#884 = EDGE_LOOP('',(#885,#886,#887,#888));
#885 = ORIENTED_EDGE('',*,*,#722,.T.);
#886 = ORIENTED_EDGE('',*,*,#753,.T.);
#887 = ORIENTED_EDGE('',*,*,#784,.T.);
#888 = ORIENTED_EDGE('',*,*,#817,.T.);
#889 = FACE_BOUND('',#890,.T.);
#890 = EDGE_LOOP('',(#891));
#891 = ORIENTED_EDGE('',*,*,#848,.T.);
#892 = PLANE('',#893);
#893 = AXIS2_PLACEMENT_3D('',#894,#895,#896);
#894 = CARTESIAN_POINT('',(-2.767256E+03,-1.625546428,0.));
#895 = DIRECTION('',(1.,0.,0.));
#896 = DIRECTION('',(0.,0.,-1.));
#897 = ( GEOMETRIC_REPRESENTATION_CONTEXT(3) 
GLOBAL_UNCERTAINTY_ASSIGNED_CONTEXT((#901)) GLOBAL_UNIT_ASSIGNED_CONTEXT
((#898,#899,#900)) REPRESENTATION_CONTEXT('Context #1',
  '3D Context with UNIT and UNCERTAINTY') );
#898 = ( LENGTH_UNIT() NAMED_UNIT(*) SI_UNIT(.MILLI.,.METRE.) );
#899 = ( NAMED_UNIT(*) PLANE_ANGLE_UNIT() SI_UNIT($,.RADIAN.) );
#900 = ( NAMED_UNIT(*) SI_UNIT($,.STERADIAN.) SOLID_ANGLE_UNIT() );
#901 = UNCERTAINTY_MEASURE_WITH_UNIT(LENGTH_MEASURE(1.E-07),#898,
  'distance_accuracy_value','confusion accuracy');
#902 = CONTEXT_DEPENDENT_SHAPE_REPRESENTATION(#903,#905);
#903 = ( REPRESENTATION_RELATIONSHIP('','',#705,#32) 
REPRESENTATION_RELATIONSHIP_WITH_TRANSFORMATION(#904) 
SHAPE_REPRESENTATION_RELATIONSHIP() );
#904 = ITEM_DEFINED_TRANSFORMATION('','',#11,#45);
#905 = PRODUCT_DEFINITION_SHAPE('Placement','Placement of an item',#906
  );
#906 = NEXT_ASSEMBLY_USAGE_OCCURRENCE('13','coverAssyR003','',#27,#700,$
  );
#907 = PRODUCT_RELATED_PRODUCT_CATEGORY('part',$,(#702));
#908 = SHAPE_DEFINITION_REPRESENTATION(#909,#915);
#909 = PRODUCT_DEFINITION_SHAPE('','',#910);
#910 = PRODUCT_DEFINITION('design','',#911,#914);
#911 = PRODUCT_DEFINITION_FORMATION('','',#912);
#912 = PRODUCT('coverAssyR004','coverAssyR004','',(#913));
#913 = PRODUCT_CONTEXT('',#2,'mechanical');
#914 = PRODUCT_DEFINITION_CONTEXT('part definition',#2,'design');
#915 = ADVANCED_BREP_SHAPE_REPRESENTATION('',(#11,#916),#1066);
#916 = MANIFOLD_SOLID_BREP('',#917);
#917 = CLOSED_SHELL('',(#918,#958,#989,#1020,#1042,#1054));
#918 = ADVANCED_FACE('',(#919),#953,.T.);
#919 = FACE_BOUND('',#920,.F.);
#920 = EDGE_LOOP('',(#921,#931,#939,#947));
#921 = ORIENTED_EDGE('',*,*,#922,.T.);
#922 = EDGE_CURVE('',#923,#925,#927,.T.);
#923 = VERTEX_POINT('',#924);
#924 = CARTESIAN_POINT('',(539.99999999999,-9.992093457,-10.131833459));
#925 = VERTEX_POINT('',#926);
#926 = CARTESIAN_POINT('',(-3.21E+03,-9.992093457,-10.131833459));
#927 = LINE('',#928,#929);
#928 = CARTESIAN_POINT('',(539.99999999999,-9.992093457,-10.131833459));
#929 = VECTOR('',#930,1.);
#930 = DIRECTION('',(-1.,-4.4E-16,-3.9E-16));
#931 = ORIENTED_EDGE('',*,*,#932,.T.);
#932 = EDGE_CURVE('',#925,#933,#935,.T.);
#933 = VERTEX_POINT('',#934);
#934 = CARTESIAN_POINT('',(-3.21E+03,-1.109942993E+03,183.411131883));
#935 = LINE('',#936,#937);
#936 = CARTESIAN_POINT('',(-3.21E+03,-9.992093457,-10.131833459));
#937 = VECTOR('',#938,1.);
#938 = DIRECTION('',(-2.8E-16,-0.984870170098,0.173293820004));
#939 = ORIENTED_EDGE('',*,*,#940,.F.);
#940 = EDGE_CURVE('',#941,#933,#943,.T.);
#941 = VERTEX_POINT('',#942);
#942 = CARTESIAN_POINT('',(539.99999999999,-1.109942993E+03,
    183.411131883));
#943 = LINE('',#944,#945);
#944 = CARTESIAN_POINT('',(539.99999999999,-1.109942993E+03,
    183.411131883));
#945 = VECTOR('',#946,1.);
#946 = DIRECTION('',(-1.,-4.4E-16,-3.9E-16));
#947 = ORIENTED_EDGE('',*,*,#948,.F.);
#948 = EDGE_CURVE('',#923,#941,#949,.T.);
#949 = LINE('',#950,#951);
#950 = CARTESIAN_POINT('',(540.,-9.992093457,-10.131833459));
#951 = VECTOR('',#952,1.);
#952 = DIRECTION('',(-2.8E-16,-0.984870170098,0.173293820004));
#953 = PLANE('',#954);
#954 = AXIS2_PLACEMENT_3D('',#955,#956,#957);
#955 = CARTESIAN_POINT('',(539.99999999999,-9.992093457,-10.131833459));
#956 = DIRECTION('',(4.6E-16,-0.173293820004,-0.984870170098));
#957 = DIRECTION('',(-1.2E-16,0.984870170098,-0.173293820004));
#958 = ADVANCED_FACE('',(#959),#984,.T.);
#959 = FACE_BOUND('',#960,.F.);
#960 = EDGE_LOOP('',(#961,#962,#970,#978));
#961 = ORIENTED_EDGE('',*,*,#940,.T.);
#962 = ORIENTED_EDGE('',*,*,#963,.T.);
#963 = EDGE_CURVE('',#933,#964,#966,.T.);
#964 = VERTEX_POINT('',#965);
#965 = CARTESIAN_POINT('',(-3.21E+03,-1.109942993E+03,203.718377048));
#966 = LINE('',#967,#968);
#967 = CARTESIAN_POINT('',(-3.21E+03,-1.109942993E+03,183.411131883));
#968 = VECTOR('',#969,1.);
#969 = DIRECTION('',(-3.3E-16,1.1E-16,1.));
#970 = ORIENTED_EDGE('',*,*,#971,.F.);
#971 = EDGE_CURVE('',#972,#964,#974,.T.);
#972 = VERTEX_POINT('',#973);
#973 = CARTESIAN_POINT('',(539.99999999999,-1.109942993E+03,
    203.718377048));
#974 = LINE('',#975,#976);
#975 = CARTESIAN_POINT('',(539.99999999999,-1.109942993E+03,
    203.718377048));
#976 = VECTOR('',#977,1.);
#977 = DIRECTION('',(-1.,-4.4E-16,-3.9E-16));
#978 = ORIENTED_EDGE('',*,*,#979,.F.);
#979 = EDGE_CURVE('',#941,#972,#980,.T.);
#980 = LINE('',#981,#982);
#981 = CARTESIAN_POINT('',(539.99999999999,-1.109942993E+03,
    183.411131883));
#982 = VECTOR('',#983,1.);
#983 = DIRECTION('',(-3.3E-16,1.1E-16,1.));
#984 = PLANE('',#985);
#985 = AXIS2_PLACEMENT_3D('',#986,#987,#988);
#986 = CARTESIAN_POINT('',(539.99999999999,-1.109942993E+03,
    183.411131883));
#987 = DIRECTION('',(4.4E-16,-1.,-3.3E-16));
#988 = DIRECTION('',(5.6E-16,3.3E-16,-1.));
#989 = ADVANCED_FACE('',(#990),#1015,.T.);
#990 = FACE_BOUND('',#991,.F.);
#991 = EDGE_LOOP('',(#992,#993,#1001,#1009));
#992 = ORIENTED_EDGE('',*,*,#971,.T.);
#993 = ORIENTED_EDGE('',*,*,#994,.T.);
#994 = EDGE_CURVE('',#964,#995,#997,.T.);
#995 = VERTEX_POINT('',#996);
#996 = CARTESIAN_POINT('',(-3.21E+03,-9.992093457,10.175411706));
#997 = LINE('',#998,#999);
#998 = CARTESIAN_POINT('',(-3.21E+03,-1.109942993E+03,203.718377048));
#999 = VECTOR('',#1000,1.);
#1000 = DIRECTION('',(2.8E-16,0.984870170098,-0.173293820004));
#1001 = ORIENTED_EDGE('',*,*,#1002,.F.);
#1002 = EDGE_CURVE('',#1003,#995,#1005,.T.);
#1003 = VERTEX_POINT('',#1004);
#1004 = CARTESIAN_POINT('',(539.99999999999,-9.992093457,10.175411706));
#1005 = LINE('',#1006,#1007);
#1006 = CARTESIAN_POINT('',(539.99999999999,-9.992093457,10.175411706));
#1007 = VECTOR('',#1008,1.);
#1008 = DIRECTION('',(-1.,-4.4E-16,-3.9E-16));
#1009 = ORIENTED_EDGE('',*,*,#1010,.F.);
#1010 = EDGE_CURVE('',#972,#1003,#1011,.T.);
#1011 = LINE('',#1012,#1013);
#1012 = CARTESIAN_POINT('',(539.99999999999,-1.109942993E+03,
    203.718377048));
#1013 = VECTOR('',#1014,1.);
#1014 = DIRECTION('',(2.8E-16,0.984870170098,-0.173293820004));
#1015 = PLANE('',#1016);
#1016 = AXIS2_PLACEMENT_3D('',#1017,#1018,#1019);
#1017 = CARTESIAN_POINT('',(539.99999999999,-1.109942993E+03,
    203.718377048));
#1018 = DIRECTION('',(-4.6E-16,0.173293820004,0.984870170098));
#1019 = DIRECTION('',(1.2E-16,-0.984870170098,0.173293820004));
#1020 = ADVANCED_FACE('',(#1021),#1037,.T.);
#1021 = FACE_BOUND('',#1022,.F.);
#1022 = EDGE_LOOP('',(#1023,#1024,#1030,#1031));
#1023 = ORIENTED_EDGE('',*,*,#1002,.T.);
#1024 = ORIENTED_EDGE('',*,*,#1025,.T.);
#1025 = EDGE_CURVE('',#995,#925,#1026,.T.);
#1026 = LINE('',#1027,#1028);
#1027 = CARTESIAN_POINT('',(-3.21E+03,-9.992093457,10.175411706));
#1028 = VECTOR('',#1029,1.);
#1029 = DIRECTION('',(3.3E-16,-1.1E-16,-1.));
#1030 = ORIENTED_EDGE('',*,*,#922,.F.);
#1031 = ORIENTED_EDGE('',*,*,#1032,.F.);
#1032 = EDGE_CURVE('',#1003,#923,#1033,.T.);
#1033 = LINE('',#1034,#1035);
#1034 = CARTESIAN_POINT('',(540.,-9.992093457,10.175411706));
#1035 = VECTOR('',#1036,1.);
#1036 = DIRECTION('',(3.3E-16,-1.1E-16,-1.));
#1037 = PLANE('',#1038);
#1038 = AXIS2_PLACEMENT_3D('',#1039,#1040,#1041);
#1039 = CARTESIAN_POINT('',(539.99999999999,-9.992093457,10.175411706));
#1040 = DIRECTION('',(-4.4E-16,1.,3.3E-16));
#1041 = DIRECTION('',(-5.6E-16,-3.3E-16,1.));
#1042 = ADVANCED_FACE('',(#1043),#1049,.T.);
#1043 = FACE_BOUND('',#1044,.F.);
#1044 = EDGE_LOOP('',(#1045,#1046,#1047,#1048));
#1045 = ORIENTED_EDGE('',*,*,#948,.T.);
#1046 = ORIENTED_EDGE('',*,*,#979,.T.);
#1047 = ORIENTED_EDGE('',*,*,#1010,.T.);
#1048 = ORIENTED_EDGE('',*,*,#1032,.T.);
#1049 = PLANE('',#1050);
#1050 = AXIS2_PLACEMENT_3D('',#1051,#1052,#1053);
#1051 = CARTESIAN_POINT('',(539.99999999999,-559.9675432286,96.793271794
    ));
#1052 = DIRECTION('',(1.,4.4E-16,1.1E-16));
#1053 = DIRECTION('',(1.1E-16,-1.1E-16,-1.));
#1054 = ADVANCED_FACE('',(#1055),#1061,.F.);
#1055 = FACE_BOUND('',#1056,.T.);
#1056 = EDGE_LOOP('',(#1057,#1058,#1059,#1060));
#1057 = ORIENTED_EDGE('',*,*,#932,.T.);
#1058 = ORIENTED_EDGE('',*,*,#963,.T.);
#1059 = ORIENTED_EDGE('',*,*,#994,.T.);
#1060 = ORIENTED_EDGE('',*,*,#1025,.T.);
#1061 = PLANE('',#1062);
#1062 = AXIS2_PLACEMENT_3D('',#1063,#1064,#1065);
#1063 = CARTESIAN_POINT('',(-3.21E+03,-559.9675432286,96.793271794));
#1064 = DIRECTION('',(1.,4.4E-16,1.1E-16));
#1065 = DIRECTION('',(1.1E-16,-1.1E-16,-1.));
#1066 = ( GEOMETRIC_REPRESENTATION_CONTEXT(3) 
GLOBAL_UNCERTAINTY_ASSIGNED_CONTEXT((#1070)) 
GLOBAL_UNIT_ASSIGNED_CONTEXT((#1067,#1068,#1069)) REPRESENTATION_CONTEXT
('Context #1','3D Context with UNIT and UNCERTAINTY') );
#1067 = ( LENGTH_UNIT() NAMED_UNIT(*) SI_UNIT(.MILLI.,.METRE.) );
#1068 = ( NAMED_UNIT(*) PLANE_ANGLE_UNIT() SI_UNIT($,.RADIAN.) );
#1069 = ( NAMED_UNIT(*) SI_UNIT($,.STERADIAN.) SOLID_ANGLE_UNIT() );
#1070 = UNCERTAINTY_MEASURE_WITH_UNIT(LENGTH_MEASURE(1.E-07),#1067,
  'distance_accuracy_value','confusion accuracy');
#1071 = CONTEXT_DEPENDENT_SHAPE_REPRESENTATION(#1072,#1074);
#1072 = ( REPRESENTATION_RELATIONSHIP('','',#915,#32) 
REPRESENTATION_RELATIONSHIP_WITH_TRANSFORMATION(#1073) 
SHAPE_REPRESENTATION_RELATIONSHIP() );
#1073 = ITEM_DEFINED_TRANSFORMATION('','',#11,#49);
#1074 = PRODUCT_DEFINITION_SHAPE('Placement','Placement of an item',
  #1075);
#1075 = NEXT_ASSEMBLY_USAGE_OCCURRENCE('14','coverAssyR004','',#27,#910,
  $);
#1076 = PRODUCT_RELATED_PRODUCT_CATEGORY('part',$,(#912));
#1077 = SHAPE_DEFINITION_REPRESENTATION(#1078,#1084);
#1078 = PRODUCT_DEFINITION_SHAPE('','',#1079);
#1079 = PRODUCT_DEFINITION('design','',#1080,#1083);
#1080 = PRODUCT_DEFINITION_FORMATION('','',#1081);
#1081 = PRODUCT('coverAssyR005','coverAssyR005','',(#1082));
#1082 = PRODUCT_CONTEXT('',#2,'mechanical');
#1083 = PRODUCT_DEFINITION_CONTEXT('part definition',#2,'design');
#1084 = ADVANCED_BREP_SHAPE_REPRESENTATION('',(#11,#1085),#1138);
#1085 = MANIFOLD_SOLID_BREP('',#1086);
#1086 = CLOSED_SHELL('',(#1087,#1120,#1129));
#1087 = ADVANCED_FACE('',(#1088),#1115,.T.);
#1088 = FACE_BOUND('',#1089,.T.);
#1089 = EDGE_LOOP('',(#1090,#1100,#1107,#1108));
#1090 = ORIENTED_EDGE('',*,*,#1091,.T.);
#1091 = EDGE_CURVE('',#1092,#1094,#1096,.T.);
#1092 = VERTEX_POINT('',#1093);
#1093 = CARTESIAN_POINT('',(-2.86719E+03,-6.010007,-5.828488299987E-02)
  );
#1094 = VERTEX_POINT('',#1095);
#1095 = CARTESIAN_POINT('',(232.81,-6.010007,-5.828488299987E-02));
#1096 = LINE('',#1097,#1098);
#1097 = CARTESIAN_POINT('',(-2.86719E+03,-6.010007,-5.828488299987E-02)
  );
#1098 = VECTOR('',#1099,1.);
#1099 = DIRECTION('',(1.,0.,0.));
#1100 = ORIENTED_EDGE('',*,*,#1101,.T.);
#1101 = EDGE_CURVE('',#1094,#1094,#1102,.T.);
#1102 = CIRCLE('',#1103,6.);
#1103 = AXIS2_PLACEMENT_3D('',#1104,#1105,#1106);
#1104 = CARTESIAN_POINT('',(232.81,-1.000700000003E-02,
    -5.828488299987E-02));
#1105 = DIRECTION('',(-1.,0.,0.));
#1106 = DIRECTION('',(-0.,-1.,-0.));
#1107 = ORIENTED_EDGE('',*,*,#1091,.F.);
#1108 = ORIENTED_EDGE('',*,*,#1109,.F.);
#1109 = EDGE_CURVE('',#1092,#1092,#1110,.T.);
#1110 = CIRCLE('',#1111,6.);
#1111 = AXIS2_PLACEMENT_3D('',#1112,#1113,#1114);
#1112 = CARTESIAN_POINT('',(-2.86719E+03,-1.000700000003E-02,
    -5.828488299987E-02));
#1113 = DIRECTION('',(-1.,0.,0.));
#1114 = DIRECTION('',(-0.,-1.,-0.));
#1115 = CYLINDRICAL_SURFACE('',#1116,6.);
#1116 = AXIS2_PLACEMENT_3D('',#1117,#1118,#1119);
#1117 = CARTESIAN_POINT('',(-2.86719E+03,-1.000700000003E-02,
    -5.828488299987E-02));
#1118 = DIRECTION('',(-1.,0.,0.));
#1119 = DIRECTION('',(0.,-1.,0.));
#1120 = ADVANCED_FACE('',(#1121),#1124,.F.);
#1121 = FACE_BOUND('',#1122,.F.);
#1122 = EDGE_LOOP('',(#1123));
#1123 = ORIENTED_EDGE('',*,*,#1109,.F.);
#1124 = PLANE('',#1125);
#1125 = AXIS2_PLACEMENT_3D('',#1126,#1127,#1128);
#1126 = CARTESIAN_POINT('',(-2.86719E+03,-1.000700000003E-02,
    -5.828488299987E-02));
#1127 = DIRECTION('',(1.,0.,0.));
#1128 = DIRECTION('',(-0.,1.,0.));
#1129 = ADVANCED_FACE('',(#1130),#1133,.T.);
#1130 = FACE_BOUND('',#1131,.T.);
#1131 = EDGE_LOOP('',(#1132));
#1132 = ORIENTED_EDGE('',*,*,#1101,.F.);
#1133 = PLANE('',#1134);
#1134 = AXIS2_PLACEMENT_3D('',#1135,#1136,#1137);
#1135 = CARTESIAN_POINT('',(232.81,-1.000700000003E-02,
    -5.828488299987E-02));
#1136 = DIRECTION('',(1.,0.,0.));
#1137 = DIRECTION('',(-0.,1.,0.));
#1138 = ( GEOMETRIC_REPRESENTATION_CONTEXT(3) 
GLOBAL_UNCERTAINTY_ASSIGNED_CONTEXT((#1142)) 
GLOBAL_UNIT_ASSIGNED_CONTEXT((#1139,#1140,#1141)) REPRESENTATION_CONTEXT
('Context #1','3D Context with UNIT and UNCERTAINTY') );
#1139 = ( LENGTH_UNIT() NAMED_UNIT(*) SI_UNIT(.MILLI.,.METRE.) );
#1140 = ( NAMED_UNIT(*) PLANE_ANGLE_UNIT() SI_UNIT($,.RADIAN.) );
#1141 = ( NAMED_UNIT(*) SI_UNIT($,.STERADIAN.) SOLID_ANGLE_UNIT() );
#1142 = UNCERTAINTY_MEASURE_WITH_UNIT(LENGTH_MEASURE(1.E-07),#1139,
  'distance_accuracy_value','confusion accuracy');
#1143 = CONTEXT_DEPENDENT_SHAPE_REPRESENTATION(#1144,#1146);
#1144 = ( REPRESENTATION_RELATIONSHIP('','',#1084,#32) 
REPRESENTATION_RELATIONSHIP_WITH_TRANSFORMATION(#1145) 
SHAPE_REPRESENTATION_RELATIONSHIP() );
#1145 = ITEM_DEFINED_TRANSFORMATION('','',#11,#53);
#1146 = PRODUCT_DEFINITION_SHAPE('Placement','Placement of an item',
  #1147);
#1147 = NEXT_ASSEMBLY_USAGE_OCCURRENCE('15','coverAssyR005','',#27,#1079
  ,$);
#1148 = PRODUCT_RELATED_PRODUCT_CATEGORY('part',$,(#1081));
#1149 = MECHANICAL_DESIGN_GEOMETRIC_PRESENTATION_REPRESENTATION('',(
    #1150),#687);
#1150 = STYLED_ITEM('color',(#1151),#496);
#1151 = PRESENTATION_STYLE_ASSIGNMENT((#1152,#1158));
#1152 = SURFACE_STYLE_USAGE(.BOTH.,#1153);
#1153 = SURFACE_SIDE_STYLE('',(#1154));
#1154 = SURFACE_STYLE_FILL_AREA(#1155);
#1155 = FILL_AREA_STYLE('',(#1156));
#1156 = FILL_AREA_STYLE_COLOUR('',#1157);
#1157 = COLOUR_RGB('',0.800000010877,0.800000010877,0.800000010877);
#1158 = CURVE_STYLE('',#1159,POSITIVE_LENGTH_MEASURE(0.1),#1160);
#1159 = DRAUGHTING_PRE_DEFINED_CURVE_FONT('continuous');
#1160 = COLOUR_RGB('',9.803921802644E-02,9.803921802644E-02,
  9.803921802644E-02);
#1161 = MECHANICAL_DESIGN_GEOMETRIC_PRESENTATION_REPRESENTATION('',(
    #1162),#477);
#1162 = STYLED_ITEM('color',(#1163),#286);
#1163 = PRESENTATION_STYLE_ASSIGNMENT((#1164,#1169));
#1164 = SURFACE_STYLE_USAGE(.BOTH.,#1165);
#1165 = SURFACE_SIDE_STYLE('',(#1166));
#1166 = SURFACE_STYLE_FILL_AREA(#1167);
#1167 = FILL_AREA_STYLE('',(#1168));
#1168 = FILL_AREA_STYLE_COLOUR('',#1157);
#1169 = CURVE_STYLE('',#1170,POSITIVE_LENGTH_MEASURE(0.1),#1160);
#1170 = DRAUGHTING_PRE_DEFINED_CURVE_FONT('continuous');
#1171 = MECHANICAL_DESIGN_GEOMETRIC_PRESENTATION_REPRESENTATION('',(
    #1172),#1138);
#1172 = STYLED_ITEM('color',(#1173),#1085);
#1173 = PRESENTATION_STYLE_ASSIGNMENT((#1174,#1179));
#1174 = SURFACE_STYLE_USAGE(.BOTH.,#1175);
#1175 = SURFACE_SIDE_STYLE('',(#1176));
#1176 = SURFACE_STYLE_FILL_AREA(#1177);
#1177 = FILL_AREA_STYLE('',(#1178));
#1178 = FILL_AREA_STYLE_COLOUR('',#1157);
#1179 = CURVE_STYLE('',#1180,POSITIVE_LENGTH_MEASURE(0.1),#1160);
#1180 = DRAUGHTING_PRE_DEFINED_CURVE_FONT('continuous');
#1181 = MECHANICAL_DESIGN_GEOMETRIC_PRESENTATION_REPRESENTATION('',(
    #1182),#1066);
#1182 = STYLED_ITEM('color',(#1183),#916);
#1183 = PRESENTATION_STYLE_ASSIGNMENT((#1184,#1192));
#1184 = SURFACE_STYLE_USAGE(.BOTH.,#1185);
#1185 = SURFACE_SIDE_STYLE('',(#1186,#1190));
#1186 = SURFACE_STYLE_FILL_AREA(#1187);
#1187 = FILL_AREA_STYLE('',(#1188));
#1188 = FILL_AREA_STYLE_COLOUR('',#1189);
#1189 = COLOUR_RGB('',0.666666687201,1.,0.);
#1190 = SURFACE_STYLE_RENDERING_WITH_PROPERTIES(.NORMAL_SHADING.,#1189,(
    #1191));
#1191 = SURFACE_STYLE_TRANSPARENT(0.5);
#1192 = CURVE_STYLE('',#1193,POSITIVE_LENGTH_MEASURE(0.1),#1160);
#1193 = DRAUGHTING_PRE_DEFINED_CURVE_FONT('continuous');
#1194 = MECHANICAL_DESIGN_GEOMETRIC_PRESENTATION_REPRESENTATION('',(
    #1195),#897);
#1195 = STYLED_ITEM('color',(#1196),#706);
#1196 = PRESENTATION_STYLE_ASSIGNMENT((#1197,#1202));
#1197 = SURFACE_STYLE_USAGE(.BOTH.,#1198);
#1198 = SURFACE_SIDE_STYLE('',(#1199));
#1199 = SURFACE_STYLE_FILL_AREA(#1200);
#1200 = FILL_AREA_STYLE('',(#1201));
#1201 = FILL_AREA_STYLE_COLOUR('',#1157);
#1202 = CURVE_STYLE('',#1203,POSITIVE_LENGTH_MEASURE(0.1),#1160);
#1203 = DRAUGHTING_PRE_DEFINED_CURVE_FONT('continuous');
#1204 = MECHANICAL_DESIGN_GEOMETRIC_PRESENTATION_REPRESENTATION('',(
    #1205),#267);
#1205 = STYLED_ITEM('color',(#1206),#76);
#1206 = PRESENTATION_STYLE_ASSIGNMENT((#1207,#1212));
#1207 = SURFACE_STYLE_USAGE(.BOTH.,#1208);
#1208 = SURFACE_SIDE_STYLE('',(#1209));
#1209 = SURFACE_STYLE_FILL_AREA(#1210);
#1210 = FILL_AREA_STYLE('',(#1211));
#1211 = FILL_AREA_STYLE_COLOUR('',#1157);
#1212 = CURVE_STYLE('',#1213,POSITIVE_LENGTH_MEASURE(0.1),#1160);
#1213 = DRAUGHTING_PRE_DEFINED_CURVE_FONT('continuous');
ENDSEC;
END-ISO-10303-21;
