ISO-10303-21;
HEADER;
FILE_DESCRIPTION(('FreeCAD Model'),'2;1');
FILE_NAME('Open CASCADE Shape Model','2026-08-02T12:38:06',(''),(''),
  'Open CASCADE STEP processor 7.8','FreeCAD','Unknown');
FILE_SCHEMA(('AUTOMOTIVE_DESIGN { 1 0 10303 214 1 1 1 1 }'));
ENDSEC;
DATA;
#1 = APPLICATION_PROTOCOL_DEFINITION('international standard',
  'automotive_design',2000,#2);
#2 = APPLICATION_CONTEXT(
  'core data for automotive mechanical design processes');
#3 = SHAPE_DEFINITION_REPRESENTATION(#4,#10);
#4 = PRODUCT_DEFINITION_SHAPE('','',#5);
#5 = PRODUCT_DEFINITION('design','',#6,#9);
#6 = PRODUCT_DEFINITION_FORMATION('','',#7);
#7 = PRODUCT('cylinder_rod','cylinder_rod','',(#8));
#8 = PRODUCT_CONTEXT('',#2,'mechanical');
#9 = PRODUCT_DEFINITION_CONTEXT('part definition',#2,'design');
#10 = ADVANCED_BREP_SHAPE_REPRESENTATION('',(#11,#15),#383);
#11 = AXIS2_PLACEMENT_3D('',#12,#13,#14);
#12 = CARTESIAN_POINT('',(0.,0.,0.));
#13 = DIRECTION('',(0.,0.,1.));
#14 = DIRECTION('',(1.,0.,-0.));
#15 = MANIFOLD_SOLID_BREP('',#16);
#16 = CLOSED_SHELL('',(#17,#59,#101,#157,#192,#241,#258,#275,#292,#320,
    #337,#349,#374));
#17 = ADVANCED_FACE('',(#18),#54,.T.);
#18 = FACE_BOUND('',#19,.T.);
#19 = EDGE_LOOP('',(#20,#30,#39,#47));
#20 = ORIENTED_EDGE('',*,*,#21,.T.);
#21 = EDGE_CURVE('',#22,#24,#26,.T.);
#22 = VERTEX_POINT('',#23);
#23 = CARTESIAN_POINT('',(1.3E-14,15.,40.00000000003));
#24 = VERTEX_POINT('',#25);
#25 = CARTESIAN_POINT('',(1.3E-14,-15.,40.00000000003));
#26 = LINE('',#27,#28);
#27 = CARTESIAN_POINT('',(1.225E-14,40.,40.00000000002));
#28 = VECTOR('',#29,1.);
#29 = DIRECTION('',(0.,-1.,7.7E-16));
#30 = ORIENTED_EDGE('',*,*,#31,.T.);
#31 = EDGE_CURVE('',#24,#32,#34,.T.);
#32 = VERTEX_POINT('',#33);
#33 = CARTESIAN_POINT('',(-4.E-15,-15.,-40.));
#34 = CIRCLE('',#35,40.);
#35 = AXIS2_PLACEMENT_3D('',#36,#37,#38);
#36 = CARTESIAN_POINT('',(0.,-15.,1.144E-14));
#37 = DIRECTION('',(0.,1.,-7.7E-16));
#38 = DIRECTION('',(1.,0.,0.));
#39 = ORIENTED_EDGE('',*,*,#40,.F.);
#40 = EDGE_CURVE('',#41,#32,#43,.T.);
#41 = VERTEX_POINT('',#42);
#42 = CARTESIAN_POINT('',(-4.E-15,15.,-40.));
#43 = LINE('',#44,#45);
#44 = CARTESIAN_POINT('',(-3.67E-15,40.,-40.));
#45 = VECTOR('',#46,1.);
#46 = DIRECTION('',(0.,-1.,7.7E-16));
#47 = ORIENTED_EDGE('',*,*,#48,.F.);
#48 = EDGE_CURVE('',#22,#41,#49,.T.);
#49 = CIRCLE('',#50,40.);
#50 = AXIS2_PLACEMENT_3D('',#51,#52,#53);
#51 = CARTESIAN_POINT('',(0.,15.,-1.176E-14));
#52 = DIRECTION('',(0.,1.,-7.7E-16));
#53 = DIRECTION('',(1.,0.,0.));
#54 = CYLINDRICAL_SURFACE('',#55,40.);
#55 = AXIS2_PLACEMENT_3D('',#56,#57,#58);
#56 = CARTESIAN_POINT('',(0.,40.,-3.108E-14));
#57 = DIRECTION('',(0.,1.,-7.7E-16));
#58 = DIRECTION('',(1.,0.,0.));
#59 = ADVANCED_FACE('',(#60,#85),#96,.F.);
#60 = FACE_BOUND('',#61,.F.);
#61 = EDGE_LOOP('',(#62,#70,#78,#84));
#62 = ORIENTED_EDGE('',*,*,#63,.F.);
#63 = EDGE_CURVE('',#64,#22,#66,.T.);
#64 = VERTEX_POINT('',#65);
#65 = CARTESIAN_POINT('',(-45.665463,15.,40.000000000039));
#66 = LINE('',#67,#68);
#67 = CARTESIAN_POINT('',(-45.665463,15.,40.000000000039));
#68 = VECTOR('',#69,1.);
#69 = DIRECTION('',(1.,0.,0.));
#70 = ORIENTED_EDGE('',*,*,#71,.T.);
#71 = EDGE_CURVE('',#64,#72,#74,.T.);
#72 = VERTEX_POINT('',#73);
#73 = CARTESIAN_POINT('',(-45.665463,15.,-40.));
#74 = LINE('',#75,#76);
#75 = CARTESIAN_POINT('',(-45.665463,15.,40.000000000039));
#76 = VECTOR('',#77,1.);
#77 = DIRECTION('',(0.,-7.7E-16,-1.));
#78 = ORIENTED_EDGE('',*,*,#79,.T.);
#79 = EDGE_CURVE('',#72,#41,#80,.T.);
#80 = LINE('',#81,#82);
#81 = CARTESIAN_POINT('',(-112.8327315,15.,-40.));
#82 = VECTOR('',#83,1.);
#83 = DIRECTION('',(1.,0.,0.));
#84 = ORIENTED_EDGE('',*,*,#48,.F.);
#85 = FACE_BOUND('',#86,.F.);
#86 = EDGE_LOOP('',(#87));
#87 = ORIENTED_EDGE('',*,*,#88,.T.);
#88 = EDGE_CURVE('',#89,#89,#91,.T.);
#89 = VERTEX_POINT('',#90);
#90 = CARTESIAN_POINT('',(20.,15.,-1.2E-14));
#91 = CIRCLE('',#92,20.);
#92 = AXIS2_PLACEMENT_3D('',#93,#94,#95);
#93 = CARTESIAN_POINT('',(0.,15.,-1.176E-14));
#94 = DIRECTION('',(0.,1.,-7.7E-16));
#95 = DIRECTION('',(1.,0.,0.));
#96 = PLANE('',#97);
#97 = AXIS2_PLACEMENT_3D('',#98,#99,#100);
#98 = CARTESIAN_POINT('',(-45.665463,15.,40.000000000039));
#99 = DIRECTION('',(0.,-1.,7.7E-16));
#100 = DIRECTION('',(1.,0.,0.));
#101 = ADVANCED_FACE('',(#102),#152,.F.);
#102 = FACE_BOUND('',#103,.F.);
#103 = EDGE_LOOP('',(#104,#105,#106,#114,#122,#130,#138,#146));
#104 = ORIENTED_EDGE('',*,*,#63,.T.);
#105 = ORIENTED_EDGE('',*,*,#21,.T.);
#106 = ORIENTED_EDGE('',*,*,#107,.T.);
#107 = EDGE_CURVE('',#24,#108,#110,.T.);
#108 = VERTEX_POINT('',#109);
#109 = CARTESIAN_POINT('',(-43.515438,-15.,40.000000000039));
#110 = LINE('',#111,#112);
#111 = CARTESIAN_POINT('',(45.442325,-15.,40.000000000039));
#112 = VECTOR('',#113,1.);
#113 = DIRECTION('',(-1.,0.,0.));
#114 = ORIENTED_EDGE('',*,*,#115,.T.);
#115 = EDGE_CURVE('',#108,#116,#118,.T.);
#116 = VERTEX_POINT('',#117);
#117 = CARTESIAN_POINT('',(-43.515438,-40.,40.000000000039));
#118 = LINE('',#119,#120);
#119 = CARTESIAN_POINT('',(-43.515438,-15.,40.000000000039));
#120 = VECTOR('',#121,1.);
#121 = DIRECTION('',(0.,-1.,7.7E-16));
#122 = ORIENTED_EDGE('',*,*,#123,.T.);
#123 = EDGE_CURVE('',#116,#124,#126,.T.);
#124 = VERTEX_POINT('',#125);
#125 = CARTESIAN_POINT('',(-180.,-40.,40.000000000039));
#126 = LINE('',#127,#128);
#127 = CARTESIAN_POINT('',(1.225E-14,-40.,40.000000000039));
#128 = VECTOR('',#129,1.);
#129 = DIRECTION('',(-1.,0.,0.));
#130 = ORIENTED_EDGE('',*,*,#131,.F.);
#131 = EDGE_CURVE('',#132,#124,#134,.T.);
#132 = VERTEX_POINT('',#133);
#133 = CARTESIAN_POINT('',(-180.,40.,40.000000000039));
#134 = LINE('',#135,#136);
#135 = CARTESIAN_POINT('',(-180.,40.,40.000000000039));
#136 = VECTOR('',#137,1.);
#137 = DIRECTION('',(0.,-1.,7.7E-16));
#138 = ORIENTED_EDGE('',*,*,#139,.F.);
#139 = EDGE_CURVE('',#140,#132,#142,.T.);
#140 = VERTEX_POINT('',#141);
#141 = CARTESIAN_POINT('',(-45.665463,40.,40.000000000039));
#142 = LINE('',#143,#144);
#143 = CARTESIAN_POINT('',(1.225E-14,40.,40.000000000039));
#144 = VECTOR('',#145,1.);
#145 = DIRECTION('',(-1.,0.,0.));
#146 = ORIENTED_EDGE('',*,*,#147,.T.);
#147 = EDGE_CURVE('',#140,#64,#148,.T.);
#148 = LINE('',#149,#150);
#149 = CARTESIAN_POINT('',(-45.665463,51.86274,40.000000000039));
#150 = VECTOR('',#151,1.);
#151 = DIRECTION('',(0.,-1.,7.7E-16));
#152 = PLANE('',#153);
#153 = AXIS2_PLACEMENT_3D('',#154,#155,#156);
#154 = CARTESIAN_POINT('',(1.225E-14,40.,40.000000000039));
#155 = DIRECTION('',(0.,-7.7E-16,-1.));
#156 = DIRECTION('',(-1.,-0.,0.));
#157 = ADVANCED_FACE('',(#158,#176),#187,.F.);
#158 = FACE_BOUND('',#159,.F.);
#159 = EDGE_LOOP('',(#160,#161,#162,#170));
#160 = ORIENTED_EDGE('',*,*,#107,.F.);
#161 = ORIENTED_EDGE('',*,*,#31,.T.);
#162 = ORIENTED_EDGE('',*,*,#163,.T.);
#163 = EDGE_CURVE('',#32,#164,#166,.T.);
#164 = VERTEX_POINT('',#165);
#165 = CARTESIAN_POINT('',(-43.515438,-15.,-40.));
#166 = LINE('',#167,#168);
#167 = CARTESIAN_POINT('',(-67.2788375,-15.,-40.));
#168 = VECTOR('',#169,1.);
#169 = DIRECTION('',(-1.,0.,0.));
#170 = ORIENTED_EDGE('',*,*,#171,.F.);
#171 = EDGE_CURVE('',#108,#164,#172,.T.);
#172 = LINE('',#173,#174);
#173 = CARTESIAN_POINT('',(-43.515438,-15.,40.000000000039));
#174 = VECTOR('',#175,1.);
#175 = DIRECTION('',(0.,-7.7E-16,-1.));
#176 = FACE_BOUND('',#177,.F.);
#177 = EDGE_LOOP('',(#178));
#178 = ORIENTED_EDGE('',*,*,#179,.F.);
#179 = EDGE_CURVE('',#180,#180,#182,.T.);
#180 = VERTEX_POINT('',#181);
#181 = CARTESIAN_POINT('',(20.,-15.,1.1E-14));
#182 = CIRCLE('',#183,20.);
#183 = AXIS2_PLACEMENT_3D('',#184,#185,#186);
#184 = CARTESIAN_POINT('',(0.,-15.,1.144E-14));
#185 = DIRECTION('',(0.,1.,-7.7E-16));
#186 = DIRECTION('',(1.,0.,0.));
#187 = PLANE('',#188);
#188 = AXIS2_PLACEMENT_3D('',#189,#190,#191);
#189 = CARTESIAN_POINT('',(45.442325,-15.,40.000000000039));
#190 = DIRECTION('',(-0.,1.,-7.7E-16));
#191 = DIRECTION('',(-1.,0.,0.));
#192 = ADVANCED_FACE('',(#193),#236,.F.);
#193 = FACE_BOUND('',#194,.F.);
#194 = EDGE_LOOP('',(#195,#205,#213,#221,#227,#228,#229,#230));
#195 = ORIENTED_EDGE('',*,*,#196,.F.);
#196 = EDGE_CURVE('',#197,#199,#201,.T.);
#197 = VERTEX_POINT('',#198);
#198 = CARTESIAN_POINT('',(-180.,40.,-40.));
#199 = VERTEX_POINT('',#200);
#200 = CARTESIAN_POINT('',(-45.665463,40.,-40.));
#201 = LINE('',#202,#203);
#202 = CARTESIAN_POINT('',(-180.,40.,-40.));
#203 = VECTOR('',#204,1.);
#204 = DIRECTION('',(1.,0.,0.));
#205 = ORIENTED_EDGE('',*,*,#206,.T.);
#206 = EDGE_CURVE('',#197,#207,#209,.T.);
#207 = VERTEX_POINT('',#208);
#208 = CARTESIAN_POINT('',(-180.,-40.,-40.));
#209 = LINE('',#210,#211);
#210 = CARTESIAN_POINT('',(-180.,40.,-40.));
#211 = VECTOR('',#212,1.);
#212 = DIRECTION('',(0.,-1.,7.7E-16));
#213 = ORIENTED_EDGE('',*,*,#214,.T.);
#214 = EDGE_CURVE('',#207,#215,#217,.T.);
#215 = VERTEX_POINT('',#216);
#216 = CARTESIAN_POINT('',(-43.515438,-40.,-40.));
#217 = LINE('',#218,#219);
#218 = CARTESIAN_POINT('',(-180.,-40.,-40.));
#219 = VECTOR('',#220,1.);
#220 = DIRECTION('',(1.,0.,0.));
#221 = ORIENTED_EDGE('',*,*,#222,.F.);
#222 = EDGE_CURVE('',#164,#215,#223,.T.);
#223 = LINE('',#224,#225);
#224 = CARTESIAN_POINT('',(-43.515438,12.5,-40.));
#225 = VECTOR('',#226,1.);
#226 = DIRECTION('',(0.,-1.,7.7E-16));
#227 = ORIENTED_EDGE('',*,*,#163,.F.);
#228 = ORIENTED_EDGE('',*,*,#40,.F.);
#229 = ORIENTED_EDGE('',*,*,#79,.F.);
#230 = ORIENTED_EDGE('',*,*,#231,.F.);
#231 = EDGE_CURVE('',#199,#72,#232,.T.);
#232 = LINE('',#233,#234);
#233 = CARTESIAN_POINT('',(-45.665463,45.93137,-40.));
#234 = VECTOR('',#235,1.);
#235 = DIRECTION('',(0.,-1.,7.7E-16));
#236 = PLANE('',#237);
#237 = AXIS2_PLACEMENT_3D('',#238,#239,#240);
#238 = CARTESIAN_POINT('',(-180.,40.,-40.));
#239 = DIRECTION('',(0.,7.7E-16,1.));
#240 = DIRECTION('',(1.,0.,-0.));
#241 = ADVANCED_FACE('',(#242),#253,.F.);
#242 = FACE_BOUND('',#243,.F.);
#243 = EDGE_LOOP('',(#244,#245,#251,#252));
#244 = ORIENTED_EDGE('',*,*,#147,.F.);
#245 = ORIENTED_EDGE('',*,*,#246,.F.);
#246 = EDGE_CURVE('',#199,#140,#247,.T.);
#247 = LINE('',#248,#249);
#248 = CARTESIAN_POINT('',(-45.665463,40.,20.000000000026));
#249 = VECTOR('',#250,1.);
#250 = DIRECTION('',(0.,5.5E-16,1.));
#251 = ORIENTED_EDGE('',*,*,#231,.T.);
#252 = ORIENTED_EDGE('',*,*,#71,.F.);
#253 = PLANE('',#254);
#254 = AXIS2_PLACEMENT_3D('',#255,#256,#257);
#255 = CARTESIAN_POINT('',(-45.665463,51.86274,40.000000000039));
#256 = DIRECTION('',(-1.,0.,0.));
#257 = DIRECTION('',(0.,-1.,7.7E-16));
#258 = ADVANCED_FACE('',(#259),#270,.F.);
#259 = FACE_BOUND('',#260,.F.);
#260 = EDGE_LOOP('',(#261,#267,#268,#269));
#261 = ORIENTED_EDGE('',*,*,#262,.T.);
#262 = EDGE_CURVE('',#89,#180,#263,.T.);
#263 = LINE('',#264,#265);
#264 = CARTESIAN_POINT('',(20.,40.,-3.108E-14));
#265 = VECTOR('',#266,1.);
#266 = DIRECTION('',(0.,-1.,7.7E-16));
#267 = ORIENTED_EDGE('',*,*,#179,.T.);
#268 = ORIENTED_EDGE('',*,*,#262,.F.);
#269 = ORIENTED_EDGE('',*,*,#88,.F.);
#270 = CYLINDRICAL_SURFACE('',#271,20.);
#271 = AXIS2_PLACEMENT_3D('',#272,#273,#274);
#272 = CARTESIAN_POINT('',(0.,40.,-3.108E-14));
#273 = DIRECTION('',(0.,1.,-7.7E-16));
#274 = DIRECTION('',(1.,0.,0.));
#275 = ADVANCED_FACE('',(#276),#287,.T.);
#276 = FACE_BOUND('',#277,.T.);
#277 = EDGE_LOOP('',(#278,#279,#280,#286));
#278 = ORIENTED_EDGE('',*,*,#246,.F.);
#279 = ORIENTED_EDGE('',*,*,#196,.F.);
#280 = ORIENTED_EDGE('',*,*,#281,.F.);
#281 = EDGE_CURVE('',#132,#197,#282,.T.);
#282 = LINE('',#283,#284);
#283 = CARTESIAN_POINT('',(-180.,40.,40.000000000039));
#284 = VECTOR('',#285,1.);
#285 = DIRECTION('',(0.,-3.3E-16,-1.));
#286 = ORIENTED_EDGE('',*,*,#139,.F.);
#287 = PLANE('',#288);
#288 = AXIS2_PLACEMENT_3D('',#289,#290,#291);
#289 = CARTESIAN_POINT('',(-66.31599672644,40.,1.299583E-11));
#290 = DIRECTION('',(0.,1.,-5.5E-16));
#291 = DIRECTION('',(0.,5.5E-16,1.));
#292 = ADVANCED_FACE('',(#293,#304),#315,.F.);
#293 = FACE_BOUND('',#294,.F.);
#294 = EDGE_LOOP('',(#295,#296,#302,#303));
#295 = ORIENTED_EDGE('',*,*,#131,.T.);
#296 = ORIENTED_EDGE('',*,*,#297,.T.);
#297 = EDGE_CURVE('',#124,#207,#298,.T.);
#298 = LINE('',#299,#300);
#299 = CARTESIAN_POINT('',(-180.,-40.,40.000000000039));
#300 = VECTOR('',#301,1.);
#301 = DIRECTION('',(0.,-3.3E-16,-1.));
#302 = ORIENTED_EDGE('',*,*,#206,.F.);
#303 = ORIENTED_EDGE('',*,*,#281,.F.);
#304 = FACE_BOUND('',#305,.F.);
#305 = EDGE_LOOP('',(#306));
#306 = ORIENTED_EDGE('',*,*,#307,.F.);
#307 = EDGE_CURVE('',#308,#308,#310,.T.);
#308 = VERTEX_POINT('',#309);
#309 = CARTESIAN_POINT('',(-180.,8.E-15,25.));
#310 = CIRCLE('',#311,25.);
#311 = AXIS2_PLACEMENT_3D('',#312,#313,#314);
#312 = CARTESIAN_POINT('',(-180.,0.,0.));
#313 = DIRECTION('',(1.,0.,-0.));
#314 = DIRECTION('',(0.,3.3E-16,1.));
#315 = PLANE('',#316);
#316 = AXIS2_PLACEMENT_3D('',#317,#318,#319);
#317 = CARTESIAN_POINT('',(-180.,40.,40.000000000039));
#318 = DIRECTION('',(1.,0.,0.));
#319 = DIRECTION('',(0.,-7.7E-16,-1.));
#320 = ADVANCED_FACE('',(#321),#332,.F.);
#321 = FACE_BOUND('',#322,.F.);
#322 = EDGE_LOOP('',(#323,#329,#330,#331));
#323 = ORIENTED_EDGE('',*,*,#324,.F.);
#324 = EDGE_CURVE('',#215,#116,#325,.T.);
#325 = LINE('',#326,#327);
#326 = CARTESIAN_POINT('',(-43.515438,-40.,20.000000000026));
#327 = VECTOR('',#328,1.);
#328 = DIRECTION('',(0.,5.5E-16,1.));
#329 = ORIENTED_EDGE('',*,*,#214,.F.);
#330 = ORIENTED_EDGE('',*,*,#297,.F.);
#331 = ORIENTED_EDGE('',*,*,#123,.F.);
#332 = PLANE('',#333);
#333 = AXIS2_PLACEMENT_3D('',#334,#335,#336);
#334 = CARTESIAN_POINT('',(-66.31599672644,-40.,1.306688E-11));
#335 = DIRECTION('',(0.,1.,-5.5E-16));
#336 = DIRECTION('',(0.,5.5E-16,1.));
#337 = ADVANCED_FACE('',(#338),#344,.F.);
#338 = FACE_BOUND('',#339,.F.);
#339 = EDGE_LOOP('',(#340,#341,#342,#343));
#340 = ORIENTED_EDGE('',*,*,#115,.F.);
#341 = ORIENTED_EDGE('',*,*,#171,.T.);
#342 = ORIENTED_EDGE('',*,*,#222,.T.);
#343 = ORIENTED_EDGE('',*,*,#324,.T.);
#344 = PLANE('',#345);
#345 = AXIS2_PLACEMENT_3D('',#346,#347,#348);
#346 = CARTESIAN_POINT('',(-43.515438,-15.,40.000000000039));
#347 = DIRECTION('',(-1.,0.,0.));
#348 = DIRECTION('',(0.,-1.,7.7E-16));
#349 = ADVANCED_FACE('',(#350),#369,.T.);
#350 = FACE_BOUND('',#351,.T.);
#351 = EDGE_LOOP('',(#352,#361,#367,#368));
#352 = ORIENTED_EDGE('',*,*,#353,.T.);
#353 = EDGE_CURVE('',#354,#354,#356,.T.);
#354 = VERTEX_POINT('',#355);
#355 = CARTESIAN_POINT('',(-980.,8.E-15,25.));
#356 = CIRCLE('',#357,25.);
#357 = AXIS2_PLACEMENT_3D('',#358,#359,#360);
#358 = CARTESIAN_POINT('',(-980.,0.,0.));
#359 = DIRECTION('',(1.,0.,-0.));
#360 = DIRECTION('',(0.,3.3E-16,1.));
#361 = ORIENTED_EDGE('',*,*,#362,.T.);
#362 = EDGE_CURVE('',#354,#308,#363,.T.);
#363 = LINE('',#364,#365);
#364 = CARTESIAN_POINT('',(-980.,8.33E-15,25.));
#365 = VECTOR('',#366,1.);
#366 = DIRECTION('',(1.,0.,0.));
#367 = ORIENTED_EDGE('',*,*,#307,.F.);
#368 = ORIENTED_EDGE('',*,*,#362,.F.);
#369 = CYLINDRICAL_SURFACE('',#370,25.);
#370 = AXIS2_PLACEMENT_3D('',#371,#372,#373);
#371 = CARTESIAN_POINT('',(-980.,0.,0.));
#372 = DIRECTION('',(1.,0.,0.));
#373 = DIRECTION('',(-0.,3.3E-16,1.));
#374 = ADVANCED_FACE('',(#375),#378,.F.);
#375 = FACE_BOUND('',#376,.T.);
#376 = EDGE_LOOP('',(#377));
#377 = ORIENTED_EDGE('',*,*,#353,.F.);
#378 = PLANE('',#379);
#379 = AXIS2_PLACEMENT_3D('',#380,#381,#382);
#380 = CARTESIAN_POINT('',(-980.,0.,0.));
#381 = DIRECTION('',(1.,0.,0.));
#382 = DIRECTION('',(-0.,3.3E-16,1.));
#383 = ( GEOMETRIC_REPRESENTATION_CONTEXT(3) 
GLOBAL_UNCERTAINTY_ASSIGNED_CONTEXT((#387)) GLOBAL_UNIT_ASSIGNED_CONTEXT
((#384,#385,#386)) REPRESENTATION_CONTEXT('Context #1',
  '3D Context with UNIT and UNCERTAINTY') );
#384 = ( LENGTH_UNIT() NAMED_UNIT(*) SI_UNIT(.MILLI.,.METRE.) );
#385 = ( NAMED_UNIT(*) PLANE_ANGLE_UNIT() SI_UNIT($,.RADIAN.) );
#386 = ( NAMED_UNIT(*) SI_UNIT($,.STERADIAN.) SOLID_ANGLE_UNIT() );
#387 = UNCERTAINTY_MEASURE_WITH_UNIT(LENGTH_MEASURE(1.E-07),#384,
  'distance_accuracy_value','confusion accuracy');
#388 = PRODUCT_RELATED_PRODUCT_CATEGORY('part',$,(#7));
#389 = MECHANICAL_DESIGN_GEOMETRIC_PRESENTATION_REPRESENTATION('',(#390)
  ,#383);
#390 = STYLED_ITEM('color',(#391),#15);
#391 = PRESENTATION_STYLE_ASSIGNMENT((#392,#398));
#392 = SURFACE_STYLE_USAGE(.BOTH.,#393);
#393 = SURFACE_SIDE_STYLE('',(#394));
#394 = SURFACE_STYLE_FILL_AREA(#395);
#395 = FILL_AREA_STYLE('',(#396));
#396 = FILL_AREA_STYLE_COLOUR('',#397);
#397 = DRAUGHTING_PRE_DEFINED_COLOUR('red');
#398 = CURVE_STYLE('',#399,POSITIVE_LENGTH_MEASURE(0.1),#400);
#399 = DRAUGHTING_PRE_DEFINED_CURVE_FONT('continuous');
#400 = COLOUR_RGB('',9.803921802644E-02,9.803921802644E-02,
  9.803921802644E-02);
ENDSEC;
END-ISO-10303-21;
