ISO-10303-21;
HEADER;
FILE_DESCRIPTION(('FreeCAD Model'),'2;1');
FILE_NAME('Open CASCADE Shape Model','2026-08-02T19:14:38',(''),(''),
  'Open CASCADE STEP processor 7.8','FreeCAD','Unknown');
FILE_SCHEMA(('AUTOMOTIVE_DESIGN { 1 0 10303 214 1 1 1 1 }'));
ENDSEC;
DATA;
#1 = APPLICATION_PROTOCOL_DEFINITION('international standard',
  'automotive_design',2000,#2);
#2 = APPLICATION_CONTEXT(
  'core data for automotive mechanical design processes');
#3 = SHAPE_DEFINITION_REPRESENTATION(#4,#10);
#4 = PRODUCT_DEFINITION_SHAPE('','',#5);
#5 = PRODUCT_DEFINITION('design','',#6,#9);
#6 = PRODUCT_DEFINITION_FORMATION('','',#7);
#7 = PRODUCT('4tTire','4tTire','',(#8));
#8 = PRODUCT_CONTEXT('',#2,'mechanical');
#9 = PRODUCT_DEFINITION_CONTEXT('part definition',#2,'design');
#10 = SHAPE_REPRESENTATION('',(#11,#15,#19,#23),#27);
#11 = AXIS2_PLACEMENT_3D('',#12,#13,#14);
#12 = CARTESIAN_POINT('',(0.,0.,0.));
#13 = DIRECTION('',(0.,0.,1.));
#14 = DIRECTION('',(1.,0.,-0.));
#15 = AXIS2_PLACEMENT_3D('',#16,#17,#18);
#16 = CARTESIAN_POINT('',(0.,0.,0.));
#17 = DIRECTION('',(0.,0.,1.));
#18 = DIRECTION('',(1.,0.,0.));
#19 = AXIS2_PLACEMENT_3D('',#20,#21,#22);
#20 = CARTESIAN_POINT('',(-4.360649902E+03,901.66,-407.961304));
#21 = DIRECTION('',(0.,-1.,-0.));
#22 = DIRECTION('',(1.,0.,0.));
#23 = AXIS2_PLACEMENT_3D('',#24,#25,#26);
#24 = CARTESIAN_POINT('',(-1.066729902E+03,901.66,-529.707304));
#25 = DIRECTION('',(0.,-1.,-0.));
#26 = DIRECTION('',(1.,0.,0.));
#27 = ( GEOMETRIC_REPRESENTATION_CONTEXT(3) 
GLOBAL_UNCERTAINTY_ASSIGNED_CONTEXT((#31)) GLOBAL_UNIT_ASSIGNED_CONTEXT(
(#28,#29,#30)) REPRESENTATION_CONTEXT('Context #1',
  '3D Context with UNIT and UNCERTAINTY') );
#28 = ( LENGTH_UNIT() NAMED_UNIT(*) SI_UNIT(.MILLI.,.METRE.) );
#29 = ( NAMED_UNIT(*) PLANE_ANGLE_UNIT() SI_UNIT($,.RADIAN.) );
#30 = ( NAMED_UNIT(*) SI_UNIT($,.STERADIAN.) SOLID_ANGLE_UNIT() );
#31 = UNCERTAINTY_MEASURE_WITH_UNIT(LENGTH_MEASURE(1.E-07),#28,
  'distance_accuracy_value','confusion accuracy');
#32 = PRODUCT_RELATED_PRODUCT_CATEGORY('part',$,(#7));
#33 = SHAPE_DEFINITION_REPRESENTATION(#34,#40);
#34 = PRODUCT_DEFINITION_SHAPE('','',#35);
#35 = PRODUCT_DEFINITION('design','',#36,#39);
#36 = PRODUCT_DEFINITION_FORMATION('','',#37);
#37 = PRODUCT('tire006','tire006','',(#38));
#38 = PRODUCT_CONTEXT('',#2,'mechanical');
#39 = PRODUCT_DEFINITION_CONTEXT('part definition',#2,'design');
#40 = SHAPE_REPRESENTATION('',(#11,#41,#45,#49,#53),#57);
#41 = AXIS2_PLACEMENT_3D('',#42,#43,#44);
#42 = CARTESIAN_POINT('',(0.,0.,0.));
#43 = DIRECTION('',(0.,0.,1.));
#44 = DIRECTION('',(1.,0.,0.));
#45 = AXIS2_PLACEMENT_3D('',#46,#47,#48);
#46 = CARTESIAN_POINT('',(0.,0.,0.));
#47 = DIRECTION('',(0.,0.,1.));
#48 = DIRECTION('',(1.,0.,0.));
#49 = AXIS2_PLACEMENT_3D('',#50,#51,#52);
#50 = CARTESIAN_POINT('',(0.,0.,0.));
#51 = DIRECTION('',(0.,0.,1.));
#52 = DIRECTION('',(1.,0.,0.));
#53 = AXIS2_PLACEMENT_3D('',#54,#55,#56);
#54 = CARTESIAN_POINT('',(0.,0.,0.));
#55 = DIRECTION('',(0.,0.,1.));
#56 = DIRECTION('',(1.,0.,0.));
#57 = ( GEOMETRIC_REPRESENTATION_CONTEXT(3) 
GLOBAL_UNCERTAINTY_ASSIGNED_CONTEXT((#61)) GLOBAL_UNIT_ASSIGNED_CONTEXT(
(#58,#59,#60)) REPRESENTATION_CONTEXT('Context #1',
  '3D Context with UNIT and UNCERTAINTY') );
#58 = ( LENGTH_UNIT() NAMED_UNIT(*) SI_UNIT(.MILLI.,.METRE.) );
#59 = ( NAMED_UNIT(*) PLANE_ANGLE_UNIT() SI_UNIT($,.RADIAN.) );
#60 = ( NAMED_UNIT(*) SI_UNIT($,.STERADIAN.) SOLID_ANGLE_UNIT() );
#61 = UNCERTAINTY_MEASURE_WITH_UNIT(LENGTH_MEASURE(1.E-07),#58,
  'distance_accuracy_value','confusion accuracy');
#62 = CONTEXT_DEPENDENT_SHAPE_REPRESENTATION(#63,#65);
#63 = ( REPRESENTATION_RELATIONSHIP('','',#40,#10) 
REPRESENTATION_RELATIONSHIP_WITH_TRANSFORMATION(#64) 
SHAPE_REPRESENTATION_RELATIONSHIP() );
#64 = ITEM_DEFINED_TRANSFORMATION('','',#11,#15);
#65 = PRODUCT_DEFINITION_SHAPE('Placement','Placement of an item',#66);
#66 = NEXT_ASSEMBLY_USAGE_OCCURRENCE('5','tire006','',#5,#35,$);
#67 = PRODUCT_RELATED_PRODUCT_CATEGORY('part',$,(#37));
#68 = SHAPE_DEFINITION_REPRESENTATION(#69,#75);
#69 = PRODUCT_DEFINITION_SHAPE('','',#70);
#70 = PRODUCT_DEFINITION('design','',#71,#74);
#71 = PRODUCT_DEFINITION_FORMATION('','',#72);
#72 = PRODUCT('tire002','tire002','',(#73));
#73 = PRODUCT_CONTEXT('',#2,'mechanical');
#74 = PRODUCT_DEFINITION_CONTEXT('part definition',#2,'design');
#75 = ADVANCED_BREP_SHAPE_REPRESENTATION('',(#11,#76),#271);
#76 = MANIFOLD_SOLID_BREP('',#77);
#77 = CLOSED_SHELL('',(#78,#111,#137,#163,#172,#192,#217,#237,#262));
#78 = ADVANCED_FACE('',(#79),#106,.T.);
#79 = FACE_BOUND('',#80,.T.);
#80 = EDGE_LOOP('',(#81,#91,#98,#99));
#81 = ORIENTED_EDGE('',*,*,#82,.T.);
#82 = EDGE_CURVE('',#83,#85,#87,.T.);
#83 = VERTEX_POINT('',#84);
#84 = CARTESIAN_POINT('',(-3.960649902E+03,888.33995347807,
    -407.9615157967));
#85 = VERTEX_POINT('',#86);
#86 = CARTESIAN_POINT('',(-3.960649902E+03,1.038339953478E+03,
    -407.9615515595));
#87 = LINE('',#88,#89);
#88 = CARTESIAN_POINT('',(-3.960649902E+03,838.33995347807,
    -407.9615038758));
#89 = VECTOR('',#90,1.);
#90 = DIRECTION('',(0.,1.,-2.3841859309E-07));
#91 = ORIENTED_EDGE('',*,*,#92,.T.);
#92 = EDGE_CURVE('',#85,#85,#93,.T.);
#93 = CIRCLE('',#94,400.);
#94 = AXIS2_PLACEMENT_3D('',#95,#96,#97);
#95 = CARTESIAN_POINT('',(-4.360649902E+03,1.038339953478E+03,
    -407.9615515595));
#96 = DIRECTION('',(0.,-1.,2.3841859309E-07));
#97 = DIRECTION('',(1.,-1.43051155854E-23,-6.E-17));
#98 = ORIENTED_EDGE('',*,*,#82,.F.);
#99 = ORIENTED_EDGE('',*,*,#100,.F.);
#100 = EDGE_CURVE('',#83,#83,#101,.T.);
#101 = CIRCLE('',#102,400.);
#102 = AXIS2_PLACEMENT_3D('',#103,#104,#105);
#103 = CARTESIAN_POINT('',(-4.360649902E+03,888.33995347807,
    -407.9615157967));
#104 = DIRECTION('',(0.,-1.,2.3841859309E-07));
#105 = DIRECTION('',(1.,1.43051155854E-23,6.E-17));
#106 = CYLINDRICAL_SURFACE('',#107,400.);
#107 = AXIS2_PLACEMENT_3D('',#108,#109,#110);
#108 = CARTESIAN_POINT('',(-4.360649902E+03,838.33995347807,
    -407.9615038758));
#109 = DIRECTION('',(0.,-1.,2.3841859309E-07));
#110 = DIRECTION('',(1.,0.,0.));
#111 = ADVANCED_FACE('',(#112),#132,.T.);
#112 = FACE_BOUND('',#113,.T.);
#113 = EDGE_LOOP('',(#114,#123,#124,#125));
#114 = ORIENTED_EDGE('',*,*,#115,.F.);
#115 = EDGE_CURVE('',#83,#116,#118,.T.);
#116 = VERTEX_POINT('',#117);
#117 = CARTESIAN_POINT('',(-4.010649902E+03,838.33995347807,
    -407.9615038758));
#118 = CIRCLE('',#119,50.);
#119 = AXIS2_PLACEMENT_3D('',#120,#121,#122);
#120 = CARTESIAN_POINT('',(-4.010649902E+03,888.33995347807,
    -407.9615157967));
#121 = DIRECTION('',(6.E-17,-2.3841859309E-07,-1.));
#122 = DIRECTION('',(1.,4.055455510337E-37,6.E-17));
#123 = ORIENTED_EDGE('',*,*,#100,.T.);
#124 = ORIENTED_EDGE('',*,*,#115,.T.);
#125 = ORIENTED_EDGE('',*,*,#126,.F.);
#126 = EDGE_CURVE('',#116,#116,#127,.T.);
#127 = CIRCLE('',#128,350.);
#128 = AXIS2_PLACEMENT_3D('',#129,#130,#131);
#129 = CARTESIAN_POINT('',(-4.360649902E+03,838.33995347807,
    -407.9615038758));
#130 = DIRECTION('',(0.,-1.,2.3841859309E-07));
#131 = DIRECTION('',(1.,1.43051155854E-23,6.E-17));
#132 = TOROIDAL_SURFACE('',#133,350.,50.);
#133 = AXIS2_PLACEMENT_3D('',#134,#135,#136);
#134 = CARTESIAN_POINT('',(-4.360649902E+03,888.33995347807,
    -407.9615157967));
#135 = DIRECTION('',(0.,-1.,2.3841859309E-07));
#136 = DIRECTION('',(1.,1.43051155854E-23,6.E-17));
#137 = ADVANCED_FACE('',(#138),#158,.T.);
#138 = FACE_BOUND('',#139,.T.);
#139 = EDGE_LOOP('',(#140,#149,#156,#157));
#140 = ORIENTED_EDGE('',*,*,#141,.T.);
#141 = EDGE_CURVE('',#142,#142,#144,.T.);
#142 = VERTEX_POINT('',#143);
#143 = CARTESIAN_POINT('',(-4.010649902E+03,1.088339953478E+03,
    -407.9615634804));
#144 = CIRCLE('',#145,350.);
#145 = AXIS2_PLACEMENT_3D('',#146,#147,#148);
#146 = CARTESIAN_POINT('',(-4.360649902E+03,1.088339953478E+03,
    -407.9615634804));
#147 = DIRECTION('',(0.,-1.,2.3841859309E-07));
#148 = DIRECTION('',(1.,-1.43051155854E-23,-6.E-17));
#149 = ORIENTED_EDGE('',*,*,#150,.F.);
#150 = EDGE_CURVE('',#85,#142,#151,.T.);
#151 = CIRCLE('',#152,50.);
#152 = AXIS2_PLACEMENT_3D('',#153,#154,#155);
#153 = CARTESIAN_POINT('',(-4.010649902E+03,1.038339953478E+03,
    -407.9615515595));
#154 = DIRECTION('',(6.E-17,2.3841859309E-07,1.));
#155 = DIRECTION('',(1.,-4.055455510337E-37,-6.E-17));
#156 = ORIENTED_EDGE('',*,*,#92,.F.);
#157 = ORIENTED_EDGE('',*,*,#150,.T.);
#158 = TOROIDAL_SURFACE('',#159,350.,50.);
#159 = AXIS2_PLACEMENT_3D('',#160,#161,#162);
#160 = CARTESIAN_POINT('',(-4.360649902E+03,1.038339953478E+03,
    -407.9615515595));
#161 = DIRECTION('',(0.,1.,-2.3841859309E-07));
#162 = DIRECTION('',(1.,-1.43051155854E-23,-6.E-17));
#163 = ADVANCED_FACE('',(#164),#167,.T.);
#164 = FACE_BOUND('',#165,.F.);
#165 = EDGE_LOOP('',(#166));
#166 = ORIENTED_EDGE('',*,*,#126,.F.);
#167 = PLANE('',#168);
#168 = AXIS2_PLACEMENT_3D('',#169,#170,#171);
#169 = CARTESIAN_POINT('',(-4.360649902E+03,838.33995347807,
    -407.9615038758));
#170 = DIRECTION('',(-0.,-1.,2.3841859287E-07));
#171 = DIRECTION('',(0.,-2.3841859287E-07,-1.));
#172 = ADVANCED_FACE('',(#173,#176),#187,.F.);
#173 = FACE_BOUND('',#174,.T.);
#174 = EDGE_LOOP('',(#175));
#175 = ORIENTED_EDGE('',*,*,#141,.F.);
#176 = FACE_BOUND('',#177,.T.);
#177 = EDGE_LOOP('',(#178));
#178 = ORIENTED_EDGE('',*,*,#179,.T.);
#179 = EDGE_CURVE('',#180,#180,#182,.T.);
#180 = VERTEX_POINT('',#181);
#181 = CARTESIAN_POINT('',(-4.110839483E+03,1.088339953478E+03,
    -407.9615634804));
#182 = CIRCLE('',#183,249.810419);
#183 = AXIS2_PLACEMENT_3D('',#184,#185,#186);
#184 = CARTESIAN_POINT('',(-4.360649902E+03,1.088339953478E+03,
    -407.9615634804));
#185 = DIRECTION('',(0.,-1.,2.3841859265E-07));
#186 = DIRECTION('',(1.,0.,0.));
#187 = PLANE('',#188);
#188 = AXIS2_PLACEMENT_3D('',#189,#190,#191);
#189 = CARTESIAN_POINT('',(-4.360649902E+03,1.088339953478E+03,
    -407.9615634804));
#190 = DIRECTION('',(-0.,-1.,2.3841859287E-07));
#191 = DIRECTION('',(0.,-2.3841859287E-07,-1.));
#192 = ADVANCED_FACE('',(#193),#212,.T.);
#193 = FACE_BOUND('',#194,.T.);
#194 = EDGE_LOOP('',(#195,#203,#210,#211));
#195 = ORIENTED_EDGE('',*,*,#196,.T.);
#196 = EDGE_CURVE('',#180,#197,#199,.T.);
#197 = VERTEX_POINT('',#198);
#198 = CARTESIAN_POINT('',(-4.110839483E+03,1.098339953478E+03,
    -407.9615658646));
#199 = LINE('',#200,#201);
#200 = CARTESIAN_POINT('',(-4.110839483E+03,1.088339953478E+03,
    -407.9615634804));
#201 = VECTOR('',#202,1.);
#202 = DIRECTION('',(0.,1.,-2.3841859309E-07));
#203 = ORIENTED_EDGE('',*,*,#204,.T.);
#204 = EDGE_CURVE('',#197,#197,#205,.T.);
#205 = CIRCLE('',#206,249.810419);
#206 = AXIS2_PLACEMENT_3D('',#207,#208,#209);
#207 = CARTESIAN_POINT('',(-4.360649902E+03,1.098339953478E+03,
    -407.9615658646));
#208 = DIRECTION('',(0.,-1.,2.3841859265E-07));
#209 = DIRECTION('',(1.,0.,0.));
#210 = ORIENTED_EDGE('',*,*,#196,.F.);
#211 = ORIENTED_EDGE('',*,*,#179,.F.);
#212 = CYLINDRICAL_SURFACE('',#213,249.810419);
#213 = AXIS2_PLACEMENT_3D('',#214,#215,#216);
#214 = CARTESIAN_POINT('',(-4.360649902E+03,1.088339953478E+03,
    -407.9615634804));
#215 = DIRECTION('',(0.,-1.,2.3841859309E-07));
#216 = DIRECTION('',(1.,0.,0.));
#217 = ADVANCED_FACE('',(#218,#221),#232,.F.);
#218 = FACE_BOUND('',#219,.F.);
#219 = EDGE_LOOP('',(#220));
#220 = ORIENTED_EDGE('',*,*,#204,.T.);
#221 = FACE_BOUND('',#222,.T.);
#222 = EDGE_LOOP('',(#223));
#223 = ORIENTED_EDGE('',*,*,#224,.T.);
#224 = EDGE_CURVE('',#225,#225,#227,.T.);
#225 = VERTEX_POINT('',#226);
#226 = CARTESIAN_POINT('',(-4.160241166E+03,1.098339953478E+03,
    -407.9615658646));
#227 = CIRCLE('',#228,200.408736);
#228 = AXIS2_PLACEMENT_3D('',#229,#230,#231);
#229 = CARTESIAN_POINT('',(-4.360649902E+03,1.098339953478E+03,
    -407.9615658646));
#230 = DIRECTION('',(0.,-1.,2.3841859265E-07));
#231 = DIRECTION('',(1.,0.,0.));
#232 = PLANE('',#233);
#233 = AXIS2_PLACEMENT_3D('',#234,#235,#236);
#234 = CARTESIAN_POINT('',(-4.360649902E+03,1.098339953478E+03,
    -407.9615658646));
#235 = DIRECTION('',(-2.E-17,-1.,2.3841859287E-07));
#236 = DIRECTION('',(0.,-2.3841859287E-07,-1.));
#237 = ADVANCED_FACE('',(#238),#257,.F.);
#238 = FACE_BOUND('',#239,.F.);
#239 = EDGE_LOOP('',(#240,#248,#249,#250));
#240 = ORIENTED_EDGE('',*,*,#241,.T.);
#241 = EDGE_CURVE('',#242,#225,#244,.T.);
#242 = VERTEX_POINT('',#243);
#243 = CARTESIAN_POINT('',(-4.160241166E+03,1.088339953478E+03,
    -407.9615634804));
#244 = LINE('',#245,#246);
#245 = CARTESIAN_POINT('',(-4.160241166E+03,1.088339953478E+03,
    -407.9615634804));
#246 = VECTOR('',#247,1.);
#247 = DIRECTION('',(0.,1.,-2.3841859309E-07));
#248 = ORIENTED_EDGE('',*,*,#224,.T.);
#249 = ORIENTED_EDGE('',*,*,#241,.F.);
#250 = ORIENTED_EDGE('',*,*,#251,.F.);
#251 = EDGE_CURVE('',#242,#242,#252,.T.);
#252 = CIRCLE('',#253,200.408736);
#253 = AXIS2_PLACEMENT_3D('',#254,#255,#256);
#254 = CARTESIAN_POINT('',(-4.360649902E+03,1.088339953478E+03,
    -407.9615634804));
#255 = DIRECTION('',(0.,-1.,2.3841859265E-07));
#256 = DIRECTION('',(1.,0.,0.));
#257 = CYLINDRICAL_SURFACE('',#258,200.408736);
#258 = AXIS2_PLACEMENT_3D('',#259,#260,#261);
#259 = CARTESIAN_POINT('',(-4.360649902E+03,1.088339953478E+03,
    -407.9615634804));
#260 = DIRECTION('',(0.,-1.,2.3841859309E-07));
#261 = DIRECTION('',(1.,0.,0.));
#262 = ADVANCED_FACE('',(#263),#266,.F.);
#263 = FACE_BOUND('',#264,.T.);
#264 = EDGE_LOOP('',(#265));
#265 = ORIENTED_EDGE('',*,*,#251,.F.);
#266 = PLANE('',#267);
#267 = AXIS2_PLACEMENT_3D('',#268,#269,#270);
#268 = CARTESIAN_POINT('',(-4.360649902E+03,1.088339953478E+03,
    -407.9615634804));
#269 = DIRECTION('',(-0.,-1.,2.3841859287E-07));
#270 = DIRECTION('',(0.,-2.3841859287E-07,-1.));
#271 = ( GEOMETRIC_REPRESENTATION_CONTEXT(3) 
GLOBAL_UNCERTAINTY_ASSIGNED_CONTEXT((#275)) GLOBAL_UNIT_ASSIGNED_CONTEXT
((#272,#273,#274)) REPRESENTATION_CONTEXT('Context #1',
  '3D Context with UNIT and UNCERTAINTY') );
#272 = ( LENGTH_UNIT() NAMED_UNIT(*) SI_UNIT(.MILLI.,.METRE.) );
#273 = ( NAMED_UNIT(*) PLANE_ANGLE_UNIT() SI_UNIT($,.RADIAN.) );
#274 = ( NAMED_UNIT(*) SI_UNIT($,.STERADIAN.) SOLID_ANGLE_UNIT() );
#275 = UNCERTAINTY_MEASURE_WITH_UNIT(LENGTH_MEASURE(1.E-07),#272,
  'distance_accuracy_value','confusion accuracy');
#276 = CONTEXT_DEPENDENT_SHAPE_REPRESENTATION(#277,#279);
#277 = ( REPRESENTATION_RELATIONSHIP('','',#75,#40) 
REPRESENTATION_RELATIONSHIP_WITH_TRANSFORMATION(#278) 
SHAPE_REPRESENTATION_RELATIONSHIP() );
#278 = ITEM_DEFINED_TRANSFORMATION('','',#11,#41);
#279 = PRODUCT_DEFINITION_SHAPE('Placement','Placement of an item',#280
  );
#280 = NEXT_ASSEMBLY_USAGE_OCCURRENCE('1','tire002','',#35,#70,$);
#281 = PRODUCT_RELATED_PRODUCT_CATEGORY('part',$,(#72));
#282 = SHAPE_DEFINITION_REPRESENTATION(#283,#289);
#283 = PRODUCT_DEFINITION_SHAPE('','',#284);
#284 = PRODUCT_DEFINITION('design','',#285,#288);
#285 = PRODUCT_DEFINITION_FORMATION('','',#286);
#286 = PRODUCT('tire003','tire003','',(#287));
#287 = PRODUCT_CONTEXT('',#2,'mechanical');
#288 = PRODUCT_DEFINITION_CONTEXT('part definition',#2,'design');
#289 = ADVANCED_BREP_SHAPE_REPRESENTATION('',(#11,#290),#485);
#290 = MANIFOLD_SOLID_BREP('',#291);
#291 = CLOSED_SHELL('',(#292,#325,#351,#377,#386,#406,#431,#451,#476));
#292 = ADVANCED_FACE('',(#293),#320,.T.);
#293 = FACE_BOUND('',#294,.T.);
#294 = EDGE_LOOP('',(#295,#305,#312,#313));
#295 = ORIENTED_EDGE('',*,*,#296,.T.);
#296 = EDGE_CURVE('',#297,#299,#301,.T.);
#297 = VERTEX_POINT('',#298);
#298 = CARTESIAN_POINT('',(-666.729902,888.33992445156,-529.7075157967)
  );
#299 = VERTEX_POINT('',#300);
#300 = CARTESIAN_POINT('',(-666.729902,1.038339924452E+03,
    -529.7075515595));
#301 = LINE('',#302,#303);
#302 = CARTESIAN_POINT('',(-666.729902,838.33992445156,-529.7075038758)
  );
#303 = VECTOR('',#304,1.);
#304 = DIRECTION('',(0.,1.,-2.3841859309E-07));
#305 = ORIENTED_EDGE('',*,*,#306,.T.);
#306 = EDGE_CURVE('',#299,#299,#307,.T.);
#307 = CIRCLE('',#308,400.);
#308 = AXIS2_PLACEMENT_3D('',#309,#310,#311);
#309 = CARTESIAN_POINT('',(-1.066729902E+03,1.038339924452E+03,
    -529.7075515595));
#310 = DIRECTION('',(0.,-1.,2.3841859309E-07));
#311 = DIRECTION('',(1.,-1.43051155854E-23,-6.E-17));
#312 = ORIENTED_EDGE('',*,*,#296,.F.);
#313 = ORIENTED_EDGE('',*,*,#314,.F.);
#314 = EDGE_CURVE('',#297,#297,#315,.T.);
#315 = CIRCLE('',#316,400.);
#316 = AXIS2_PLACEMENT_3D('',#317,#318,#319);
#317 = CARTESIAN_POINT('',(-1.066729902E+03,888.33992445156,
    -529.7075157967));
#318 = DIRECTION('',(0.,-1.,2.3841859309E-07));
#319 = DIRECTION('',(1.,1.43051155854E-23,6.E-17));
#320 = CYLINDRICAL_SURFACE('',#321,400.);
#321 = AXIS2_PLACEMENT_3D('',#322,#323,#324);
#322 = CARTESIAN_POINT('',(-1.066729902E+03,838.33992445156,
    -529.7075038758));
#323 = DIRECTION('',(0.,-1.,2.3841859309E-07));
#324 = DIRECTION('',(1.,0.,0.));
#325 = ADVANCED_FACE('',(#326),#346,.T.);
#326 = FACE_BOUND('',#327,.T.);
#327 = EDGE_LOOP('',(#328,#337,#338,#339));
#328 = ORIENTED_EDGE('',*,*,#329,.F.);
#329 = EDGE_CURVE('',#297,#330,#332,.T.);
#330 = VERTEX_POINT('',#331);
#331 = CARTESIAN_POINT('',(-716.729902,838.33992445156,-529.7075038758)
  );
#332 = CIRCLE('',#333,50.);
#333 = AXIS2_PLACEMENT_3D('',#334,#335,#336);
#334 = CARTESIAN_POINT('',(-716.729902,888.33992445156,-529.7075157967)
  );
#335 = DIRECTION('',(6.E-17,-2.3841859309E-07,-1.));
#336 = DIRECTION('',(1.,4.055455510337E-37,6.E-17));
#337 = ORIENTED_EDGE('',*,*,#314,.T.);
#338 = ORIENTED_EDGE('',*,*,#329,.T.);
#339 = ORIENTED_EDGE('',*,*,#340,.F.);
#340 = EDGE_CURVE('',#330,#330,#341,.T.);
#341 = CIRCLE('',#342,350.);
#342 = AXIS2_PLACEMENT_3D('',#343,#344,#345);
#343 = CARTESIAN_POINT('',(-1.066729902E+03,838.33992445156,
    -529.7075038758));
#344 = DIRECTION('',(0.,-1.,2.3841859309E-07));
#345 = DIRECTION('',(1.,1.43051155854E-23,6.E-17));
#346 = TOROIDAL_SURFACE('',#347,350.,50.);
#347 = AXIS2_PLACEMENT_3D('',#348,#349,#350);
#348 = CARTESIAN_POINT('',(-1.066729902E+03,888.33992445156,
    -529.7075157967));
#349 = DIRECTION('',(0.,-1.,2.3841859309E-07));
#350 = DIRECTION('',(1.,1.43051155854E-23,6.E-17));
#351 = ADVANCED_FACE('',(#352),#372,.T.);
#352 = FACE_BOUND('',#353,.T.);
#353 = EDGE_LOOP('',(#354,#363,#370,#371));
#354 = ORIENTED_EDGE('',*,*,#355,.T.);
#355 = EDGE_CURVE('',#356,#356,#358,.T.);
#356 = VERTEX_POINT('',#357);
#357 = CARTESIAN_POINT('',(-716.729902,1.088339924452E+03,
    -529.7075634804));
#358 = CIRCLE('',#359,350.);
#359 = AXIS2_PLACEMENT_3D('',#360,#361,#362);
#360 = CARTESIAN_POINT('',(-1.066729902E+03,1.088339924452E+03,
    -529.7075634804));
#361 = DIRECTION('',(0.,-1.,2.3841859309E-07));
#362 = DIRECTION('',(1.,-1.43051155854E-23,-6.E-17));
#363 = ORIENTED_EDGE('',*,*,#364,.F.);
#364 = EDGE_CURVE('',#299,#356,#365,.T.);
#365 = CIRCLE('',#366,50.);
#366 = AXIS2_PLACEMENT_3D('',#367,#368,#369);
#367 = CARTESIAN_POINT('',(-716.729902,1.038339924452E+03,
    -529.7075515595));
#368 = DIRECTION('',(6.E-17,2.3841859309E-07,1.));
#369 = DIRECTION('',(1.,-4.055455510337E-37,-6.E-17));
#370 = ORIENTED_EDGE('',*,*,#306,.F.);
#371 = ORIENTED_EDGE('',*,*,#364,.T.);
#372 = TOROIDAL_SURFACE('',#373,350.,50.);
#373 = AXIS2_PLACEMENT_3D('',#374,#375,#376);
#374 = CARTESIAN_POINT('',(-1.066729902E+03,1.038339924452E+03,
    -529.7075515595));
#375 = DIRECTION('',(0.,1.,-2.3841859309E-07));
#376 = DIRECTION('',(1.,-1.43051155854E-23,-6.E-17));
#377 = ADVANCED_FACE('',(#378),#381,.T.);
#378 = FACE_BOUND('',#379,.F.);
#379 = EDGE_LOOP('',(#380));
#380 = ORIENTED_EDGE('',*,*,#340,.F.);
#381 = PLANE('',#382);
#382 = AXIS2_PLACEMENT_3D('',#383,#384,#385);
#383 = CARTESIAN_POINT('',(-1.066729902E+03,838.33992445156,
    -529.7075038758));
#384 = DIRECTION('',(-0.,-1.,2.3841859287E-07));
#385 = DIRECTION('',(0.,-2.3841859287E-07,-1.));
#386 = ADVANCED_FACE('',(#387,#390),#401,.F.);
#387 = FACE_BOUND('',#388,.T.);
#388 = EDGE_LOOP('',(#389));
#389 = ORIENTED_EDGE('',*,*,#355,.F.);
#390 = FACE_BOUND('',#391,.T.);
#391 = EDGE_LOOP('',(#392));
#392 = ORIENTED_EDGE('',*,*,#393,.T.);
#393 = EDGE_CURVE('',#394,#394,#396,.T.);
#394 = VERTEX_POINT('',#395);
#395 = CARTESIAN_POINT('',(-816.919483,1.088339924452E+03,
    -529.7075634804));
#396 = CIRCLE('',#397,249.810419);
#397 = AXIS2_PLACEMENT_3D('',#398,#399,#400);
#398 = CARTESIAN_POINT('',(-1.066729902E+03,1.088339924452E+03,
    -529.7075634804));
#399 = DIRECTION('',(0.,-1.,2.3841859265E-07));
#400 = DIRECTION('',(1.,0.,0.));
#401 = PLANE('',#402);
#402 = AXIS2_PLACEMENT_3D('',#403,#404,#405);
#403 = CARTESIAN_POINT('',(-1.066729902E+03,1.088339924452E+03,
    -529.7075634804));
#404 = DIRECTION('',(-0.,-1.,2.3841859287E-07));
#405 = DIRECTION('',(0.,-2.3841859287E-07,-1.));
#406 = ADVANCED_FACE('',(#407),#426,.T.);
#407 = FACE_BOUND('',#408,.T.);
#408 = EDGE_LOOP('',(#409,#417,#424,#425));
#409 = ORIENTED_EDGE('',*,*,#410,.T.);
#410 = EDGE_CURVE('',#394,#411,#413,.T.);
#411 = VERTEX_POINT('',#412);
#412 = CARTESIAN_POINT('',(-816.919483,1.098339924452E+03,
    -529.7075658646));
#413 = LINE('',#414,#415);
#414 = CARTESIAN_POINT('',(-816.919483,1.088339924452E+03,
    -529.7075634804));
#415 = VECTOR('',#416,1.);
#416 = DIRECTION('',(0.,1.,-2.3841859309E-07));
#417 = ORIENTED_EDGE('',*,*,#418,.T.);
#418 = EDGE_CURVE('',#411,#411,#419,.T.);
#419 = CIRCLE('',#420,249.810419);
#420 = AXIS2_PLACEMENT_3D('',#421,#422,#423);
#421 = CARTESIAN_POINT('',(-1.066729902E+03,1.098339924452E+03,
    -529.7075658646));
#422 = DIRECTION('',(0.,-1.,2.3841859265E-07));
#423 = DIRECTION('',(1.,0.,0.));
#424 = ORIENTED_EDGE('',*,*,#410,.F.);
#425 = ORIENTED_EDGE('',*,*,#393,.F.);
#426 = CYLINDRICAL_SURFACE('',#427,249.810419);
#427 = AXIS2_PLACEMENT_3D('',#428,#429,#430);
#428 = CARTESIAN_POINT('',(-1.066729902E+03,1.088339924452E+03,
    -529.7075634804));
#429 = DIRECTION('',(0.,-1.,2.3841859309E-07));
#430 = DIRECTION('',(1.,0.,0.));
#431 = ADVANCED_FACE('',(#432,#435),#446,.F.);
#432 = FACE_BOUND('',#433,.F.);
#433 = EDGE_LOOP('',(#434));
#434 = ORIENTED_EDGE('',*,*,#418,.T.);
#435 = FACE_BOUND('',#436,.T.);
#436 = EDGE_LOOP('',(#437));
#437 = ORIENTED_EDGE('',*,*,#438,.T.);
#438 = EDGE_CURVE('',#439,#439,#441,.T.);
#439 = VERTEX_POINT('',#440);
#440 = CARTESIAN_POINT('',(-866.321166,1.098339924452E+03,
    -529.7075658646));
#441 = CIRCLE('',#442,200.408736);
#442 = AXIS2_PLACEMENT_3D('',#443,#444,#445);
#443 = CARTESIAN_POINT('',(-1.066729902E+03,1.098339924452E+03,
    -529.7075658646));
#444 = DIRECTION('',(0.,-1.,2.3841859265E-07));
#445 = DIRECTION('',(1.,0.,0.));
#446 = PLANE('',#447);
#447 = AXIS2_PLACEMENT_3D('',#448,#449,#450);
#448 = CARTESIAN_POINT('',(-1.066729902E+03,1.098339924452E+03,
    -529.7075658646));
#449 = DIRECTION('',(-2.E-17,-1.,2.3841859287E-07));
#450 = DIRECTION('',(0.,-2.3841859287E-07,-1.));
#451 = ADVANCED_FACE('',(#452),#471,.F.);
#452 = FACE_BOUND('',#453,.F.);
#453 = EDGE_LOOP('',(#454,#462,#463,#464));
#454 = ORIENTED_EDGE('',*,*,#455,.T.);
#455 = EDGE_CURVE('',#456,#439,#458,.T.);
#456 = VERTEX_POINT('',#457);
#457 = CARTESIAN_POINT('',(-866.321166,1.088339924452E+03,
    -529.7075634804));
#458 = LINE('',#459,#460);
#459 = CARTESIAN_POINT('',(-866.321166,1.088339924452E+03,
    -529.7075634804));
#460 = VECTOR('',#461,1.);
#461 = DIRECTION('',(0.,1.,-2.3841859309E-07));
#462 = ORIENTED_EDGE('',*,*,#438,.T.);
#463 = ORIENTED_EDGE('',*,*,#455,.F.);
#464 = ORIENTED_EDGE('',*,*,#465,.F.);
#465 = EDGE_CURVE('',#456,#456,#466,.T.);
#466 = CIRCLE('',#467,200.408736);
#467 = AXIS2_PLACEMENT_3D('',#468,#469,#470);
#468 = CARTESIAN_POINT('',(-1.066729902E+03,1.088339924452E+03,
    -529.7075634804));
#469 = DIRECTION('',(0.,-1.,2.3841859265E-07));
#470 = DIRECTION('',(1.,0.,0.));
#471 = CYLINDRICAL_SURFACE('',#472,200.408736);
#472 = AXIS2_PLACEMENT_3D('',#473,#474,#475);
#473 = CARTESIAN_POINT('',(-1.066729902E+03,1.088339924452E+03,
    -529.7075634804));
#474 = DIRECTION('',(0.,-1.,2.3841859309E-07));
#475 = DIRECTION('',(1.,0.,0.));
#476 = ADVANCED_FACE('',(#477),#480,.F.);
#477 = FACE_BOUND('',#478,.T.);
#478 = EDGE_LOOP('',(#479));
#479 = ORIENTED_EDGE('',*,*,#465,.F.);
#480 = PLANE('',#481);
#481 = AXIS2_PLACEMENT_3D('',#482,#483,#484);
#482 = CARTESIAN_POINT('',(-1.066729902E+03,1.088339924452E+03,
    -529.7075634804));
#483 = DIRECTION('',(-0.,-1.,2.3841859287E-07));
#484 = DIRECTION('',(0.,-2.3841859287E-07,-1.));
#485 = ( GEOMETRIC_REPRESENTATION_CONTEXT(3) 
GLOBAL_UNCERTAINTY_ASSIGNED_CONTEXT((#489)) GLOBAL_UNIT_ASSIGNED_CONTEXT
((#486,#487,#488)) REPRESENTATION_CONTEXT('Context #1',
  '3D Context with UNIT and UNCERTAINTY') );
#486 = ( LENGTH_UNIT() NAMED_UNIT(*) SI_UNIT(.MILLI.,.METRE.) );
#487 = ( NAMED_UNIT(*) PLANE_ANGLE_UNIT() SI_UNIT($,.RADIAN.) );
#488 = ( NAMED_UNIT(*) SI_UNIT($,.STERADIAN.) SOLID_ANGLE_UNIT() );
#489 = UNCERTAINTY_MEASURE_WITH_UNIT(LENGTH_MEASURE(1.E-07),#486,
  'distance_accuracy_value','confusion accuracy');
#490 = CONTEXT_DEPENDENT_SHAPE_REPRESENTATION(#491,#493);
#491 = ( REPRESENTATION_RELATIONSHIP('','',#289,#40) 
REPRESENTATION_RELATIONSHIP_WITH_TRANSFORMATION(#492) 
SHAPE_REPRESENTATION_RELATIONSHIP() );
#492 = ITEM_DEFINED_TRANSFORMATION('','',#11,#45);
#493 = PRODUCT_DEFINITION_SHAPE('Placement','Placement of an item',#494
  );
#494 = NEXT_ASSEMBLY_USAGE_OCCURRENCE('2','tire003','',#35,#284,$);
#495 = PRODUCT_RELATED_PRODUCT_CATEGORY('part',$,(#286));
#496 = SHAPE_DEFINITION_REPRESENTATION(#497,#503);
#497 = PRODUCT_DEFINITION_SHAPE('','',#498);
#498 = PRODUCT_DEFINITION('design','',#499,#502);
#499 = PRODUCT_DEFINITION_FORMATION('','',#500);
#500 = PRODUCT('tire004','tire004','',(#501));
#501 = PRODUCT_CONTEXT('',#2,'mechanical');
#502 = PRODUCT_DEFINITION_CONTEXT('part definition',#2,'design');
#503 = ADVANCED_BREP_SHAPE_REPRESENTATION('',(#11,#504),#699);
#504 = MANIFOLD_SOLID_BREP('',#505);
#505 = CLOSED_SHELL('',(#506,#539,#565,#591,#600,#620,#645,#665,#690));
#506 = ADVANCED_FACE('',(#507),#534,.T.);
#507 = FACE_BOUND('',#508,.T.);
#508 = EDGE_LOOP('',(#509,#518,#526,#533));
#509 = ORIENTED_EDGE('',*,*,#510,.T.);
#510 = EDGE_CURVE('',#511,#511,#513,.T.);
#511 = VERTEX_POINT('',#512);
#512 = CARTESIAN_POINT('',(-3.960649902E+03,-888.34,-407.961304));
#513 = CIRCLE('',#514,400.);
#514 = AXIS2_PLACEMENT_3D('',#515,#516,#517);
#515 = CARTESIAN_POINT('',(-4.360649902E+03,-888.34,-407.961304));
#516 = DIRECTION('',(0.,-1.,2.2E-16));
#517 = DIRECTION('',(1.,1.32E-32,6.E-17));
#518 = ORIENTED_EDGE('',*,*,#519,.T.);
#519 = EDGE_CURVE('',#511,#520,#522,.T.);
#520 = VERTEX_POINT('',#521);
#521 = CARTESIAN_POINT('',(-3.960649902E+03,-1.03834E+03,-407.961304));
#522 = LINE('',#523,#524);
#523 = CARTESIAN_POINT('',(-3.960649902E+03,-838.34,-407.961304));
#524 = VECTOR('',#525,1.);
#525 = DIRECTION('',(0.,-1.,2.2E-16));
#526 = ORIENTED_EDGE('',*,*,#527,.F.);
#527 = EDGE_CURVE('',#520,#520,#528,.T.);
#528 = CIRCLE('',#529,400.);
#529 = AXIS2_PLACEMENT_3D('',#530,#531,#532);
#530 = CARTESIAN_POINT('',(-4.360649902E+03,-1.03834E+03,-407.961304));
#531 = DIRECTION('',(0.,-1.,2.2E-16));
#532 = DIRECTION('',(1.,-1.32E-32,-6.E-17));
#533 = ORIENTED_EDGE('',*,*,#519,.F.);
#534 = CYLINDRICAL_SURFACE('',#535,400.);
#535 = AXIS2_PLACEMENT_3D('',#536,#537,#538);
#536 = CARTESIAN_POINT('',(-4.360649902E+03,-838.34,-407.961304));
#537 = DIRECTION('',(0.,1.,-2.2E-16));
#538 = DIRECTION('',(1.,0.,0.));
#539 = ADVANCED_FACE('',(#540),#560,.T.);
#540 = FACE_BOUND('',#541,.T.);
#541 = EDGE_LOOP('',(#542,#551,#558,#559));
#542 = ORIENTED_EDGE('',*,*,#543,.T.);
#543 = EDGE_CURVE('',#544,#544,#546,.T.);
#544 = VERTEX_POINT('',#545);
#545 = CARTESIAN_POINT('',(-4.010649902E+03,-838.34,-407.961304));
#546 = CIRCLE('',#547,350.);
#547 = AXIS2_PLACEMENT_3D('',#548,#549,#550);
#548 = CARTESIAN_POINT('',(-4.360649902E+03,-838.34,-407.961304));
#549 = DIRECTION('',(0.,-1.,2.2E-16));
#550 = DIRECTION('',(1.,1.32E-32,6.E-17));
#551 = ORIENTED_EDGE('',*,*,#552,.F.);
#552 = EDGE_CURVE('',#511,#544,#553,.T.);
#553 = CIRCLE('',#554,50.);
#554 = AXIS2_PLACEMENT_3D('',#555,#556,#557);
#555 = CARTESIAN_POINT('',(-4.010649902E+03,-888.34,-407.961304));
#556 = DIRECTION('',(-6.E-17,2.2E-16,1.));
#557 = DIRECTION('',(1.,0.,6.E-17));
#558 = ORIENTED_EDGE('',*,*,#510,.F.);
#559 = ORIENTED_EDGE('',*,*,#552,.T.);
#560 = TOROIDAL_SURFACE('',#561,350.,50.);
#561 = AXIS2_PLACEMENT_3D('',#562,#563,#564);
#562 = CARTESIAN_POINT('',(-4.360649902E+03,-888.34,-407.961304));
#563 = DIRECTION('',(0.,1.,-2.2E-16));
#564 = DIRECTION('',(1.,1.32E-32,6.E-17));
#565 = ADVANCED_FACE('',(#566),#586,.T.);
#566 = FACE_BOUND('',#567,.T.);
#567 = EDGE_LOOP('',(#568,#577,#578,#579));
#568 = ORIENTED_EDGE('',*,*,#569,.F.);
#569 = EDGE_CURVE('',#520,#570,#572,.T.);
#570 = VERTEX_POINT('',#571);
#571 = CARTESIAN_POINT('',(-4.010649902E+03,-1.08834E+03,-407.961304));
#572 = CIRCLE('',#573,50.);
#573 = AXIS2_PLACEMENT_3D('',#574,#575,#576);
#574 = CARTESIAN_POINT('',(-4.010649902E+03,-1.03834E+03,-407.961304));
#575 = DIRECTION('',(-6.E-17,-2.2E-16,-1.));
#576 = DIRECTION('',(1.,0.,-6.E-17));
#577 = ORIENTED_EDGE('',*,*,#527,.T.);
#578 = ORIENTED_EDGE('',*,*,#569,.T.);
#579 = ORIENTED_EDGE('',*,*,#580,.F.);
#580 = EDGE_CURVE('',#570,#570,#581,.T.);
#581 = CIRCLE('',#582,350.);
#582 = AXIS2_PLACEMENT_3D('',#583,#584,#585);
#583 = CARTESIAN_POINT('',(-4.360649902E+03,-1.08834E+03,-407.961304));
#584 = DIRECTION('',(0.,-1.,2.2E-16));
#585 = DIRECTION('',(1.,-1.32E-32,-6.E-17));
#586 = TOROIDAL_SURFACE('',#587,350.,50.);
#587 = AXIS2_PLACEMENT_3D('',#588,#589,#590);
#588 = CARTESIAN_POINT('',(-4.360649902E+03,-1.03834E+03,-407.961304));
#589 = DIRECTION('',(0.,-1.,2.2E-16));
#590 = DIRECTION('',(1.,-1.32E-32,-6.E-17));
#591 = ADVANCED_FACE('',(#592),#595,.T.);
#592 = FACE_BOUND('',#593,.T.);
#593 = EDGE_LOOP('',(#594));
#594 = ORIENTED_EDGE('',*,*,#543,.F.);
#595 = PLANE('',#596);
#596 = AXIS2_PLACEMENT_3D('',#597,#598,#599);
#597 = CARTESIAN_POINT('',(-4.360649902E+03,-838.34,-407.961304));
#598 = DIRECTION('',(0.,1.,0.));
#599 = DIRECTION('',(0.,-0.,1.));
#600 = ADVANCED_FACE('',(#601,#604),#615,.F.);
#601 = FACE_BOUND('',#602,.F.);
#602 = EDGE_LOOP('',(#603));
#603 = ORIENTED_EDGE('',*,*,#580,.F.);
#604 = FACE_BOUND('',#605,.F.);
#605 = EDGE_LOOP('',(#606));
#606 = ORIENTED_EDGE('',*,*,#607,.T.);
#607 = EDGE_CURVE('',#608,#608,#610,.T.);
#608 = VERTEX_POINT('',#609);
#609 = CARTESIAN_POINT('',(-4.110839483E+03,-1.08834E+03,-407.961304));
#610 = CIRCLE('',#611,249.810419);
#611 = AXIS2_PLACEMENT_3D('',#612,#613,#614);
#612 = CARTESIAN_POINT('',(-4.360649902E+03,-1.08834E+03,-407.961304));
#613 = DIRECTION('',(0.,-1.,-2.2E-16));
#614 = DIRECTION('',(1.,0.,0.));
#615 = PLANE('',#616);
#616 = AXIS2_PLACEMENT_3D('',#617,#618,#619);
#617 = CARTESIAN_POINT('',(-4.360649902E+03,-1.08834E+03,-407.961304));
#618 = DIRECTION('',(0.,1.,0.));
#619 = DIRECTION('',(0.,-0.,1.));
#620 = ADVANCED_FACE('',(#621),#640,.T.);
#621 = FACE_BOUND('',#622,.T.);
#622 = EDGE_LOOP('',(#623,#624,#632,#639));
#623 = ORIENTED_EDGE('',*,*,#607,.T.);
#624 = ORIENTED_EDGE('',*,*,#625,.T.);
#625 = EDGE_CURVE('',#608,#626,#628,.T.);
#626 = VERTEX_POINT('',#627);
#627 = CARTESIAN_POINT('',(-4.110839483E+03,-1.09834E+03,-407.961304));
#628 = LINE('',#629,#630);
#629 = CARTESIAN_POINT('',(-4.110839483E+03,-1.08834E+03,-407.961304));
#630 = VECTOR('',#631,1.);
#631 = DIRECTION('',(0.,-1.,2.2E-16));
#632 = ORIENTED_EDGE('',*,*,#633,.F.);
#633 = EDGE_CURVE('',#626,#626,#634,.T.);
#634 = CIRCLE('',#635,249.810419);
#635 = AXIS2_PLACEMENT_3D('',#636,#637,#638);
#636 = CARTESIAN_POINT('',(-4.360649902E+03,-1.09834E+03,-407.961304));
#637 = DIRECTION('',(0.,-1.,-2.2E-16));
#638 = DIRECTION('',(1.,0.,0.));
#639 = ORIENTED_EDGE('',*,*,#625,.F.);
#640 = CYLINDRICAL_SURFACE('',#641,249.810419);
#641 = AXIS2_PLACEMENT_3D('',#642,#643,#644);
#642 = CARTESIAN_POINT('',(-4.360649902E+03,-1.08834E+03,-407.961304));
#643 = DIRECTION('',(0.,1.,-2.2E-16));
#644 = DIRECTION('',(1.,0.,0.));
#645 = ADVANCED_FACE('',(#646,#649),#660,.F.);
#646 = FACE_BOUND('',#647,.T.);
#647 = EDGE_LOOP('',(#648));
#648 = ORIENTED_EDGE('',*,*,#633,.T.);
#649 = FACE_BOUND('',#650,.F.);
#650 = EDGE_LOOP('',(#651));
#651 = ORIENTED_EDGE('',*,*,#652,.T.);
#652 = EDGE_CURVE('',#653,#653,#655,.T.);
#653 = VERTEX_POINT('',#654);
#654 = CARTESIAN_POINT('',(-4.160241166E+03,-1.09834E+03,-407.961304));
#655 = CIRCLE('',#656,200.408736);
#656 = AXIS2_PLACEMENT_3D('',#657,#658,#659);
#657 = CARTESIAN_POINT('',(-4.360649902E+03,-1.09834E+03,-407.961304));
#658 = DIRECTION('',(0.,-1.,-2.2E-16));
#659 = DIRECTION('',(1.,0.,0.));
#660 = PLANE('',#661);
#661 = AXIS2_PLACEMENT_3D('',#662,#663,#664);
#662 = CARTESIAN_POINT('',(-4.360649902E+03,-1.09834E+03,-407.961304));
#663 = DIRECTION('',(-2.E-17,1.,0.));
#664 = DIRECTION('',(0.,0.,1.));
#665 = ADVANCED_FACE('',(#666),#685,.F.);
#666 = FACE_BOUND('',#667,.F.);
#667 = EDGE_LOOP('',(#668,#677,#683,#684));
#668 = ORIENTED_EDGE('',*,*,#669,.T.);
#669 = EDGE_CURVE('',#670,#670,#672,.T.);
#670 = VERTEX_POINT('',#671);
#671 = CARTESIAN_POINT('',(-4.160241166E+03,-1.08834E+03,-407.961304));
#672 = CIRCLE('',#673,200.408736);
#673 = AXIS2_PLACEMENT_3D('',#674,#675,#676);
#674 = CARTESIAN_POINT('',(-4.360649902E+03,-1.08834E+03,-407.961304));
#675 = DIRECTION('',(0.,-1.,-2.2E-16));
#676 = DIRECTION('',(1.,0.,0.));
#677 = ORIENTED_EDGE('',*,*,#678,.T.);
#678 = EDGE_CURVE('',#670,#653,#679,.T.);
#679 = LINE('',#680,#681);
#680 = CARTESIAN_POINT('',(-4.160241166E+03,-1.08834E+03,-407.961304));
#681 = VECTOR('',#682,1.);
#682 = DIRECTION('',(0.,-1.,2.2E-16));
#683 = ORIENTED_EDGE('',*,*,#652,.F.);
#684 = ORIENTED_EDGE('',*,*,#678,.F.);
#685 = CYLINDRICAL_SURFACE('',#686,200.408736);
#686 = AXIS2_PLACEMENT_3D('',#687,#688,#689);
#687 = CARTESIAN_POINT('',(-4.360649902E+03,-1.08834E+03,-407.961304));
#688 = DIRECTION('',(0.,1.,-2.2E-16));
#689 = DIRECTION('',(1.,0.,0.));
#690 = ADVANCED_FACE('',(#691),#694,.F.);
#691 = FACE_BOUND('',#692,.F.);
#692 = EDGE_LOOP('',(#693));
#693 = ORIENTED_EDGE('',*,*,#669,.F.);
#694 = PLANE('',#695);
#695 = AXIS2_PLACEMENT_3D('',#696,#697,#698);
#696 = CARTESIAN_POINT('',(-4.360649902E+03,-1.08834E+03,-407.961304));
#697 = DIRECTION('',(0.,1.,0.));
#698 = DIRECTION('',(0.,-0.,1.));
#699 = ( GEOMETRIC_REPRESENTATION_CONTEXT(3) 
GLOBAL_UNCERTAINTY_ASSIGNED_CONTEXT((#703)) GLOBAL_UNIT_ASSIGNED_CONTEXT
((#700,#701,#702)) REPRESENTATION_CONTEXT('Context #1',
  '3D Context with UNIT and UNCERTAINTY') );
#700 = ( LENGTH_UNIT() NAMED_UNIT(*) SI_UNIT(.MILLI.,.METRE.) );
#701 = ( NAMED_UNIT(*) PLANE_ANGLE_UNIT() SI_UNIT($,.RADIAN.) );
#702 = ( NAMED_UNIT(*) SI_UNIT($,.STERADIAN.) SOLID_ANGLE_UNIT() );
#703 = UNCERTAINTY_MEASURE_WITH_UNIT(LENGTH_MEASURE(1.E-07),#700,
  'distance_accuracy_value','confusion accuracy');
#704 = CONTEXT_DEPENDENT_SHAPE_REPRESENTATION(#705,#707);
#705 = ( REPRESENTATION_RELATIONSHIP('','',#503,#40) 
REPRESENTATION_RELATIONSHIP_WITH_TRANSFORMATION(#706) 
SHAPE_REPRESENTATION_RELATIONSHIP() );
#706 = ITEM_DEFINED_TRANSFORMATION('','',#11,#49);
#707 = PRODUCT_DEFINITION_SHAPE('Placement','Placement of an item',#708
  );
#708 = NEXT_ASSEMBLY_USAGE_OCCURRENCE('3','tire004','',#35,#498,$);
#709 = PRODUCT_RELATED_PRODUCT_CATEGORY('part',$,(#500));
#710 = SHAPE_DEFINITION_REPRESENTATION(#711,#717);
#711 = PRODUCT_DEFINITION_SHAPE('','',#712);
#712 = PRODUCT_DEFINITION('design','',#713,#716);
#713 = PRODUCT_DEFINITION_FORMATION('','',#714);
#714 = PRODUCT('tire005','tire005','',(#715));
#715 = PRODUCT_CONTEXT('',#2,'mechanical');
#716 = PRODUCT_DEFINITION_CONTEXT('part definition',#2,'design');
#717 = ADVANCED_BREP_SHAPE_REPRESENTATION('',(#11,#718),#913);
#718 = MANIFOLD_SOLID_BREP('',#719);
#719 = CLOSED_SHELL('',(#720,#753,#779,#805,#814,#834,#859,#879,#904));
#720 = ADVANCED_FACE('',(#721),#748,.T.);
#721 = FACE_BOUND('',#722,.T.);
#722 = EDGE_LOOP('',(#723,#732,#740,#747));
#723 = ORIENTED_EDGE('',*,*,#724,.T.);
#724 = EDGE_CURVE('',#725,#725,#727,.T.);
#725 = VERTEX_POINT('',#726);
#726 = CARTESIAN_POINT('',(-666.729902,-888.34,-529.707304));
#727 = CIRCLE('',#728,400.);
#728 = AXIS2_PLACEMENT_3D('',#729,#730,#731);
#729 = CARTESIAN_POINT('',(-1.066729902E+03,-888.34,-529.707304));
#730 = DIRECTION('',(0.,-1.,2.2E-16));
#731 = DIRECTION('',(1.,1.32E-32,6.E-17));
#732 = ORIENTED_EDGE('',*,*,#733,.T.);
#733 = EDGE_CURVE('',#725,#734,#736,.T.);
#734 = VERTEX_POINT('',#735);
#735 = CARTESIAN_POINT('',(-666.729902,-1.03834E+03,-529.707304));
#736 = LINE('',#737,#738);
#737 = CARTESIAN_POINT('',(-666.729902,-838.34,-529.707304));
#738 = VECTOR('',#739,1.);
#739 = DIRECTION('',(0.,-1.,2.2E-16));
#740 = ORIENTED_EDGE('',*,*,#741,.F.);
#741 = EDGE_CURVE('',#734,#734,#742,.T.);
#742 = CIRCLE('',#743,400.);
#743 = AXIS2_PLACEMENT_3D('',#744,#745,#746);
#744 = CARTESIAN_POINT('',(-1.066729902E+03,-1.03834E+03,-529.707304));
#745 = DIRECTION('',(0.,-1.,2.2E-16));
#746 = DIRECTION('',(1.,-1.32E-32,-6.E-17));
#747 = ORIENTED_EDGE('',*,*,#733,.F.);
#748 = CYLINDRICAL_SURFACE('',#749,400.);
#749 = AXIS2_PLACEMENT_3D('',#750,#751,#752);
#750 = CARTESIAN_POINT('',(-1.066729902E+03,-838.34,-529.707304));
#751 = DIRECTION('',(0.,1.,-2.2E-16));
#752 = DIRECTION('',(1.,0.,0.));
#753 = ADVANCED_FACE('',(#754),#774,.T.);
#754 = FACE_BOUND('',#755,.T.);
#755 = EDGE_LOOP('',(#756,#765,#772,#773));
#756 = ORIENTED_EDGE('',*,*,#757,.T.);
#757 = EDGE_CURVE('',#758,#758,#760,.T.);
#758 = VERTEX_POINT('',#759);
#759 = CARTESIAN_POINT('',(-716.729902,-838.34,-529.707304));
#760 = CIRCLE('',#761,350.);
#761 = AXIS2_PLACEMENT_3D('',#762,#763,#764);
#762 = CARTESIAN_POINT('',(-1.066729902E+03,-838.34,-529.707304));
#763 = DIRECTION('',(0.,-1.,2.2E-16));
#764 = DIRECTION('',(1.,1.32E-32,6.E-17));
#765 = ORIENTED_EDGE('',*,*,#766,.F.);
#766 = EDGE_CURVE('',#725,#758,#767,.T.);
#767 = CIRCLE('',#768,50.);
#768 = AXIS2_PLACEMENT_3D('',#769,#770,#771);
#769 = CARTESIAN_POINT('',(-716.729902,-888.34,-529.707304));
#770 = DIRECTION('',(-6.E-17,2.2E-16,1.));
#771 = DIRECTION('',(1.,0.,6.E-17));
#772 = ORIENTED_EDGE('',*,*,#724,.F.);
#773 = ORIENTED_EDGE('',*,*,#766,.T.);
#774 = TOROIDAL_SURFACE('',#775,350.,50.);
#775 = AXIS2_PLACEMENT_3D('',#776,#777,#778);
#776 = CARTESIAN_POINT('',(-1.066729902E+03,-888.34,-529.707304));
#777 = DIRECTION('',(0.,1.,-2.2E-16));
#778 = DIRECTION('',(1.,1.32E-32,6.E-17));
#779 = ADVANCED_FACE('',(#780),#800,.T.);
#780 = FACE_BOUND('',#781,.T.);
#781 = EDGE_LOOP('',(#782,#791,#792,#793));
#782 = ORIENTED_EDGE('',*,*,#783,.F.);
#783 = EDGE_CURVE('',#734,#784,#786,.T.);
#784 = VERTEX_POINT('',#785);
#785 = CARTESIAN_POINT('',(-716.729902,-1.08834E+03,-529.707304));
#786 = CIRCLE('',#787,50.);
#787 = AXIS2_PLACEMENT_3D('',#788,#789,#790);
#788 = CARTESIAN_POINT('',(-716.729902,-1.03834E+03,-529.707304));
#789 = DIRECTION('',(-6.E-17,-2.2E-16,-1.));
#790 = DIRECTION('',(1.,0.,-6.E-17));
#791 = ORIENTED_EDGE('',*,*,#741,.T.);
#792 = ORIENTED_EDGE('',*,*,#783,.T.);
#793 = ORIENTED_EDGE('',*,*,#794,.F.);
#794 = EDGE_CURVE('',#784,#784,#795,.T.);
#795 = CIRCLE('',#796,350.);
#796 = AXIS2_PLACEMENT_3D('',#797,#798,#799);
#797 = CARTESIAN_POINT('',(-1.066729902E+03,-1.08834E+03,-529.707304));
#798 = DIRECTION('',(0.,-1.,2.2E-16));
#799 = DIRECTION('',(1.,-1.32E-32,-6.E-17));
#800 = TOROIDAL_SURFACE('',#801,350.,50.);
#801 = AXIS2_PLACEMENT_3D('',#802,#803,#804);
#802 = CARTESIAN_POINT('',(-1.066729902E+03,-1.03834E+03,-529.707304));
#803 = DIRECTION('',(0.,-1.,2.2E-16));
#804 = DIRECTION('',(1.,-1.32E-32,-6.E-17));
#805 = ADVANCED_FACE('',(#806),#809,.T.);
#806 = FACE_BOUND('',#807,.T.);
#807 = EDGE_LOOP('',(#808));
#808 = ORIENTED_EDGE('',*,*,#757,.F.);
#809 = PLANE('',#810);
#810 = AXIS2_PLACEMENT_3D('',#811,#812,#813);
#811 = CARTESIAN_POINT('',(-1.066729902E+03,-838.34,-529.707304));
#812 = DIRECTION('',(0.,1.,0.));
#813 = DIRECTION('',(0.,-0.,1.));
#814 = ADVANCED_FACE('',(#815,#818),#829,.F.);
#815 = FACE_BOUND('',#816,.F.);
#816 = EDGE_LOOP('',(#817));
#817 = ORIENTED_EDGE('',*,*,#794,.F.);
#818 = FACE_BOUND('',#819,.F.);
#819 = EDGE_LOOP('',(#820));
#820 = ORIENTED_EDGE('',*,*,#821,.T.);
#821 = EDGE_CURVE('',#822,#822,#824,.T.);
#822 = VERTEX_POINT('',#823);
#823 = CARTESIAN_POINT('',(-816.919483,-1.08834E+03,-529.707304));
#824 = CIRCLE('',#825,249.810419);
#825 = AXIS2_PLACEMENT_3D('',#826,#827,#828);
#826 = CARTESIAN_POINT('',(-1.066729902E+03,-1.08834E+03,-529.707304));
#827 = DIRECTION('',(0.,-1.,-2.2E-16));
#828 = DIRECTION('',(1.,0.,0.));
#829 = PLANE('',#830);
#830 = AXIS2_PLACEMENT_3D('',#831,#832,#833);
#831 = CARTESIAN_POINT('',(-1.066729902E+03,-1.08834E+03,-529.707304));
#832 = DIRECTION('',(0.,1.,0.));
#833 = DIRECTION('',(0.,-0.,1.));
#834 = ADVANCED_FACE('',(#835),#854,.T.);
#835 = FACE_BOUND('',#836,.T.);
#836 = EDGE_LOOP('',(#837,#838,#846,#853));
#837 = ORIENTED_EDGE('',*,*,#821,.T.);
#838 = ORIENTED_EDGE('',*,*,#839,.T.);
#839 = EDGE_CURVE('',#822,#840,#842,.T.);
#840 = VERTEX_POINT('',#841);
#841 = CARTESIAN_POINT('',(-816.919483,-1.09834E+03,-529.707304));
#842 = LINE('',#843,#844);
#843 = CARTESIAN_POINT('',(-816.919483,-1.08834E+03,-529.707304));
#844 = VECTOR('',#845,1.);
#845 = DIRECTION('',(0.,-1.,2.2E-16));
#846 = ORIENTED_EDGE('',*,*,#847,.F.);
#847 = EDGE_CURVE('',#840,#840,#848,.T.);
#848 = CIRCLE('',#849,249.810419);
#849 = AXIS2_PLACEMENT_3D('',#850,#851,#852);
#850 = CARTESIAN_POINT('',(-1.066729902E+03,-1.09834E+03,-529.707304));
#851 = DIRECTION('',(0.,-1.,-2.2E-16));
#852 = DIRECTION('',(1.,0.,0.));
#853 = ORIENTED_EDGE('',*,*,#839,.F.);
#854 = CYLINDRICAL_SURFACE('',#855,249.810419);
#855 = AXIS2_PLACEMENT_3D('',#856,#857,#858);
#856 = CARTESIAN_POINT('',(-1.066729902E+03,-1.08834E+03,-529.707304));
#857 = DIRECTION('',(0.,1.,-2.2E-16));
#858 = DIRECTION('',(1.,0.,0.));
#859 = ADVANCED_FACE('',(#860,#863),#874,.F.);
#860 = FACE_BOUND('',#861,.T.);
#861 = EDGE_LOOP('',(#862));
#862 = ORIENTED_EDGE('',*,*,#847,.T.);
#863 = FACE_BOUND('',#864,.F.);
#864 = EDGE_LOOP('',(#865));
#865 = ORIENTED_EDGE('',*,*,#866,.T.);
#866 = EDGE_CURVE('',#867,#867,#869,.T.);
#867 = VERTEX_POINT('',#868);
#868 = CARTESIAN_POINT('',(-866.321166,-1.09834E+03,-529.707304));
#869 = CIRCLE('',#870,200.408736);
#870 = AXIS2_PLACEMENT_3D('',#871,#872,#873);
#871 = CARTESIAN_POINT('',(-1.066729902E+03,-1.09834E+03,-529.707304));
#872 = DIRECTION('',(0.,-1.,-2.2E-16));
#873 = DIRECTION('',(1.,0.,0.));
#874 = PLANE('',#875);
#875 = AXIS2_PLACEMENT_3D('',#876,#877,#878);
#876 = CARTESIAN_POINT('',(-1.066729902E+03,-1.09834E+03,-529.707304));
#877 = DIRECTION('',(-2.E-17,1.,0.));
#878 = DIRECTION('',(0.,0.,1.));
#879 = ADVANCED_FACE('',(#880),#899,.F.);
#880 = FACE_BOUND('',#881,.F.);
#881 = EDGE_LOOP('',(#882,#891,#897,#898));
#882 = ORIENTED_EDGE('',*,*,#883,.T.);
#883 = EDGE_CURVE('',#884,#884,#886,.T.);
#884 = VERTEX_POINT('',#885);
#885 = CARTESIAN_POINT('',(-866.321166,-1.08834E+03,-529.707304));
#886 = CIRCLE('',#887,200.408736);
#887 = AXIS2_PLACEMENT_3D('',#888,#889,#890);
#888 = CARTESIAN_POINT('',(-1.066729902E+03,-1.08834E+03,-529.707304));
#889 = DIRECTION('',(0.,-1.,-2.2E-16));
#890 = DIRECTION('',(1.,0.,0.));
#891 = ORIENTED_EDGE('',*,*,#892,.T.);
#892 = EDGE_CURVE('',#884,#867,#893,.T.);
#893 = LINE('',#894,#895);
#894 = CARTESIAN_POINT('',(-866.321166,-1.08834E+03,-529.707304));
#895 = VECTOR('',#896,1.);
#896 = DIRECTION('',(0.,-1.,2.2E-16));
#897 = ORIENTED_EDGE('',*,*,#866,.F.);
#898 = ORIENTED_EDGE('',*,*,#892,.F.);
#899 = CYLINDRICAL_SURFACE('',#900,200.408736);
#900 = AXIS2_PLACEMENT_3D('',#901,#902,#903);
#901 = CARTESIAN_POINT('',(-1.066729902E+03,-1.08834E+03,-529.707304));
#902 = DIRECTION('',(0.,1.,-2.2E-16));
#903 = DIRECTION('',(1.,0.,0.));
#904 = ADVANCED_FACE('',(#905),#908,.F.);
#905 = FACE_BOUND('',#906,.F.);
#906 = EDGE_LOOP('',(#907));
#907 = ORIENTED_EDGE('',*,*,#883,.F.);
#908 = PLANE('',#909);
#909 = AXIS2_PLACEMENT_3D('',#910,#911,#912);
#910 = CARTESIAN_POINT('',(-1.066729902E+03,-1.08834E+03,-529.707304));
#911 = DIRECTION('',(0.,1.,0.));
#912 = DIRECTION('',(0.,-0.,1.));
#913 = ( GEOMETRIC_REPRESENTATION_CONTEXT(3) 
GLOBAL_UNCERTAINTY_ASSIGNED_CONTEXT((#917)) GLOBAL_UNIT_ASSIGNED_CONTEXT
((#914,#915,#916)) REPRESENTATION_CONTEXT('Context #1',
  '3D Context with UNIT and UNCERTAINTY') );
#914 = ( LENGTH_UNIT() NAMED_UNIT(*) SI_UNIT(.MILLI.,.METRE.) );
#915 = ( NAMED_UNIT(*) PLANE_ANGLE_UNIT() SI_UNIT($,.RADIAN.) );
#916 = ( NAMED_UNIT(*) SI_UNIT($,.STERADIAN.) SOLID_ANGLE_UNIT() );
#917 = UNCERTAINTY_MEASURE_WITH_UNIT(LENGTH_MEASURE(1.E-07),#914,
  'distance_accuracy_value','confusion accuracy');
#918 = CONTEXT_DEPENDENT_SHAPE_REPRESENTATION(#919,#921);
#919 = ( REPRESENTATION_RELATIONSHIP('','',#717,#40) 
REPRESENTATION_RELATIONSHIP_WITH_TRANSFORMATION(#920) 
SHAPE_REPRESENTATION_RELATIONSHIP() );
#920 = ITEM_DEFINED_TRANSFORMATION('','',#11,#53);
#921 = PRODUCT_DEFINITION_SHAPE('Placement','Placement of an item',#922
  );
#922 = NEXT_ASSEMBLY_USAGE_OCCURRENCE('4','tire005','',#35,#712,$);
#923 = PRODUCT_RELATED_PRODUCT_CATEGORY('part',$,(#714));
#924 = SHAPE_DEFINITION_REPRESENTATION(#925,#931);
#925 = PRODUCT_DEFINITION_SHAPE('','',#926);
#926 = PRODUCT_DEFINITION('design','',#927,#930);
#927 = PRODUCT_DEFINITION_FORMATION('','',#928);
#928 = PRODUCT('円柱001','円柱001','',(#929));
#929 = PRODUCT_CONTEXT('',#2,'mechanical');
#930 = PRODUCT_DEFINITION_CONTEXT('part definition',#2,'design');
#931 = ADVANCED_BREP_SHAPE_REPRESENTATION('',(#11,#932),#985);
#932 = MANIFOLD_SOLID_BREP('',#933);
#933 = CLOSED_SHELL('',(#934,#967,#976));
#934 = ADVANCED_FACE('',(#935),#962,.T.);
#935 = FACE_BOUND('',#936,.T.);
#936 = EDGE_LOOP('',(#937,#946,#954,#961));
#937 = ORIENTED_EDGE('',*,*,#938,.T.);
#938 = EDGE_CURVE('',#939,#939,#941,.T.);
#939 = VERTEX_POINT('',#940);
#940 = CARTESIAN_POINT('',(50.,-1.2E-14,0.));
#941 = CIRCLE('',#942,50.);
#942 = AXIS2_PLACEMENT_3D('',#943,#944,#945);
#943 = CARTESIAN_POINT('',(0.,0.,0.));
#944 = DIRECTION('',(0.,0.,1.));
#945 = DIRECTION('',(1.,0.,-0.));
#946 = ORIENTED_EDGE('',*,*,#947,.T.);
#947 = EDGE_CURVE('',#939,#948,#950,.T.);
#948 = VERTEX_POINT('',#949);
#949 = CARTESIAN_POINT('',(50.,-1.2E-14,2.E+03));
#950 = LINE('',#951,#952);
#951 = CARTESIAN_POINT('',(50.,-1.225E-14,0.));
#952 = VECTOR('',#953,1.);
#953 = DIRECTION('',(0.,0.,1.));
#954 = ORIENTED_EDGE('',*,*,#955,.F.);
#955 = EDGE_CURVE('',#948,#948,#956,.T.);
#956 = CIRCLE('',#957,50.);
#957 = AXIS2_PLACEMENT_3D('',#958,#959,#960);
#958 = CARTESIAN_POINT('',(0.,0.,2.E+03));
#959 = DIRECTION('',(0.,0.,1.));
#960 = DIRECTION('',(1.,0.,-0.));
#961 = ORIENTED_EDGE('',*,*,#947,.F.);
#962 = CYLINDRICAL_SURFACE('',#963,50.);
#963 = AXIS2_PLACEMENT_3D('',#964,#965,#966);
#964 = CARTESIAN_POINT('',(0.,0.,0.));
#965 = DIRECTION('',(-0.,-0.,-1.));
#966 = DIRECTION('',(1.,0.,-0.));
#967 = ADVANCED_FACE('',(#968),#971,.F.);
#968 = FACE_BOUND('',#969,.T.);
#969 = EDGE_LOOP('',(#970));
#970 = ORIENTED_EDGE('',*,*,#938,.F.);
#971 = PLANE('',#972);
#972 = AXIS2_PLACEMENT_3D('',#973,#974,#975);
#973 = CARTESIAN_POINT('',(0.,0.,0.));
#974 = DIRECTION('',(0.,0.,1.));
#975 = DIRECTION('',(1.,0.,-0.));
#976 = ADVANCED_FACE('',(#977),#980,.T.);
#977 = FACE_BOUND('',#978,.F.);
#978 = EDGE_LOOP('',(#979));
#979 = ORIENTED_EDGE('',*,*,#955,.F.);
#980 = PLANE('',#981);
#981 = AXIS2_PLACEMENT_3D('',#982,#983,#984);
#982 = CARTESIAN_POINT('',(0.,0.,2.E+03));
#983 = DIRECTION('',(0.,0.,1.));
#984 = DIRECTION('',(1.,0.,-0.));
#985 = ( GEOMETRIC_REPRESENTATION_CONTEXT(3) 
GLOBAL_UNCERTAINTY_ASSIGNED_CONTEXT((#989)) GLOBAL_UNIT_ASSIGNED_CONTEXT
((#986,#987,#988)) REPRESENTATION_CONTEXT('Context #1',
  '3D Context with UNIT and UNCERTAINTY') );
#986 = ( LENGTH_UNIT() NAMED_UNIT(*) SI_UNIT(.MILLI.,.METRE.) );
#987 = ( NAMED_UNIT(*) PLANE_ANGLE_UNIT() SI_UNIT($,.RADIAN.) );
#988 = ( NAMED_UNIT(*) SI_UNIT($,.STERADIAN.) SOLID_ANGLE_UNIT() );
#989 = UNCERTAINTY_MEASURE_WITH_UNIT(LENGTH_MEASURE(1.E-07),#986,
  'distance_accuracy_value','confusion accuracy');
#990 = CONTEXT_DEPENDENT_SHAPE_REPRESENTATION(#991,#993);
#991 = ( REPRESENTATION_RELATIONSHIP('','',#931,#10) 
REPRESENTATION_RELATIONSHIP_WITH_TRANSFORMATION(#992) 
SHAPE_REPRESENTATION_RELATIONSHIP() );
#992 = ITEM_DEFINED_TRANSFORMATION('','',#11,#19);
#993 = PRODUCT_DEFINITION_SHAPE('Placement','Placement of an item',#994
  );
#994 = NEXT_ASSEMBLY_USAGE_OCCURRENCE('6','円柱001','',#5,#926,$);
#995 = PRODUCT_RELATED_PRODUCT_CATEGORY('part',$,(#928));
#996 = SHAPE_DEFINITION_REPRESENTATION(#997,#1003);
#997 = PRODUCT_DEFINITION_SHAPE('','',#998);
#998 = PRODUCT_DEFINITION('design','',#999,#1002);
#999 = PRODUCT_DEFINITION_FORMATION('','',#1000);
#1000 = PRODUCT('円柱002','円柱002','',(#1001));
#1001 = PRODUCT_CONTEXT('',#2,'mechanical');
#1002 = PRODUCT_DEFINITION_CONTEXT('part definition',#2,'design');
#1003 = ADVANCED_BREP_SHAPE_REPRESENTATION('',(#11,#1004),#1057);
#1004 = MANIFOLD_SOLID_BREP('',#1005);
#1005 = CLOSED_SHELL('',(#1006,#1039,#1048));
#1006 = ADVANCED_FACE('',(#1007),#1034,.T.);
#1007 = FACE_BOUND('',#1008,.T.);
#1008 = EDGE_LOOP('',(#1009,#1018,#1026,#1033));
#1009 = ORIENTED_EDGE('',*,*,#1010,.T.);
#1010 = EDGE_CURVE('',#1011,#1011,#1013,.T.);
#1011 = VERTEX_POINT('',#1012);
#1012 = CARTESIAN_POINT('',(50.,-1.2E-14,0.));
#1013 = CIRCLE('',#1014,50.);
#1014 = AXIS2_PLACEMENT_3D('',#1015,#1016,#1017);
#1015 = CARTESIAN_POINT('',(0.,0.,0.));
#1016 = DIRECTION('',(0.,0.,1.));
#1017 = DIRECTION('',(1.,0.,-0.));
#1018 = ORIENTED_EDGE('',*,*,#1019,.T.);
#1019 = EDGE_CURVE('',#1011,#1020,#1022,.T.);
#1020 = VERTEX_POINT('',#1021);
#1021 = CARTESIAN_POINT('',(50.,-1.2E-14,2.E+03));
#1022 = LINE('',#1023,#1024);
#1023 = CARTESIAN_POINT('',(50.,-1.225E-14,0.));
#1024 = VECTOR('',#1025,1.);
#1025 = DIRECTION('',(0.,0.,1.));
#1026 = ORIENTED_EDGE('',*,*,#1027,.F.);
#1027 = EDGE_CURVE('',#1020,#1020,#1028,.T.);
#1028 = CIRCLE('',#1029,50.);
#1029 = AXIS2_PLACEMENT_3D('',#1030,#1031,#1032);
#1030 = CARTESIAN_POINT('',(0.,0.,2.E+03));
#1031 = DIRECTION('',(0.,0.,1.));
#1032 = DIRECTION('',(1.,0.,-0.));
#1033 = ORIENTED_EDGE('',*,*,#1019,.F.);
#1034 = CYLINDRICAL_SURFACE('',#1035,50.);
#1035 = AXIS2_PLACEMENT_3D('',#1036,#1037,#1038);
#1036 = CARTESIAN_POINT('',(0.,0.,0.));
#1037 = DIRECTION('',(-0.,-0.,-1.));
#1038 = DIRECTION('',(1.,0.,-0.));
#1039 = ADVANCED_FACE('',(#1040),#1043,.F.);
#1040 = FACE_BOUND('',#1041,.T.);
#1041 = EDGE_LOOP('',(#1042));
#1042 = ORIENTED_EDGE('',*,*,#1010,.F.);
#1043 = PLANE('',#1044);
#1044 = AXIS2_PLACEMENT_3D('',#1045,#1046,#1047);
#1045 = CARTESIAN_POINT('',(0.,0.,0.));
#1046 = DIRECTION('',(0.,0.,1.));
#1047 = DIRECTION('',(1.,0.,-0.));
#1048 = ADVANCED_FACE('',(#1049),#1052,.T.);
#1049 = FACE_BOUND('',#1050,.F.);
#1050 = EDGE_LOOP('',(#1051));
#1051 = ORIENTED_EDGE('',*,*,#1027,.F.);
#1052 = PLANE('',#1053);
#1053 = AXIS2_PLACEMENT_3D('',#1054,#1055,#1056);
#1054 = CARTESIAN_POINT('',(0.,0.,2.E+03));
#1055 = DIRECTION('',(0.,0.,1.));
#1056 = DIRECTION('',(1.,0.,-0.));
#1057 = ( GEOMETRIC_REPRESENTATION_CONTEXT(3) 
GLOBAL_UNCERTAINTY_ASSIGNED_CONTEXT((#1061)) 
GLOBAL_UNIT_ASSIGNED_CONTEXT((#1058,#1059,#1060)) REPRESENTATION_CONTEXT
('Context #1','3D Context with UNIT and UNCERTAINTY') );
#1058 = ( LENGTH_UNIT() NAMED_UNIT(*) SI_UNIT(.MILLI.,.METRE.) );
#1059 = ( NAMED_UNIT(*) PLANE_ANGLE_UNIT() SI_UNIT($,.RADIAN.) );
#1060 = ( NAMED_UNIT(*) SI_UNIT($,.STERADIAN.) SOLID_ANGLE_UNIT() );
#1061 = UNCERTAINTY_MEASURE_WITH_UNIT(LENGTH_MEASURE(1.E-07),#1058,
  'distance_accuracy_value','confusion accuracy');
#1062 = CONTEXT_DEPENDENT_SHAPE_REPRESENTATION(#1063,#1065);
#1063 = ( REPRESENTATION_RELATIONSHIP('','',#1003,#10) 
REPRESENTATION_RELATIONSHIP_WITH_TRANSFORMATION(#1064) 
SHAPE_REPRESENTATION_RELATIONSHIP() );
#1064 = ITEM_DEFINED_TRANSFORMATION('','',#11,#23);
#1065 = PRODUCT_DEFINITION_SHAPE('Placement','Placement of an item',
  #1066);
#1066 = NEXT_ASSEMBLY_USAGE_OCCURRENCE('7','円柱002','',#5,#998,$);
#1067 = PRODUCT_RELATED_PRODUCT_CATEGORY('part',$,(#1000));
#1068 = MECHANICAL_DESIGN_GEOMETRIC_PRESENTATION_REPRESENTATION('',(
    #1069),#985);
#1069 = STYLED_ITEM('color',(#1070),#932);
#1070 = PRESENTATION_STYLE_ASSIGNMENT((#1071,#1077));
#1071 = SURFACE_STYLE_USAGE(.BOTH.,#1072);
#1072 = SURFACE_SIDE_STYLE('',(#1073));
#1073 = SURFACE_STYLE_FILL_AREA(#1074);
#1074 = FILL_AREA_STYLE('',(#1075));
#1075 = FILL_AREA_STYLE_COLOUR('',#1076);
#1076 = COLOUR_RGB('',0.800000010877,0.800000010877,0.800000010877);
#1077 = CURVE_STYLE('',#1078,POSITIVE_LENGTH_MEASURE(0.1),#1079);
#1078 = DRAUGHTING_PRE_DEFINED_CURVE_FONT('continuous');
#1079 = COLOUR_RGB('',9.803921802644E-02,9.803921802644E-02,
  9.803921802644E-02);
#1080 = MECHANICAL_DESIGN_GEOMETRIC_PRESENTATION_REPRESENTATION('',(
    #1081),#1057);
#1081 = STYLED_ITEM('color',(#1082),#1004);
#1082 = PRESENTATION_STYLE_ASSIGNMENT((#1083,#1088));
#1083 = SURFACE_STYLE_USAGE(.BOTH.,#1084);
#1084 = SURFACE_SIDE_STYLE('',(#1085));
#1085 = SURFACE_STYLE_FILL_AREA(#1086);
#1086 = FILL_AREA_STYLE('',(#1087));
#1087 = FILL_AREA_STYLE_COLOUR('',#1076);
#1088 = CURVE_STYLE('',#1089,POSITIVE_LENGTH_MEASURE(0.1),#1079);
#1089 = DRAUGHTING_PRE_DEFINED_CURVE_FONT('continuous');
#1090 = MECHANICAL_DESIGN_GEOMETRIC_PRESENTATION_REPRESENTATION('',(
    #1091),#913);
#1091 = STYLED_ITEM('color',(#1092),#718);
#1092 = PRESENTATION_STYLE_ASSIGNMENT((#1093,#1098));
#1093 = SURFACE_STYLE_USAGE(.BOTH.,#1094);
#1094 = SURFACE_SIDE_STYLE('',(#1095));
#1095 = SURFACE_STYLE_FILL_AREA(#1096);
#1096 = FILL_AREA_STYLE('',(#1097));
#1097 = FILL_AREA_STYLE_COLOUR('',#1076);
#1098 = CURVE_STYLE('',#1099,POSITIVE_LENGTH_MEASURE(0.1),#1079);
#1099 = DRAUGHTING_PRE_DEFINED_CURVE_FONT('continuous');
#1100 = MECHANICAL_DESIGN_GEOMETRIC_PRESENTATION_REPRESENTATION('',(
    #1101),#699);
#1101 = STYLED_ITEM('color',(#1102),#504);
#1102 = PRESENTATION_STYLE_ASSIGNMENT((#1103,#1108));
#1103 = SURFACE_STYLE_USAGE(.BOTH.,#1104);
#1104 = SURFACE_SIDE_STYLE('',(#1105));
#1105 = SURFACE_STYLE_FILL_AREA(#1106);
#1106 = FILL_AREA_STYLE('',(#1107));
#1107 = FILL_AREA_STYLE_COLOUR('',#1076);
#1108 = CURVE_STYLE('',#1109,POSITIVE_LENGTH_MEASURE(0.1),#1079);
#1109 = DRAUGHTING_PRE_DEFINED_CURVE_FONT('continuous');
#1110 = MECHANICAL_DESIGN_GEOMETRIC_PRESENTATION_REPRESENTATION('',(
    #1111),#485);
#1111 = STYLED_ITEM('color',(#1112),#290);
#1112 = PRESENTATION_STYLE_ASSIGNMENT((#1113,#1118));
#1113 = SURFACE_STYLE_USAGE(.BOTH.,#1114);
#1114 = SURFACE_SIDE_STYLE('',(#1115));
#1115 = SURFACE_STYLE_FILL_AREA(#1116);
#1116 = FILL_AREA_STYLE('',(#1117));
#1117 = FILL_AREA_STYLE_COLOUR('',#1076);
#1118 = CURVE_STYLE('',#1119,POSITIVE_LENGTH_MEASURE(0.1),#1079);
#1119 = DRAUGHTING_PRE_DEFINED_CURVE_FONT('continuous');
#1120 = MECHANICAL_DESIGN_GEOMETRIC_PRESENTATION_REPRESENTATION('',(
    #1121),#271);
#1121 = STYLED_ITEM('color',(#1122),#76);
#1122 = PRESENTATION_STYLE_ASSIGNMENT((#1123,#1128));
#1123 = SURFACE_STYLE_USAGE(.BOTH.,#1124);
#1124 = SURFACE_SIDE_STYLE('',(#1125));
#1125 = SURFACE_STYLE_FILL_AREA(#1126);
#1126 = FILL_AREA_STYLE('',(#1127));
#1127 = FILL_AREA_STYLE_COLOUR('',#1076);
#1128 = CURVE_STYLE('',#1129,POSITIVE_LENGTH_MEASURE(0.1),#1079);
#1129 = DRAUGHTING_PRE_DEFINED_CURVE_FONT('continuous');
ENDSEC;
END-ISO-10303-21;
