ISO-10303-21;
HEADER;
FILE_DESCRIPTION(('FreeCAD Model'),'2;1');
FILE_NAME('Open CASCADE Shape Model','2026-08-02T18:38:48',(''),(''),
  'Open CASCADE STEP processor 7.8','FreeCAD','Unknown');
FILE_SCHEMA(('AUTOMOTIVE_DESIGN { 1 0 10303 214 1 1 1 1 }'));
ENDSEC;
DATA;
#1 = APPLICATION_PROTOCOL_DEFINITION('international standard',
  'automotive_design',2000,#2);
#2 = APPLICATION_CONTEXT(
  'core data for automotive mechanical design processes');
#3 = SHAPE_DEFINITION_REPRESENTATION(#4,#10);
#4 = PRODUCT_DEFINITION_SHAPE('','',#5);
#5 = PRODUCT_DEFINITION('design','',#6,#9);
#6 = PRODUCT_DEFINITION_FORMATION('','',#7);
#7 = PRODUCT('GateAssy','GateAssy','',(#8));
#8 = PRODUCT_CONTEXT('',#2,'mechanical');
#9 = PRODUCT_DEFINITION_CONTEXT('part definition',#2,'design');
#10 = SHAPE_REPRESENTATION('',(#11,#15),#19);
#11 = AXIS2_PLACEMENT_3D('',#12,#13,#14);
#12 = CARTESIAN_POINT('',(0.,0.,0.));
#13 = DIRECTION('',(0.,0.,1.));
#14 = DIRECTION('',(1.,0.,-0.));
#15 = AXIS2_PLACEMENT_3D('',#16,#17,#18);
#16 = CARTESIAN_POINT('',(0.,0.,0.));
#17 = DIRECTION('',(0.,0.,1.));
#18 = DIRECTION('',(1.,0.,0.));
#19 = ( GEOMETRIC_REPRESENTATION_CONTEXT(3) 
GLOBAL_UNCERTAINTY_ASSIGNED_CONTEXT((#23)) GLOBAL_UNIT_ASSIGNED_CONTEXT(
(#20,#21,#22)) REPRESENTATION_CONTEXT('Context #1',
  '3D Context with UNIT and UNCERTAINTY') );
#20 = ( LENGTH_UNIT() NAMED_UNIT(*) SI_UNIT(.MILLI.,.METRE.) );
#21 = ( NAMED_UNIT(*) PLANE_ANGLE_UNIT() SI_UNIT($,.RADIAN.) );
#22 = ( NAMED_UNIT(*) SI_UNIT($,.STERADIAN.) SOLID_ANGLE_UNIT() );
#23 = UNCERTAINTY_MEASURE_WITH_UNIT(LENGTH_MEASURE(1.E-07),#20,
  'distance_accuracy_value','confusion accuracy');
#24 = PRODUCT_RELATED_PRODUCT_CATEGORY('part',$,(#7));
#25 = SHAPE_DEFINITION_REPRESENTATION(#26,#32);
#26 = PRODUCT_DEFINITION_SHAPE('','',#27);
#27 = PRODUCT_DEFINITION('design','',#28,#31);
#28 = PRODUCT_DEFINITION_FORMATION('','',#29);
#29 = PRODUCT('Compound001','Compound001','',(#30));
#30 = PRODUCT_CONTEXT('',#2,'mechanical');
#31 = PRODUCT_DEFINITION_CONTEXT('part definition',#2,'design');
#32 = SHAPE_REPRESENTATION('',(#11,#33,#224,#415,#606),#756);
#33 = MANIFOLD_SOLID_BREP('',#34);
#34 = CLOSED_SHELL('',(#35,#77,#108,#139,#161,#194,#209));
#35 = ADVANCED_FACE('',(#36),#72,.T.);
#36 = FACE_BOUND('',#37,.T.);
#37 = EDGE_LOOP('',(#38,#49,#57,#66));
#38 = ORIENTED_EDGE('',*,*,#39,.T.);
#39 = EDGE_CURVE('',#40,#42,#44,.T.);
#40 = VERTEX_POINT('',#41);
#41 = CARTESIAN_POINT('',(24.,-850.71,0.));
#42 = VERTEX_POINT('',#43);
#43 = CARTESIAN_POINT('',(-24.,-850.71,0.));
#44 = CIRCLE('',#45,24.);
#45 = AXIS2_PLACEMENT_3D('',#46,#47,#48);
#46 = CARTESIAN_POINT('',(0.,-850.71,0.));
#47 = DIRECTION('',(0.,-1.,-2.2E-16));
#48 = DIRECTION('',(1.,0.,0.));
#49 = ORIENTED_EDGE('',*,*,#50,.T.);
#50 = EDGE_CURVE('',#42,#51,#53,.T.);
#51 = VERTEX_POINT('',#52);
#52 = CARTESIAN_POINT('',(-24.,-900.71,0.));
#53 = LINE('',#54,#55);
#54 = CARTESIAN_POINT('',(-24.,-850.71,0.));
#55 = VECTOR('',#56,1.);
#56 = DIRECTION('',(0.,-1.,-3.3E-16));
#57 = ORIENTED_EDGE('',*,*,#58,.F.);
#58 = EDGE_CURVE('',#59,#51,#61,.T.);
#59 = VERTEX_POINT('',#60);
#60 = CARTESIAN_POINT('',(24.,-900.71,0.));
#61 = CIRCLE('',#62,24.);
#62 = AXIS2_PLACEMENT_3D('',#63,#64,#65);
#63 = CARTESIAN_POINT('',(0.,-900.71,0.));
#64 = DIRECTION('',(0.,-1.,-2.2E-16));
#65 = DIRECTION('',(1.,0.,0.));
#66 = ORIENTED_EDGE('',*,*,#67,.F.);
#67 = EDGE_CURVE('',#40,#59,#68,.T.);
#68 = LINE('',#69,#70);
#69 = CARTESIAN_POINT('',(24.,-850.71,0.));
#70 = VECTOR('',#71,1.);
#71 = DIRECTION('',(0.,-1.,-3.3E-16));
#72 = CYLINDRICAL_SURFACE('',#73,24.);
#73 = AXIS2_PLACEMENT_3D('',#74,#75,#76);
#74 = CARTESIAN_POINT('',(0.,-850.71,0.));
#75 = DIRECTION('',(0.,1.,2.2E-16));
#76 = DIRECTION('',(1.,0.,0.));
#77 = ADVANCED_FACE('',(#78),#103,.F.);
#78 = FACE_BOUND('',#79,.F.);
#79 = EDGE_LOOP('',(#80,#81,#89,#97));
#80 = ORIENTED_EDGE('',*,*,#50,.T.);
#81 = ORIENTED_EDGE('',*,*,#82,.T.);
#82 = EDGE_CURVE('',#51,#83,#85,.T.);
#83 = VERTEX_POINT('',#84);
#84 = CARTESIAN_POINT('',(-24.,-900.71,-26.599501678));
#85 = LINE('',#86,#87);
#86 = CARTESIAN_POINT('',(-24.,-900.71,0.));
#87 = VECTOR('',#88,1.);
#88 = DIRECTION('',(0.,2.2E-16,-1.));
#89 = ORIENTED_EDGE('',*,*,#90,.F.);
#90 = EDGE_CURVE('',#91,#83,#93,.T.);
#91 = VERTEX_POINT('',#92);
#92 = CARTESIAN_POINT('',(-24.,-850.71,-26.599501678));
#93 = LINE('',#94,#95);
#94 = CARTESIAN_POINT('',(-24.,-850.71,-26.599501678));
#95 = VECTOR('',#96,1.);
#96 = DIRECTION('',(0.,-1.,-3.3E-16));
#97 = ORIENTED_EDGE('',*,*,#98,.F.);
#98 = EDGE_CURVE('',#42,#91,#99,.T.);
#99 = LINE('',#100,#101);
#100 = CARTESIAN_POINT('',(-24.,-850.71,0.));
#101 = VECTOR('',#102,1.);
#102 = DIRECTION('',(0.,2.2E-16,-1.));
#103 = PLANE('',#104);
#104 = AXIS2_PLACEMENT_3D('',#105,#106,#107);
#105 = CARTESIAN_POINT('',(-24.,-850.71,0.));
#106 = DIRECTION('',(1.,0.,0.));
#107 = DIRECTION('',(0.,2.2E-16,-1.));
#108 = ADVANCED_FACE('',(#109),#134,.F.);
#109 = FACE_BOUND('',#110,.F.);
#110 = EDGE_LOOP('',(#111,#112,#120,#128));
#111 = ORIENTED_EDGE('',*,*,#90,.T.);
#112 = ORIENTED_EDGE('',*,*,#113,.T.);
#113 = EDGE_CURVE('',#83,#114,#116,.T.);
#114 = VERTEX_POINT('',#115);
#115 = CARTESIAN_POINT('',(24.,-900.71,-26.599501678));
#116 = LINE('',#117,#118);
#117 = CARTESIAN_POINT('',(-24.,-900.71,-26.599501678));
#118 = VECTOR('',#119,1.);
#119 = DIRECTION('',(1.,0.,0.));
#120 = ORIENTED_EDGE('',*,*,#121,.F.);
#121 = EDGE_CURVE('',#122,#114,#124,.T.);
#122 = VERTEX_POINT('',#123);
#123 = CARTESIAN_POINT('',(24.,-850.71,-26.599501678));
#124 = LINE('',#125,#126);
#125 = CARTESIAN_POINT('',(24.,-850.71,-26.599501678));
#126 = VECTOR('',#127,1.);
#127 = DIRECTION('',(0.,-1.,-3.3E-16));
#128 = ORIENTED_EDGE('',*,*,#129,.F.);
#129 = EDGE_CURVE('',#91,#122,#130,.T.);
#130 = LINE('',#131,#132);
#131 = CARTESIAN_POINT('',(-24.,-850.71,-26.599501678));
#132 = VECTOR('',#133,1.);
#133 = DIRECTION('',(1.,0.,0.));
#134 = PLANE('',#135);
#135 = AXIS2_PLACEMENT_3D('',#136,#137,#138);
#136 = CARTESIAN_POINT('',(-24.,-850.71,-26.599501678));
#137 = DIRECTION('',(0.,-3.3E-16,1.));
#138 = DIRECTION('',(1.,0.,0.));
#139 = ADVANCED_FACE('',(#140),#156,.F.);
#140 = FACE_BOUND('',#141,.F.);
#141 = EDGE_LOOP('',(#142,#143,#149,#150));
#142 = ORIENTED_EDGE('',*,*,#121,.T.);
#143 = ORIENTED_EDGE('',*,*,#144,.T.);
#144 = EDGE_CURVE('',#114,#59,#145,.T.);
#145 = LINE('',#146,#147);
#146 = CARTESIAN_POINT('',(24.,-900.71,-26.599501678));
#147 = VECTOR('',#148,1.);
#148 = DIRECTION('',(0.,-2.2E-16,1.));
#149 = ORIENTED_EDGE('',*,*,#67,.F.);
#150 = ORIENTED_EDGE('',*,*,#151,.F.);
#151 = EDGE_CURVE('',#122,#40,#152,.T.);
#152 = LINE('',#153,#154);
#153 = CARTESIAN_POINT('',(24.,-850.71,-26.599501678));
#154 = VECTOR('',#155,1.);
#155 = DIRECTION('',(0.,-2.2E-16,1.));
#156 = PLANE('',#157);
#157 = AXIS2_PLACEMENT_3D('',#158,#159,#160);
#158 = CARTESIAN_POINT('',(24.,-850.71,-26.599501678));
#159 = DIRECTION('',(-1.,0.,0.));
#160 = DIRECTION('',(0.,-2.2E-16,1.));
#161 = ADVANCED_FACE('',(#162),#189,.F.);
#162 = FACE_BOUND('',#163,.F.);
#163 = EDGE_LOOP('',(#164,#173,#181,#188));
#164 = ORIENTED_EDGE('',*,*,#165,.T.);
#165 = EDGE_CURVE('',#166,#166,#168,.T.);
#166 = VERTEX_POINT('',#167);
#167 = CARTESIAN_POINT('',(12.,-850.71,0.));
#168 = CIRCLE('',#169,12.);
#169 = AXIS2_PLACEMENT_3D('',#170,#171,#172);
#170 = CARTESIAN_POINT('',(0.,-850.71,0.));
#171 = DIRECTION('',(0.,-1.,-2.2E-16));
#172 = DIRECTION('',(1.,0.,0.));
#173 = ORIENTED_EDGE('',*,*,#174,.T.);
#174 = EDGE_CURVE('',#166,#175,#177,.T.);
#175 = VERTEX_POINT('',#176);
#176 = CARTESIAN_POINT('',(12.,-900.71,0.));
#177 = LINE('',#178,#179);
#178 = CARTESIAN_POINT('',(12.,-850.71,0.));
#179 = VECTOR('',#180,1.);
#180 = DIRECTION('',(0.,-1.,-3.3E-16));
#181 = ORIENTED_EDGE('',*,*,#182,.F.);
#182 = EDGE_CURVE('',#175,#175,#183,.T.);
#183 = CIRCLE('',#184,12.);
#184 = AXIS2_PLACEMENT_3D('',#185,#186,#187);
#185 = CARTESIAN_POINT('',(0.,-900.71,0.));
#186 = DIRECTION('',(0.,-1.,-2.2E-16));
#187 = DIRECTION('',(1.,0.,0.));
#188 = ORIENTED_EDGE('',*,*,#174,.F.);
#189 = CYLINDRICAL_SURFACE('',#190,12.);
#190 = AXIS2_PLACEMENT_3D('',#191,#192,#193);
#191 = CARTESIAN_POINT('',(0.,-850.71,0.));
#192 = DIRECTION('',(0.,1.,2.2E-16));
#193 = DIRECTION('',(1.,0.,0.));
#194 = ADVANCED_FACE('',(#195,#201),#204,.T.);
#195 = FACE_BOUND('',#196,.F.);
#196 = EDGE_LOOP('',(#197,#198,#199,#200));
#197 = ORIENTED_EDGE('',*,*,#39,.T.);
#198 = ORIENTED_EDGE('',*,*,#98,.T.);
#199 = ORIENTED_EDGE('',*,*,#129,.T.);
#200 = ORIENTED_EDGE('',*,*,#151,.T.);
#201 = FACE_BOUND('',#202,.T.);
#202 = EDGE_LOOP('',(#203));
#203 = ORIENTED_EDGE('',*,*,#165,.T.);
#204 = PLANE('',#205);
#205 = AXIS2_PLACEMENT_3D('',#206,#207,#208);
#206 = CARTESIAN_POINT('',(0.,-850.71,-4.188649717));
#207 = DIRECTION('',(1.E-17,1.,2.2E-16));
#208 = DIRECTION('',(0.,-2.2E-16,1.));
#209 = ADVANCED_FACE('',(#210,#216),#219,.F.);
#210 = FACE_BOUND('',#211,.T.);
#211 = EDGE_LOOP('',(#212,#213,#214,#215));
#212 = ORIENTED_EDGE('',*,*,#58,.T.);
#213 = ORIENTED_EDGE('',*,*,#82,.T.);
#214 = ORIENTED_EDGE('',*,*,#113,.T.);
#215 = ORIENTED_EDGE('',*,*,#144,.T.);
#216 = FACE_BOUND('',#217,.F.);
#217 = EDGE_LOOP('',(#218));
#218 = ORIENTED_EDGE('',*,*,#182,.T.);
#219 = PLANE('',#220);
#220 = AXIS2_PLACEMENT_3D('',#221,#222,#223);
#221 = CARTESIAN_POINT('',(0.,-900.71,-4.188649717));
#222 = DIRECTION('',(1.E-17,1.,2.2E-16));
#223 = DIRECTION('',(0.,-2.2E-16,1.));
#224 = MANIFOLD_SOLID_BREP('',#225);
#225 = CLOSED_SHELL('',(#226,#268,#299,#330,#352,#385,#400));
#226 = ADVANCED_FACE('',(#227),#263,.T.);
#227 = FACE_BOUND('',#228,.T.);
#228 = EDGE_LOOP('',(#229,#240,#248,#257));
#229 = ORIENTED_EDGE('',*,*,#230,.T.);
#230 = EDGE_CURVE('',#231,#233,#235,.T.);
#231 = VERTEX_POINT('',#232);
#232 = CARTESIAN_POINT('',(24.,-0.71,0.));
#233 = VERTEX_POINT('',#234);
#234 = CARTESIAN_POINT('',(-24.,-0.71,0.));
#235 = CIRCLE('',#236,24.);
#236 = AXIS2_PLACEMENT_3D('',#237,#238,#239);
#237 = CARTESIAN_POINT('',(0.,-0.71,0.));
#238 = DIRECTION('',(0.,-1.,-2.2E-16));
#239 = DIRECTION('',(1.,0.,0.));
#240 = ORIENTED_EDGE('',*,*,#241,.T.);
#241 = EDGE_CURVE('',#233,#242,#244,.T.);
#242 = VERTEX_POINT('',#243);
#243 = CARTESIAN_POINT('',(-24.,-50.71,0.));
#244 = LINE('',#245,#246);
#245 = CARTESIAN_POINT('',(-24.,-0.71,0.));
#246 = VECTOR('',#247,1.);
#247 = DIRECTION('',(0.,-1.,-3.3E-16));
#248 = ORIENTED_EDGE('',*,*,#249,.F.);
#249 = EDGE_CURVE('',#250,#242,#252,.T.);
#250 = VERTEX_POINT('',#251);
#251 = CARTESIAN_POINT('',(24.,-50.71,0.));
#252 = CIRCLE('',#253,24.);
#253 = AXIS2_PLACEMENT_3D('',#254,#255,#256);
#254 = CARTESIAN_POINT('',(0.,-50.71,0.));
#255 = DIRECTION('',(0.,-1.,-2.2E-16));
#256 = DIRECTION('',(1.,0.,0.));
#257 = ORIENTED_EDGE('',*,*,#258,.F.);
#258 = EDGE_CURVE('',#231,#250,#259,.T.);
#259 = LINE('',#260,#261);
#260 = CARTESIAN_POINT('',(24.,-0.71,0.));
#261 = VECTOR('',#262,1.);
#262 = DIRECTION('',(0.,-1.,-3.3E-16));
#263 = CYLINDRICAL_SURFACE('',#264,24.);
#264 = AXIS2_PLACEMENT_3D('',#265,#266,#267);
#265 = CARTESIAN_POINT('',(0.,-0.71,0.));
#266 = DIRECTION('',(0.,1.,2.2E-16));
#267 = DIRECTION('',(1.,0.,0.));
#268 = ADVANCED_FACE('',(#269),#294,.F.);
#269 = FACE_BOUND('',#270,.F.);
#270 = EDGE_LOOP('',(#271,#272,#280,#288));
#271 = ORIENTED_EDGE('',*,*,#241,.T.);
#272 = ORIENTED_EDGE('',*,*,#273,.T.);
#273 = EDGE_CURVE('',#242,#274,#276,.T.);
#274 = VERTEX_POINT('',#275);
#275 = CARTESIAN_POINT('',(-24.,-50.71,-26.599501678));
#276 = LINE('',#277,#278);
#277 = CARTESIAN_POINT('',(-24.,-50.71,0.));
#278 = VECTOR('',#279,1.);
#279 = DIRECTION('',(0.,2.2E-16,-1.));
#280 = ORIENTED_EDGE('',*,*,#281,.F.);
#281 = EDGE_CURVE('',#282,#274,#284,.T.);
#282 = VERTEX_POINT('',#283);
#283 = CARTESIAN_POINT('',(-24.,-0.71,-26.599501678));
#284 = LINE('',#285,#286);
#285 = CARTESIAN_POINT('',(-24.,-0.71,-26.599501678));
#286 = VECTOR('',#287,1.);
#287 = DIRECTION('',(0.,-1.,-3.3E-16));
#288 = ORIENTED_EDGE('',*,*,#289,.F.);
#289 = EDGE_CURVE('',#233,#282,#290,.T.);
#290 = LINE('',#291,#292);
#291 = CARTESIAN_POINT('',(-24.,-0.71,0.));
#292 = VECTOR('',#293,1.);
#293 = DIRECTION('',(0.,2.2E-16,-1.));
#294 = PLANE('',#295);
#295 = AXIS2_PLACEMENT_3D('',#296,#297,#298);
#296 = CARTESIAN_POINT('',(-24.,-0.71,0.));
#297 = DIRECTION('',(1.,0.,0.));
#298 = DIRECTION('',(0.,2.2E-16,-1.));
#299 = ADVANCED_FACE('',(#300),#325,.F.);
#300 = FACE_BOUND('',#301,.F.);
#301 = EDGE_LOOP('',(#302,#303,#311,#319));
#302 = ORIENTED_EDGE('',*,*,#281,.T.);
#303 = ORIENTED_EDGE('',*,*,#304,.T.);
#304 = EDGE_CURVE('',#274,#305,#307,.T.);
#305 = VERTEX_POINT('',#306);
#306 = CARTESIAN_POINT('',(24.,-50.71,-26.599501678));
#307 = LINE('',#308,#309);
#308 = CARTESIAN_POINT('',(-24.,-50.71,-26.599501678));
#309 = VECTOR('',#310,1.);
#310 = DIRECTION('',(1.,0.,0.));
#311 = ORIENTED_EDGE('',*,*,#312,.F.);
#312 = EDGE_CURVE('',#313,#305,#315,.T.);
#313 = VERTEX_POINT('',#314);
#314 = CARTESIAN_POINT('',(24.,-0.71,-26.599501678));
#315 = LINE('',#316,#317);
#316 = CARTESIAN_POINT('',(24.,-0.71,-26.599501678));
#317 = VECTOR('',#318,1.);
#318 = DIRECTION('',(0.,-1.,-3.3E-16));
#319 = ORIENTED_EDGE('',*,*,#320,.F.);
#320 = EDGE_CURVE('',#282,#313,#321,.T.);
#321 = LINE('',#322,#323);
#322 = CARTESIAN_POINT('',(-24.,-0.71,-26.599501678));
#323 = VECTOR('',#324,1.);
#324 = DIRECTION('',(1.,0.,0.));
#325 = PLANE('',#326);
#326 = AXIS2_PLACEMENT_3D('',#327,#328,#329);
#327 = CARTESIAN_POINT('',(-24.,-0.71,-26.599501678));
#328 = DIRECTION('',(0.,-3.3E-16,1.));
#329 = DIRECTION('',(1.,0.,0.));
#330 = ADVANCED_FACE('',(#331),#347,.F.);
#331 = FACE_BOUND('',#332,.F.);
#332 = EDGE_LOOP('',(#333,#334,#340,#341));
#333 = ORIENTED_EDGE('',*,*,#312,.T.);
#334 = ORIENTED_EDGE('',*,*,#335,.T.);
#335 = EDGE_CURVE('',#305,#250,#336,.T.);
#336 = LINE('',#337,#338);
#337 = CARTESIAN_POINT('',(24.,-50.71,-26.599501678));
#338 = VECTOR('',#339,1.);
#339 = DIRECTION('',(0.,-2.2E-16,1.));
#340 = ORIENTED_EDGE('',*,*,#258,.F.);
#341 = ORIENTED_EDGE('',*,*,#342,.F.);
#342 = EDGE_CURVE('',#313,#231,#343,.T.);
#343 = LINE('',#344,#345);
#344 = CARTESIAN_POINT('',(24.,-0.71,-26.599501678));
#345 = VECTOR('',#346,1.);
#346 = DIRECTION('',(0.,-2.2E-16,1.));
#347 = PLANE('',#348);
#348 = AXIS2_PLACEMENT_3D('',#349,#350,#351);
#349 = CARTESIAN_POINT('',(24.,-0.71,-26.599501678));
#350 = DIRECTION('',(-1.,0.,0.));
#351 = DIRECTION('',(0.,-2.2E-16,1.));
#352 = ADVANCED_FACE('',(#353),#380,.F.);
#353 = FACE_BOUND('',#354,.F.);
#354 = EDGE_LOOP('',(#355,#364,#372,#379));
#355 = ORIENTED_EDGE('',*,*,#356,.T.);
#356 = EDGE_CURVE('',#357,#357,#359,.T.);
#357 = VERTEX_POINT('',#358);
#358 = CARTESIAN_POINT('',(12.,-0.71,0.));
#359 = CIRCLE('',#360,12.);
#360 = AXIS2_PLACEMENT_3D('',#361,#362,#363);
#361 = CARTESIAN_POINT('',(0.,-0.71,0.));
#362 = DIRECTION('',(0.,-1.,-2.2E-16));
#363 = DIRECTION('',(1.,0.,0.));
#364 = ORIENTED_EDGE('',*,*,#365,.T.);
#365 = EDGE_CURVE('',#357,#366,#368,.T.);
#366 = VERTEX_POINT('',#367);
#367 = CARTESIAN_POINT('',(12.,-50.71,0.));
#368 = LINE('',#369,#370);
#369 = CARTESIAN_POINT('',(12.,-0.71,0.));
#370 = VECTOR('',#371,1.);
#371 = DIRECTION('',(0.,-1.,-3.3E-16));
#372 = ORIENTED_EDGE('',*,*,#373,.F.);
#373 = EDGE_CURVE('',#366,#366,#374,.T.);
#374 = CIRCLE('',#375,12.);
#375 = AXIS2_PLACEMENT_3D('',#376,#377,#378);
#376 = CARTESIAN_POINT('',(0.,-50.71,0.));
#377 = DIRECTION('',(0.,-1.,-2.2E-16));
#378 = DIRECTION('',(1.,0.,0.));
#379 = ORIENTED_EDGE('',*,*,#365,.F.);
#380 = CYLINDRICAL_SURFACE('',#381,12.);
#381 = AXIS2_PLACEMENT_3D('',#382,#383,#384);
#382 = CARTESIAN_POINT('',(0.,-0.71,0.));
#383 = DIRECTION('',(0.,1.,2.2E-16));
#384 = DIRECTION('',(1.,0.,0.));
#385 = ADVANCED_FACE('',(#386,#392),#395,.T.);
#386 = FACE_BOUND('',#387,.F.);
#387 = EDGE_LOOP('',(#388,#389,#390,#391));
#388 = ORIENTED_EDGE('',*,*,#230,.T.);
#389 = ORIENTED_EDGE('',*,*,#289,.T.);
#390 = ORIENTED_EDGE('',*,*,#320,.T.);
#391 = ORIENTED_EDGE('',*,*,#342,.T.);
#392 = FACE_BOUND('',#393,.T.);
#393 = EDGE_LOOP('',(#394));
#394 = ORIENTED_EDGE('',*,*,#356,.T.);
#395 = PLANE('',#396);
#396 = AXIS2_PLACEMENT_3D('',#397,#398,#399);
#397 = CARTESIAN_POINT('',(0.,-0.71,-4.188649717));
#398 = DIRECTION('',(1.E-17,1.,2.2E-16));
#399 = DIRECTION('',(0.,-2.2E-16,1.));
#400 = ADVANCED_FACE('',(#401,#407),#410,.F.);
#401 = FACE_BOUND('',#402,.T.);
#402 = EDGE_LOOP('',(#403,#404,#405,#406));
#403 = ORIENTED_EDGE('',*,*,#249,.T.);
#404 = ORIENTED_EDGE('',*,*,#273,.T.);
#405 = ORIENTED_EDGE('',*,*,#304,.T.);
#406 = ORIENTED_EDGE('',*,*,#335,.T.);
#407 = FACE_BOUND('',#408,.F.);
#408 = EDGE_LOOP('',(#409));
#409 = ORIENTED_EDGE('',*,*,#373,.T.);
#410 = PLANE('',#411);
#411 = AXIS2_PLACEMENT_3D('',#412,#413,#414);
#412 = CARTESIAN_POINT('',(0.,-50.71,-4.188649717));
#413 = DIRECTION('',(1.E-17,1.,2.2E-16));
#414 = DIRECTION('',(0.,-2.2E-16,1.));
#415 = MANIFOLD_SOLID_BREP('',#416);
#416 = CLOSED_SHELL('',(#417,#459,#490,#521,#543,#576,#591));
#417 = ADVANCED_FACE('',(#418),#454,.T.);
#418 = FACE_BOUND('',#419,.T.);
#419 = EDGE_LOOP('',(#420,#431,#439,#448));
#420 = ORIENTED_EDGE('',*,*,#421,.T.);
#421 = EDGE_CURVE('',#422,#424,#426,.T.);
#422 = VERTEX_POINT('',#423);
#423 = CARTESIAN_POINT('',(24.,849.29,0.));
#424 = VERTEX_POINT('',#425);
#425 = CARTESIAN_POINT('',(-24.,849.29,0.));
#426 = CIRCLE('',#427,24.);
#427 = AXIS2_PLACEMENT_3D('',#428,#429,#430);
#428 = CARTESIAN_POINT('',(0.,849.29,0.));
#429 = DIRECTION('',(0.,-1.,-2.2E-16));
#430 = DIRECTION('',(1.,0.,0.));
#431 = ORIENTED_EDGE('',*,*,#432,.T.);
#432 = EDGE_CURVE('',#424,#433,#435,.T.);
#433 = VERTEX_POINT('',#434);
#434 = CARTESIAN_POINT('',(-24.,799.29,0.));
#435 = LINE('',#436,#437);
#436 = CARTESIAN_POINT('',(-24.,849.29,0.));
#437 = VECTOR('',#438,1.);
#438 = DIRECTION('',(0.,-1.,-3.3E-16));
#439 = ORIENTED_EDGE('',*,*,#440,.F.);
#440 = EDGE_CURVE('',#441,#433,#443,.T.);
#441 = VERTEX_POINT('',#442);
#442 = CARTESIAN_POINT('',(24.,799.29,0.));
#443 = CIRCLE('',#444,24.);
#444 = AXIS2_PLACEMENT_3D('',#445,#446,#447);
#445 = CARTESIAN_POINT('',(0.,799.29,0.));
#446 = DIRECTION('',(0.,-1.,-2.2E-16));
#447 = DIRECTION('',(1.,0.,0.));
#448 = ORIENTED_EDGE('',*,*,#449,.F.);
#449 = EDGE_CURVE('',#422,#441,#450,.T.);
#450 = LINE('',#451,#452);
#451 = CARTESIAN_POINT('',(24.,849.29,0.));
#452 = VECTOR('',#453,1.);
#453 = DIRECTION('',(0.,-1.,-3.3E-16));
#454 = CYLINDRICAL_SURFACE('',#455,24.);
#455 = AXIS2_PLACEMENT_3D('',#456,#457,#458);
#456 = CARTESIAN_POINT('',(0.,849.29,0.));
#457 = DIRECTION('',(0.,1.,2.2E-16));
#458 = DIRECTION('',(1.,0.,0.));
#459 = ADVANCED_FACE('',(#460),#485,.F.);
#460 = FACE_BOUND('',#461,.F.);
#461 = EDGE_LOOP('',(#462,#463,#471,#479));
#462 = ORIENTED_EDGE('',*,*,#432,.T.);
#463 = ORIENTED_EDGE('',*,*,#464,.T.);
#464 = EDGE_CURVE('',#433,#465,#467,.T.);
#465 = VERTEX_POINT('',#466);
#466 = CARTESIAN_POINT('',(-24.,799.29,-26.599501678));
#467 = LINE('',#468,#469);
#468 = CARTESIAN_POINT('',(-24.,799.29,0.));
#469 = VECTOR('',#470,1.);
#470 = DIRECTION('',(0.,2.2E-16,-1.));
#471 = ORIENTED_EDGE('',*,*,#472,.F.);
#472 = EDGE_CURVE('',#473,#465,#475,.T.);
#473 = VERTEX_POINT('',#474);
#474 = CARTESIAN_POINT('',(-24.,849.29,-26.599501678));
#475 = LINE('',#476,#477);
#476 = CARTESIAN_POINT('',(-24.,849.29,-26.599501678));
#477 = VECTOR('',#478,1.);
#478 = DIRECTION('',(0.,-1.,-3.3E-16));
#479 = ORIENTED_EDGE('',*,*,#480,.F.);
#480 = EDGE_CURVE('',#424,#473,#481,.T.);
#481 = LINE('',#482,#483);
#482 = CARTESIAN_POINT('',(-24.,849.29,0.));
#483 = VECTOR('',#484,1.);
#484 = DIRECTION('',(0.,2.2E-16,-1.));
#485 = PLANE('',#486);
#486 = AXIS2_PLACEMENT_3D('',#487,#488,#489);
#487 = CARTESIAN_POINT('',(-24.,849.29,0.));
#488 = DIRECTION('',(1.,0.,0.));
#489 = DIRECTION('',(0.,2.2E-16,-1.));
#490 = ADVANCED_FACE('',(#491),#516,.F.);
#491 = FACE_BOUND('',#492,.F.);
#492 = EDGE_LOOP('',(#493,#494,#502,#510));
#493 = ORIENTED_EDGE('',*,*,#472,.T.);
#494 = ORIENTED_EDGE('',*,*,#495,.T.);
#495 = EDGE_CURVE('',#465,#496,#498,.T.);
#496 = VERTEX_POINT('',#497);
#497 = CARTESIAN_POINT('',(24.,799.29,-26.599501678));
#498 = LINE('',#499,#500);
#499 = CARTESIAN_POINT('',(-24.,799.29,-26.599501678));
#500 = VECTOR('',#501,1.);
#501 = DIRECTION('',(1.,0.,0.));
#502 = ORIENTED_EDGE('',*,*,#503,.F.);
#503 = EDGE_CURVE('',#504,#496,#506,.T.);
#504 = VERTEX_POINT('',#505);
#505 = CARTESIAN_POINT('',(24.,849.29,-26.599501678));
#506 = LINE('',#507,#508);
#507 = CARTESIAN_POINT('',(24.,849.29,-26.599501678));
#508 = VECTOR('',#509,1.);
#509 = DIRECTION('',(0.,-1.,-3.3E-16));
#510 = ORIENTED_EDGE('',*,*,#511,.F.);
#511 = EDGE_CURVE('',#473,#504,#512,.T.);
#512 = LINE('',#513,#514);
#513 = CARTESIAN_POINT('',(-24.,849.29,-26.599501678));
#514 = VECTOR('',#515,1.);
#515 = DIRECTION('',(1.,0.,0.));
#516 = PLANE('',#517);
#517 = AXIS2_PLACEMENT_3D('',#518,#519,#520);
#518 = CARTESIAN_POINT('',(-24.,849.29,-26.599501678));
#519 = DIRECTION('',(0.,-3.3E-16,1.));
#520 = DIRECTION('',(1.,0.,0.));
#521 = ADVANCED_FACE('',(#522),#538,.F.);
#522 = FACE_BOUND('',#523,.F.);
#523 = EDGE_LOOP('',(#524,#525,#531,#532));
#524 = ORIENTED_EDGE('',*,*,#503,.T.);
#525 = ORIENTED_EDGE('',*,*,#526,.T.);
#526 = EDGE_CURVE('',#496,#441,#527,.T.);
#527 = LINE('',#528,#529);
#528 = CARTESIAN_POINT('',(24.,799.29,-26.599501678));
#529 = VECTOR('',#530,1.);
#530 = DIRECTION('',(0.,-2.2E-16,1.));
#531 = ORIENTED_EDGE('',*,*,#449,.F.);
#532 = ORIENTED_EDGE('',*,*,#533,.F.);
#533 = EDGE_CURVE('',#504,#422,#534,.T.);
#534 = LINE('',#535,#536);
#535 = CARTESIAN_POINT('',(24.,849.29,-26.599501678));
#536 = VECTOR('',#537,1.);
#537 = DIRECTION('',(0.,-2.2E-16,1.));
#538 = PLANE('',#539);
#539 = AXIS2_PLACEMENT_3D('',#540,#541,#542);
#540 = CARTESIAN_POINT('',(24.,849.29,-26.599501678));
#541 = DIRECTION('',(-1.,0.,0.));
#542 = DIRECTION('',(0.,-2.2E-16,1.));
#543 = ADVANCED_FACE('',(#544),#571,.F.);
#544 = FACE_BOUND('',#545,.F.);
#545 = EDGE_LOOP('',(#546,#555,#563,#570));
#546 = ORIENTED_EDGE('',*,*,#547,.T.);
#547 = EDGE_CURVE('',#548,#548,#550,.T.);
#548 = VERTEX_POINT('',#549);
#549 = CARTESIAN_POINT('',(12.,849.29,0.));
#550 = CIRCLE('',#551,12.);
#551 = AXIS2_PLACEMENT_3D('',#552,#553,#554);
#552 = CARTESIAN_POINT('',(0.,849.29,0.));
#553 = DIRECTION('',(0.,-1.,-2.2E-16));
#554 = DIRECTION('',(1.,0.,0.));
#555 = ORIENTED_EDGE('',*,*,#556,.T.);
#556 = EDGE_CURVE('',#548,#557,#559,.T.);
#557 = VERTEX_POINT('',#558);
#558 = CARTESIAN_POINT('',(12.,799.29,0.));
#559 = LINE('',#560,#561);
#560 = CARTESIAN_POINT('',(12.,849.29,0.));
#561 = VECTOR('',#562,1.);
#562 = DIRECTION('',(0.,-1.,-3.3E-16));
#563 = ORIENTED_EDGE('',*,*,#564,.F.);
#564 = EDGE_CURVE('',#557,#557,#565,.T.);
#565 = CIRCLE('',#566,12.);
#566 = AXIS2_PLACEMENT_3D('',#567,#568,#569);
#567 = CARTESIAN_POINT('',(0.,799.29,0.));
#568 = DIRECTION('',(0.,-1.,-2.2E-16));
#569 = DIRECTION('',(1.,0.,0.));
#570 = ORIENTED_EDGE('',*,*,#556,.F.);
#571 = CYLINDRICAL_SURFACE('',#572,12.);
#572 = AXIS2_PLACEMENT_3D('',#573,#574,#575);
#573 = CARTESIAN_POINT('',(0.,849.29,0.));
#574 = DIRECTION('',(0.,1.,2.2E-16));
#575 = DIRECTION('',(1.,0.,0.));
#576 = ADVANCED_FACE('',(#577,#583),#586,.T.);
#577 = FACE_BOUND('',#578,.F.);
#578 = EDGE_LOOP('',(#579,#580,#581,#582));
#579 = ORIENTED_EDGE('',*,*,#421,.T.);
#580 = ORIENTED_EDGE('',*,*,#480,.T.);
#581 = ORIENTED_EDGE('',*,*,#511,.T.);
#582 = ORIENTED_EDGE('',*,*,#533,.T.);
#583 = FACE_BOUND('',#584,.T.);
#584 = EDGE_LOOP('',(#585));
#585 = ORIENTED_EDGE('',*,*,#547,.T.);
#586 = PLANE('',#587);
#587 = AXIS2_PLACEMENT_3D('',#588,#589,#590);
#588 = CARTESIAN_POINT('',(0.,849.29,-4.188649717));
#589 = DIRECTION('',(1.E-17,1.,2.2E-16));
#590 = DIRECTION('',(0.,-2.2E-16,1.));
#591 = ADVANCED_FACE('',(#592,#598),#601,.F.);
#592 = FACE_BOUND('',#593,.T.);
#593 = EDGE_LOOP('',(#594,#595,#596,#597));
#594 = ORIENTED_EDGE('',*,*,#440,.T.);
#595 = ORIENTED_EDGE('',*,*,#464,.T.);
#596 = ORIENTED_EDGE('',*,*,#495,.T.);
#597 = ORIENTED_EDGE('',*,*,#526,.T.);
#598 = FACE_BOUND('',#599,.F.);
#599 = EDGE_LOOP('',(#600));
#600 = ORIENTED_EDGE('',*,*,#564,.T.);
#601 = PLANE('',#602);
#602 = AXIS2_PLACEMENT_3D('',#603,#604,#605);
#603 = CARTESIAN_POINT('',(0.,799.29,-4.188649717));
#604 = DIRECTION('',(1.E-17,1.,2.2E-16));
#605 = DIRECTION('',(0.,-2.2E-16,1.));
#606 = MANIFOLD_SOLID_BREP('',#607);
#607 = CLOSED_SHELL('',(#608,#648,#679,#710,#732,#744));
#608 = ADVANCED_FACE('',(#609),#643,.F.);
#609 = FACE_BOUND('',#610,.F.);
#610 = EDGE_LOOP('',(#611,#621,#629,#637));
#611 = ORIENTED_EDGE('',*,*,#612,.T.);
#612 = EDGE_CURVE('',#613,#615,#617,.T.);
#613 = VERTEX_POINT('',#614);
#614 = CARTESIAN_POINT('',(-24.99834505236,1.1E+03,-1.270546889E+03));
#615 = VERTEX_POINT('',#616);
#616 = CARTESIAN_POINT('',(-24.99834505236,-1.1E+03,-1.270546889E+03));
#617 = LINE('',#618,#619);
#618 = CARTESIAN_POINT('',(-24.99834505236,1.1E+03,-1.270546889E+03));
#619 = VECTOR('',#620,1.);
#620 = DIRECTION('',(0.,-1.,2.2E-16));
#621 = ORIENTED_EDGE('',*,*,#622,.T.);
#622 = EDGE_CURVE('',#615,#623,#625,.T.);
#623 = VERTEX_POINT('',#624);
#624 = CARTESIAN_POINT('',(25.00165494764,-1.1E+03,-1.270546889E+03));
#625 = LINE('',#626,#627);
#626 = CARTESIAN_POINT('',(-24.99834505236,-1.1E+03,-1.270546889E+03));
#627 = VECTOR('',#628,1.);
#628 = DIRECTION('',(1.,0.,0.));
#629 = ORIENTED_EDGE('',*,*,#630,.F.);
#630 = EDGE_CURVE('',#631,#623,#633,.T.);
#631 = VERTEX_POINT('',#632);
#632 = CARTESIAN_POINT('',(25.00165494764,1.1E+03,-1.270546889E+03));
#633 = LINE('',#634,#635);
#634 = CARTESIAN_POINT('',(25.00165494764,1.1E+03,-1.270546889E+03));
#635 = VECTOR('',#636,1.);
#636 = DIRECTION('',(0.,-1.,2.2E-16));
#637 = ORIENTED_EDGE('',*,*,#638,.F.);
#638 = EDGE_CURVE('',#613,#631,#639,.T.);
#639 = LINE('',#640,#641);
#640 = CARTESIAN_POINT('',(-24.99834505236,1.1E+03,-1.270546889E+03));
#641 = VECTOR('',#642,1.);
#642 = DIRECTION('',(1.,0.,0.));
#643 = PLANE('',#644);
#644 = AXIS2_PLACEMENT_3D('',#645,#646,#647);
#645 = CARTESIAN_POINT('',(-24.99834505236,1.1E+03,-1.270546889E+03));
#646 = DIRECTION('',(0.,2.2E-16,1.));
#647 = DIRECTION('',(1.,0.,0.));
#648 = ADVANCED_FACE('',(#649),#674,.F.);
#649 = FACE_BOUND('',#650,.F.);
#650 = EDGE_LOOP('',(#651,#652,#660,#668));
#651 = ORIENTED_EDGE('',*,*,#630,.T.);
#652 = ORIENTED_EDGE('',*,*,#653,.T.);
#653 = EDGE_CURVE('',#623,#654,#656,.T.);
#654 = VERTEX_POINT('',#655);
#655 = CARTESIAN_POINT('',(25.00165494764,-1.1E+03,-26.996489));
#656 = LINE('',#657,#658);
#657 = CARTESIAN_POINT('',(25.00165494764,-1.1E+03,-1.270546889E+03));
#658 = VECTOR('',#659,1.);
#659 = DIRECTION('',(0.,-2.2E-16,1.));
#660 = ORIENTED_EDGE('',*,*,#661,.F.);
#661 = EDGE_CURVE('',#662,#654,#664,.T.);
#662 = VERTEX_POINT('',#663);
#663 = CARTESIAN_POINT('',(25.00165494764,1.1E+03,-26.996489));
#664 = LINE('',#665,#666);
#665 = CARTESIAN_POINT('',(25.00165494764,1.1E+03,-26.996489));
#666 = VECTOR('',#667,1.);
#667 = DIRECTION('',(0.,-1.,2.2E-16));
#668 = ORIENTED_EDGE('',*,*,#669,.F.);
#669 = EDGE_CURVE('',#631,#662,#670,.T.);
#670 = LINE('',#671,#672);
#671 = CARTESIAN_POINT('',(25.00165494764,1.1E+03,-1.270546889E+03));
#672 = VECTOR('',#673,1.);
#673 = DIRECTION('',(0.,-2.2E-16,1.));
#674 = PLANE('',#675);
#675 = AXIS2_PLACEMENT_3D('',#676,#677,#678);
#676 = CARTESIAN_POINT('',(25.00165494764,1.1E+03,-1.270546889E+03));
#677 = DIRECTION('',(-1.,0.,0.));
#678 = DIRECTION('',(0.,2.2E-16,1.));
#679 = ADVANCED_FACE('',(#680),#705,.F.);
#680 = FACE_BOUND('',#681,.F.);
#681 = EDGE_LOOP('',(#682,#683,#691,#699));
#682 = ORIENTED_EDGE('',*,*,#661,.T.);
#683 = ORIENTED_EDGE('',*,*,#684,.T.);
#684 = EDGE_CURVE('',#654,#685,#687,.T.);
#685 = VERTEX_POINT('',#686);
#686 = CARTESIAN_POINT('',(-24.99834505236,-1.1E+03,-26.996489));
#687 = LINE('',#688,#689);
#688 = CARTESIAN_POINT('',(25.00165494764,-1.1E+03,-26.996489));
#689 = VECTOR('',#690,1.);
#690 = DIRECTION('',(-1.,0.,0.));
#691 = ORIENTED_EDGE('',*,*,#692,.F.);
#692 = EDGE_CURVE('',#693,#685,#695,.T.);
#693 = VERTEX_POINT('',#694);
#694 = CARTESIAN_POINT('',(-24.99834505236,1.1E+03,-26.996489));
#695 = LINE('',#696,#697);
#696 = CARTESIAN_POINT('',(-24.99834505236,1.1E+03,-26.996489));
#697 = VECTOR('',#698,1.);
#698 = DIRECTION('',(0.,-1.,2.2E-16));
#699 = ORIENTED_EDGE('',*,*,#700,.F.);
#700 = EDGE_CURVE('',#662,#693,#701,.T.);
#701 = LINE('',#702,#703);
#702 = CARTESIAN_POINT('',(25.00165494764,1.1E+03,-26.996489));
#703 = VECTOR('',#704,1.);
#704 = DIRECTION('',(-1.,0.,0.));
#705 = PLANE('',#706);
#706 = AXIS2_PLACEMENT_3D('',#707,#708,#709);
#707 = CARTESIAN_POINT('',(25.00165494764,1.1E+03,-26.996489));
#708 = DIRECTION('',(0.,-2.2E-16,-1.));
#709 = DIRECTION('',(-1.,0.,0.));
#710 = ADVANCED_FACE('',(#711),#727,.F.);
#711 = FACE_BOUND('',#712,.F.);
#712 = EDGE_LOOP('',(#713,#714,#720,#721));
#713 = ORIENTED_EDGE('',*,*,#692,.T.);
#714 = ORIENTED_EDGE('',*,*,#715,.T.);
#715 = EDGE_CURVE('',#685,#615,#716,.T.);
#716 = LINE('',#717,#718);
#717 = CARTESIAN_POINT('',(-24.99834505236,-1.1E+03,-26.996489));
#718 = VECTOR('',#719,1.);
#719 = DIRECTION('',(0.,2.2E-16,-1.));
#720 = ORIENTED_EDGE('',*,*,#612,.F.);
#721 = ORIENTED_EDGE('',*,*,#722,.F.);
#722 = EDGE_CURVE('',#693,#613,#723,.T.);
#723 = LINE('',#724,#725);
#724 = CARTESIAN_POINT('',(-24.99834505236,1.1E+03,-26.996489));
#725 = VECTOR('',#726,1.);
#726 = DIRECTION('',(0.,2.2E-16,-1.));
#727 = PLANE('',#728);
#728 = AXIS2_PLACEMENT_3D('',#729,#730,#731);
#729 = CARTESIAN_POINT('',(-24.99834505236,1.1E+03,-26.996489));
#730 = DIRECTION('',(1.,0.,0.));
#731 = DIRECTION('',(0.,-2.2E-16,-1.));
#732 = ADVANCED_FACE('',(#733),#739,.T.);
#733 = FACE_BOUND('',#734,.F.);
#734 = EDGE_LOOP('',(#735,#736,#737,#738));
#735 = ORIENTED_EDGE('',*,*,#638,.T.);
#736 = ORIENTED_EDGE('',*,*,#669,.T.);
#737 = ORIENTED_EDGE('',*,*,#700,.T.);
#738 = ORIENTED_EDGE('',*,*,#722,.T.);
#739 = PLANE('',#740);
#740 = AXIS2_PLACEMENT_3D('',#741,#742,#743);
#741 = CARTESIAN_POINT('',(1.654947639963E-03,1.1E+03,-648.771689));
#742 = DIRECTION('',(0.,1.,0.));
#743 = DIRECTION('',(0.,0.,1.));
#744 = ADVANCED_FACE('',(#745),#751,.F.);
#745 = FACE_BOUND('',#746,.T.);
#746 = EDGE_LOOP('',(#747,#748,#749,#750));
#747 = ORIENTED_EDGE('',*,*,#622,.T.);
#748 = ORIENTED_EDGE('',*,*,#653,.T.);
#749 = ORIENTED_EDGE('',*,*,#684,.T.);
#750 = ORIENTED_EDGE('',*,*,#715,.T.);
#751 = PLANE('',#752);
#752 = AXIS2_PLACEMENT_3D('',#753,#754,#755);
#753 = CARTESIAN_POINT('',(1.654947639963E-03,-1.1E+03,-648.771689));
#754 = DIRECTION('',(0.,1.,0.));
#755 = DIRECTION('',(0.,0.,1.));
#756 = ( GEOMETRIC_REPRESENTATION_CONTEXT(3) 
GLOBAL_UNCERTAINTY_ASSIGNED_CONTEXT((#760)) GLOBAL_UNIT_ASSIGNED_CONTEXT
((#757,#758,#759)) REPRESENTATION_CONTEXT('Context #1',
  '3D Context with UNIT and UNCERTAINTY') );
#757 = ( LENGTH_UNIT() NAMED_UNIT(*) SI_UNIT(.MILLI.,.METRE.) );
#758 = ( NAMED_UNIT(*) PLANE_ANGLE_UNIT() SI_UNIT($,.RADIAN.) );
#759 = ( NAMED_UNIT(*) SI_UNIT($,.STERADIAN.) SOLID_ANGLE_UNIT() );
#760 = UNCERTAINTY_MEASURE_WITH_UNIT(LENGTH_MEASURE(1.E-07),#757,
  'distance_accuracy_value','confusion accuracy');
#761 = CONTEXT_DEPENDENT_SHAPE_REPRESENTATION(#762,#764);
#762 = ( REPRESENTATION_RELATIONSHIP('','',#32,#10) 
REPRESENTATION_RELATIONSHIP_WITH_TRANSFORMATION(#763) 
SHAPE_REPRESENTATION_RELATIONSHIP() );
#763 = ITEM_DEFINED_TRANSFORMATION('','',#11,#15);
#764 = PRODUCT_DEFINITION_SHAPE('Placement','Placement of an item',#765
  );
#765 = NEXT_ASSEMBLY_USAGE_OCCURRENCE('1','Compound001','',#5,#27,$);
#766 = PRODUCT_RELATED_PRODUCT_CATEGORY('part',$,(#29));
#767 = MECHANICAL_DESIGN_GEOMETRIC_PRESENTATION_REPRESENTATION('',(#768,
    #781,#792,#803),#756);
#768 = STYLED_ITEM('color',(#769),#33);
#769 = PRESENTATION_STYLE_ASSIGNMENT((#770,#778));
#770 = SURFACE_STYLE_USAGE(.BOTH.,#771);
#771 = SURFACE_SIDE_STYLE('',(#772,#776));
#772 = SURFACE_STYLE_FILL_AREA(#773);
#773 = FILL_AREA_STYLE('',(#774));
#774 = FILL_AREA_STYLE_COLOUR('',#775);
#775 = COLOUR_RGB('',0.666666687201,1.,0.);
#776 = SURFACE_STYLE_RENDERING_WITH_PROPERTIES(.NORMAL_SHADING.,#775,(
    #777));
#777 = SURFACE_STYLE_TRANSPARENT(0.5);
#778 = CURVE_STYLE('',#779,POSITIVE_LENGTH_MEASURE(0.1),#780);
#779 = DRAUGHTING_PRE_DEFINED_CURVE_FONT('continuous');
#780 = COLOUR_RGB('',9.803921802644E-02,9.803921802644E-02,
  9.803921802644E-02);
#781 = STYLED_ITEM('color',(#782),#224);
#782 = PRESENTATION_STYLE_ASSIGNMENT((#783,#790));
#783 = SURFACE_STYLE_USAGE(.BOTH.,#784);
#784 = SURFACE_SIDE_STYLE('',(#785,#788));
#785 = SURFACE_STYLE_FILL_AREA(#786);
#786 = FILL_AREA_STYLE('',(#787));
#787 = FILL_AREA_STYLE_COLOUR('',#775);
#788 = SURFACE_STYLE_RENDERING_WITH_PROPERTIES(.NORMAL_SHADING.,#775,(
    #789));
#789 = SURFACE_STYLE_TRANSPARENT(0.5);
#790 = CURVE_STYLE('',#791,POSITIVE_LENGTH_MEASURE(0.1),#780);
#791 = DRAUGHTING_PRE_DEFINED_CURVE_FONT('continuous');
#792 = STYLED_ITEM('color',(#793),#415);
#793 = PRESENTATION_STYLE_ASSIGNMENT((#794,#801));
#794 = SURFACE_STYLE_USAGE(.BOTH.,#795);
#795 = SURFACE_SIDE_STYLE('',(#796,#799));
#796 = SURFACE_STYLE_FILL_AREA(#797);
#797 = FILL_AREA_STYLE('',(#798));
#798 = FILL_AREA_STYLE_COLOUR('',#775);
#799 = SURFACE_STYLE_RENDERING_WITH_PROPERTIES(.NORMAL_SHADING.,#775,(
    #800));
#800 = SURFACE_STYLE_TRANSPARENT(0.5);
#801 = CURVE_STYLE('',#802,POSITIVE_LENGTH_MEASURE(0.1),#780);
#802 = DRAUGHTING_PRE_DEFINED_CURVE_FONT('continuous');
#803 = STYLED_ITEM('color',(#804),#606);
#804 = PRESENTATION_STYLE_ASSIGNMENT((#805,#812));
#805 = SURFACE_STYLE_USAGE(.BOTH.,#806);
#806 = SURFACE_SIDE_STYLE('',(#807,#810));
#807 = SURFACE_STYLE_FILL_AREA(#808);
#808 = FILL_AREA_STYLE('',(#809));
#809 = FILL_AREA_STYLE_COLOUR('',#775);
#810 = SURFACE_STYLE_RENDERING_WITH_PROPERTIES(.NORMAL_SHADING.,#775,(
    #811));
#811 = SURFACE_STYLE_TRANSPARENT(0.5);
#812 = CURVE_STYLE('',#813,POSITIVE_LENGTH_MEASURE(0.1),#780);
#813 = DRAUGHTING_PRE_DEFINED_CURVE_FONT('continuous');
ENDSEC;
END-ISO-10303-21;
