ISO-10303-21;
HEADER;
FILE_DESCRIPTION(('FreeCAD Model'),'2;1');
FILE_NAME('Open CASCADE Shape Model','2026-08-02T12:38:24',(''),(''),
  'Open CASCADE STEP processor 7.8','FreeCAD','Unknown');
FILE_SCHEMA(('AUTOMOTIVE_DESIGN { 1 0 10303 214 1 1 1 1 }'));
ENDSEC;
DATA;
#1 = APPLICATION_PROTOCOL_DEFINITION('international standard',
  'automotive_design',2000,#2);
#2 = APPLICATION_CONTEXT(
  'core data for automotive mechanical design processes');
#3 = SHAPE_DEFINITION_REPRESENTATION(#4,#10);
#4 = PRODUCT_DEFINITION_SHAPE('','',#5);
#5 = PRODUCT_DEFINITION('design','',#6,#9);
#6 = PRODUCT_DEFINITION_FORMATION('','',#7);
#7 = PRODUCT('cylinder_body','cylinder_body','',(#8));
#8 = PRODUCT_CONTEXT('',#2,'mechanical');
#9 = PRODUCT_DEFINITION_CONTEXT('part definition',#2,'design');
#10 = ADVANCED_BREP_SHAPE_REPRESENTATION('',(#11,#15),#381);
#11 = AXIS2_PLACEMENT_3D('',#12,#13,#14);
#12 = CARTESIAN_POINT('',(0.,0.,0.));
#13 = DIRECTION('',(0.,0.,1.));
#14 = DIRECTION('',(1.,0.,-0.));
#15 = MANIFOLD_SOLID_BREP('',#16);
#16 = CLOSED_SHELL('',(#17,#34,#104,#127,#142,#165,#188,#203,#226,#258,
    #296,#321,#352,#364));
#17 = ADVANCED_FACE('',(#18),#29,.T.);
#18 = FACE_BOUND('',#19,.F.);
#19 = EDGE_LOOP('',(#20));
#20 = ORIENTED_EDGE('',*,*,#21,.F.);
#21 = EDGE_CURVE('',#22,#22,#24,.T.);
#22 = VERTEX_POINT('',#23);
#23 = CARTESIAN_POINT('',(873.58296816481,2.5E-14,75.));
#24 = CIRCLE('',#25,75.);
#25 = AXIS2_PLACEMENT_3D('',#26,#27,#28);
#26 = CARTESIAN_POINT('',(873.58296816481,0.,0.));
#27 = DIRECTION('',(1.,0.,-0.));
#28 = DIRECTION('',(0.,7.7E-16,1.));
#29 = PLANE('',#30);
#30 = AXIS2_PLACEMENT_3D('',#31,#32,#33);
#31 = CARTESIAN_POINT('',(873.58296816481,0.,0.));
#32 = DIRECTION('',(1.,0.,0.));
#33 = DIRECTION('',(-0.,7.7E-16,1.));
#34 = ADVANCED_FACE('',(#35),#99,.T.);
#35 = FACE_BOUND('',#36,.T.);
#36 = EDGE_LOOP('',(#37,#48,#57,#66,#75,#84,#91,#97,#98));
#37 = ORIENTED_EDGE('',*,*,#38,.T.);
#38 = EDGE_CURVE('',#39,#41,#43,.T.);
#39 = VERTEX_POINT('',#40);
#40 = CARTESIAN_POINT('',(73.58296816481,2.5E-14,75.));
#41 = VERTEX_POINT('',#42);
#42 = CARTESIAN_POINT('',(73.58296816481,-14.99999999999,73.484692283496
    ));
#43 = CIRCLE('',#44,75.);
#44 = AXIS2_PLACEMENT_3D('',#45,#46,#47);
#45 = CARTESIAN_POINT('',(73.58296816481,0.,0.));
#46 = DIRECTION('',(1.,0.,-0.));
#47 = DIRECTION('',(0.,7.7E-16,1.));
#48 = ORIENTED_EDGE('',*,*,#49,.T.);
#49 = EDGE_CURVE('',#41,#50,#52,.T.);
#50 = VERTEX_POINT('',#51);
#51 = CARTESIAN_POINT('',(73.58296816481,-15.,-73.48469228349));
#52 = CIRCLE('',#53,75.);
#53 = AXIS2_PLACEMENT_3D('',#54,#55,#56);
#54 = CARTESIAN_POINT('',(73.58296816481,0.,0.));
#55 = DIRECTION('',(1.,0.,-0.));
#56 = DIRECTION('',(0.,7.7E-16,1.));
#57 = ORIENTED_EDGE('',*,*,#58,.T.);
#58 = EDGE_CURVE('',#50,#59,#61,.T.);
#59 = VERTEX_POINT('',#60);
#60 = CARTESIAN_POINT('',(73.58296816481,-1.E-15,-75.));
#61 = CIRCLE('',#62,75.);
#62 = AXIS2_PLACEMENT_3D('',#63,#64,#65);
#63 = CARTESIAN_POINT('',(73.58296816481,0.,0.));
#64 = DIRECTION('',(1.,0.,-0.));
#65 = DIRECTION('',(0.,7.7E-16,1.));
#66 = ORIENTED_EDGE('',*,*,#67,.T.);
#67 = EDGE_CURVE('',#59,#68,#70,.T.);
#68 = VERTEX_POINT('',#69);
#69 = CARTESIAN_POINT('',(73.58296816481,15.000000000001,-73.48469228349
    ));
#70 = CIRCLE('',#71,75.);
#71 = AXIS2_PLACEMENT_3D('',#72,#73,#74);
#72 = CARTESIAN_POINT('',(73.58296816481,0.,0.));
#73 = DIRECTION('',(1.,0.,-0.));
#74 = DIRECTION('',(0.,7.7E-16,1.));
#75 = ORIENTED_EDGE('',*,*,#76,.T.);
#76 = EDGE_CURVE('',#68,#77,#79,.T.);
#77 = VERTEX_POINT('',#78);
#78 = CARTESIAN_POINT('',(73.58296816481,14.999999999999,73.484692283496
    ));
#79 = CIRCLE('',#80,75.);
#80 = AXIS2_PLACEMENT_3D('',#81,#82,#83);
#81 = CARTESIAN_POINT('',(73.58296816481,0.,0.));
#82 = DIRECTION('',(1.,0.,-0.));
#83 = DIRECTION('',(0.,7.7E-16,1.));
#84 = ORIENTED_EDGE('',*,*,#85,.T.);
#85 = EDGE_CURVE('',#77,#39,#86,.T.);
#86 = CIRCLE('',#87,75.);
#87 = AXIS2_PLACEMENT_3D('',#88,#89,#90);
#88 = CARTESIAN_POINT('',(73.58296816481,0.,0.));
#89 = DIRECTION('',(1.,0.,-0.));
#90 = DIRECTION('',(0.,7.7E-16,1.));
#91 = ORIENTED_EDGE('',*,*,#92,.F.);
#92 = EDGE_CURVE('',#22,#39,#93,.T.);
#93 = LINE('',#94,#95);
#94 = CARTESIAN_POINT('',(873.58296816481,2.498E-14,75.));
#95 = VECTOR('',#96,1.);
#96 = DIRECTION('',(-1.,0.,0.));
#97 = ORIENTED_EDGE('',*,*,#21,.F.);
#98 = ORIENTED_EDGE('',*,*,#92,.T.);
#99 = CYLINDRICAL_SURFACE('',#100,75.);
#100 = AXIS2_PLACEMENT_3D('',#101,#102,#103);
#101 = CARTESIAN_POINT('',(873.58296816481,0.,0.));
#102 = DIRECTION('',(-1.,0.,-0.));
#103 = DIRECTION('',(0.,7.7E-16,1.));
#104 = ADVANCED_FACE('',(#105),#122,.F.);
#105 = FACE_BOUND('',#106,.F.);
#106 = EDGE_LOOP('',(#107,#108,#116));
#107 = ORIENTED_EDGE('',*,*,#38,.T.);
#108 = ORIENTED_EDGE('',*,*,#109,.T.);
#109 = EDGE_CURVE('',#41,#110,#112,.T.);
#110 = VERTEX_POINT('',#111);
#111 = CARTESIAN_POINT('',(73.58296816481,-15.,75.));
#112 = LINE('',#113,#114);
#113 = CARTESIAN_POINT('',(73.58296816481,-15.,-75.));
#114 = VECTOR('',#115,1.);
#115 = DIRECTION('',(0.,3.3E-16,1.));
#116 = ORIENTED_EDGE('',*,*,#117,.F.);
#117 = EDGE_CURVE('',#39,#110,#118,.T.);
#118 = LINE('',#119,#120);
#119 = CARTESIAN_POINT('',(73.58296816481,15.,75.));
#120 = VECTOR('',#121,1.);
#121 = DIRECTION('',(0.,-1.,3.3E-16));
#122 = PLANE('',#123);
#123 = AXIS2_PLACEMENT_3D('',#124,#125,#126);
#124 = CARTESIAN_POINT('',(73.58296816481,15.,-75.));
#125 = DIRECTION('',(-1.,0.,0.));
#126 = DIRECTION('',(0.,3.3E-16,1.));
#127 = ADVANCED_FACE('',(#128),#137,.F.);
#128 = FACE_BOUND('',#129,.T.);
#129 = EDGE_LOOP('',(#130,#131));
#130 = ORIENTED_EDGE('',*,*,#49,.F.);
#131 = ORIENTED_EDGE('',*,*,#132,.F.);
#132 = EDGE_CURVE('',#50,#41,#133,.T.);
#133 = LINE('',#134,#135);
#134 = CARTESIAN_POINT('',(73.58296816481,-15.,-75.));
#135 = VECTOR('',#136,1.);
#136 = DIRECTION('',(0.,3.3E-16,1.));
#137 = PLANE('',#138);
#138 = AXIS2_PLACEMENT_3D('',#139,#140,#141);
#139 = CARTESIAN_POINT('',(73.58296816481,0.,0.));
#140 = DIRECTION('',(1.,0.,0.));
#141 = DIRECTION('',(-0.,7.7E-16,1.));
#142 = ADVANCED_FACE('',(#143),#160,.F.);
#143 = FACE_BOUND('',#144,.F.);
#144 = EDGE_LOOP('',(#145,#146,#154));
#145 = ORIENTED_EDGE('',*,*,#58,.T.);
#146 = ORIENTED_EDGE('',*,*,#147,.T.);
#147 = EDGE_CURVE('',#59,#148,#150,.T.);
#148 = VERTEX_POINT('',#149);
#149 = CARTESIAN_POINT('',(73.58296816481,-15.,-75.));
#150 = LINE('',#151,#152);
#151 = CARTESIAN_POINT('',(73.58296816481,15.,-75.));
#152 = VECTOR('',#153,1.);
#153 = DIRECTION('',(0.,-1.,3.3E-16));
#154 = ORIENTED_EDGE('',*,*,#155,.T.);
#155 = EDGE_CURVE('',#148,#50,#156,.T.);
#156 = LINE('',#157,#158);
#157 = CARTESIAN_POINT('',(73.58296816481,-15.,-75.));
#158 = VECTOR('',#159,1.);
#159 = DIRECTION('',(0.,3.3E-16,1.));
#160 = PLANE('',#161);
#161 = AXIS2_PLACEMENT_3D('',#162,#163,#164);
#162 = CARTESIAN_POINT('',(73.58296816481,15.,-75.));
#163 = DIRECTION('',(-1.,0.,0.));
#164 = DIRECTION('',(0.,3.3E-16,1.));
#165 = ADVANCED_FACE('',(#166),#183,.F.);
#166 = FACE_BOUND('',#167,.F.);
#167 = EDGE_LOOP('',(#168,#176,#182));
#168 = ORIENTED_EDGE('',*,*,#169,.F.);
#169 = EDGE_CURVE('',#170,#68,#172,.T.);
#170 = VERTEX_POINT('',#171);
#171 = CARTESIAN_POINT('',(73.58296816481,15.,-75.));
#172 = LINE('',#173,#174);
#173 = CARTESIAN_POINT('',(73.58296816481,15.,-75.));
#174 = VECTOR('',#175,1.);
#175 = DIRECTION('',(0.,3.3E-16,1.));
#176 = ORIENTED_EDGE('',*,*,#177,.T.);
#177 = EDGE_CURVE('',#170,#59,#178,.T.);
#178 = LINE('',#179,#180);
#179 = CARTESIAN_POINT('',(73.58296816481,15.,-75.));
#180 = VECTOR('',#181,1.);
#181 = DIRECTION('',(0.,-1.,3.3E-16));
#182 = ORIENTED_EDGE('',*,*,#67,.T.);
#183 = PLANE('',#184);
#184 = AXIS2_PLACEMENT_3D('',#185,#186,#187);
#185 = CARTESIAN_POINT('',(73.58296816481,15.,-75.));
#186 = DIRECTION('',(-1.,0.,0.));
#187 = DIRECTION('',(0.,3.3E-16,1.));
#188 = ADVANCED_FACE('',(#189),#198,.F.);
#189 = FACE_BOUND('',#190,.T.);
#190 = EDGE_LOOP('',(#191,#197));
#191 = ORIENTED_EDGE('',*,*,#192,.T.);
#192 = EDGE_CURVE('',#68,#77,#193,.T.);
#193 = LINE('',#194,#195);
#194 = CARTESIAN_POINT('',(73.58296816481,15.,-75.));
#195 = VECTOR('',#196,1.);
#196 = DIRECTION('',(0.,3.3E-16,1.));
#197 = ORIENTED_EDGE('',*,*,#76,.F.);
#198 = PLANE('',#199);
#199 = AXIS2_PLACEMENT_3D('',#200,#201,#202);
#200 = CARTESIAN_POINT('',(73.58296816481,0.,0.));
#201 = DIRECTION('',(1.,0.,0.));
#202 = DIRECTION('',(-0.,7.7E-16,1.));
#203 = ADVANCED_FACE('',(#204),#221,.F.);
#204 = FACE_BOUND('',#205,.F.);
#205 = EDGE_LOOP('',(#206,#214,#215));
#206 = ORIENTED_EDGE('',*,*,#207,.F.);
#207 = EDGE_CURVE('',#77,#208,#210,.T.);
#208 = VERTEX_POINT('',#209);
#209 = CARTESIAN_POINT('',(73.58296816481,15.,75.));
#210 = LINE('',#211,#212);
#211 = CARTESIAN_POINT('',(73.58296816481,15.,-75.));
#212 = VECTOR('',#213,1.);
#213 = DIRECTION('',(0.,3.3E-16,1.));
#214 = ORIENTED_EDGE('',*,*,#85,.T.);
#215 = ORIENTED_EDGE('',*,*,#216,.F.);
#216 = EDGE_CURVE('',#208,#39,#217,.T.);
#217 = LINE('',#218,#219);
#218 = CARTESIAN_POINT('',(73.58296816481,15.,75.));
#219 = VECTOR('',#220,1.);
#220 = DIRECTION('',(0.,-1.,3.3E-16));
#221 = PLANE('',#222);
#222 = AXIS2_PLACEMENT_3D('',#223,#224,#225);
#223 = CARTESIAN_POINT('',(73.58296816481,15.,-75.));
#224 = DIRECTION('',(-1.,0.,0.));
#225 = DIRECTION('',(0.,3.3E-16,1.));
#226 = ADVANCED_FACE('',(#227),#253,.F.);
#227 = FACE_BOUND('',#228,.F.);
#228 = EDGE_LOOP('',(#229,#230,#231,#239,#247));
#229 = ORIENTED_EDGE('',*,*,#216,.T.);
#230 = ORIENTED_EDGE('',*,*,#117,.T.);
#231 = ORIENTED_EDGE('',*,*,#232,.T.);
#232 = EDGE_CURVE('',#110,#233,#235,.T.);
#233 = VERTEX_POINT('',#234);
#234 = CARTESIAN_POINT('',(-15.73789870985,-15.,36.773883996641));
#235 = LINE('',#236,#237);
#236 = CARTESIAN_POINT('',(73.58296816481,-15.,75.));
#237 = VECTOR('',#238,1.);
#238 = DIRECTION('',(-0.919347099916,-1.3E-16,-0.393447467746));
#239 = ORIENTED_EDGE('',*,*,#240,.F.);
#240 = EDGE_CURVE('',#241,#233,#243,.T.);
#241 = VERTEX_POINT('',#242);
#242 = CARTESIAN_POINT('',(-15.73789870985,15.,36.773883996641));
#243 = LINE('',#244,#245);
#244 = CARTESIAN_POINT('',(-15.73789870985,15.,36.773883996641));
#245 = VECTOR('',#246,1.);
#246 = DIRECTION('',(0.,-1.,3.3E-16));
#247 = ORIENTED_EDGE('',*,*,#248,.F.);
#248 = EDGE_CURVE('',#208,#241,#249,.T.);
#249 = LINE('',#250,#251);
#250 = CARTESIAN_POINT('',(73.58296816481,15.,75.));
#251 = VECTOR('',#252,1.);
#252 = DIRECTION('',(-0.919347099916,-1.3E-16,-0.393447467746));
#253 = PLANE('',#254);
#254 = AXIS2_PLACEMENT_3D('',#255,#256,#257);
#255 = CARTESIAN_POINT('',(73.58296816481,15.,75.));
#256 = DIRECTION('',(0.393447467746,-3.1E-16,-0.919347099916));
#257 = DIRECTION('',(-0.919347099916,-1.3E-16,-0.393447467746));
#258 = ADVANCED_FACE('',(#259,#280),#291,.F.);
#259 = FACE_BOUND('',#260,.T.);
#260 = EDGE_LOOP('',(#261,#262,#271,#277,#278,#279));
#261 = ORIENTED_EDGE('',*,*,#232,.T.);
#262 = ORIENTED_EDGE('',*,*,#263,.T.);
#263 = EDGE_CURVE('',#233,#264,#266,.T.);
#264 = VERTEX_POINT('',#265);
#265 = CARTESIAN_POINT('',(-15.73789870984,-15.,-36.77388399664));
#266 = CIRCLE('',#267,40.);
#267 = AXIS2_PLACEMENT_3D('',#268,#269,#270);
#268 = CARTESIAN_POINT('',(0.,-15.,5.33E-15));
#269 = DIRECTION('',(0.,-1.,3.3E-16));
#270 = DIRECTION('',(1.,0.,0.));
#271 = ORIENTED_EDGE('',*,*,#272,.T.);
#272 = EDGE_CURVE('',#264,#148,#273,.T.);
#273 = LINE('',#274,#275);
#274 = CARTESIAN_POINT('',(-15.73789870984,-15.,-36.77388399664));
#275 = VECTOR('',#276,1.);
#276 = DIRECTION('',(0.919347099916,-1.3E-16,-0.393447467746));
#277 = ORIENTED_EDGE('',*,*,#155,.T.);
#278 = ORIENTED_EDGE('',*,*,#132,.T.);
#279 = ORIENTED_EDGE('',*,*,#109,.T.);
#280 = FACE_BOUND('',#281,.F.);
#281 = EDGE_LOOP('',(#282));
#282 = ORIENTED_EDGE('',*,*,#283,.T.);
#283 = EDGE_CURVE('',#284,#284,#286,.T.);
#284 = VERTEX_POINT('',#285);
#285 = CARTESIAN_POINT('',(20.,-15.,5.E-15));
#286 = CIRCLE('',#287,20.);
#287 = AXIS2_PLACEMENT_3D('',#288,#289,#290);
#288 = CARTESIAN_POINT('',(0.,-15.,5.33E-15));
#289 = DIRECTION('',(0.,-1.,3.3E-16));
#290 = DIRECTION('',(1.,0.,0.));
#291 = PLANE('',#292);
#292 = AXIS2_PLACEMENT_3D('',#293,#294,#295);
#293 = CARTESIAN_POINT('',(25.843325437052,-15.,-2.8955E-13));
#294 = DIRECTION('',(0.,1.,-3.3E-16));
#295 = DIRECTION('',(0.,3.3E-16,1.));
#296 = ADVANCED_FACE('',(#297),#316,.F.);
#297 = FACE_BOUND('',#298,.F.);
#298 = EDGE_LOOP('',(#299,#307,#308,#309,#310));
#299 = ORIENTED_EDGE('',*,*,#300,.T.);
#300 = EDGE_CURVE('',#301,#264,#303,.T.);
#301 = VERTEX_POINT('',#302);
#302 = CARTESIAN_POINT('',(-15.73789870984,15.,-36.77388399664));
#303 = LINE('',#304,#305);
#304 = CARTESIAN_POINT('',(-15.73789870984,15.,-36.77388399664));
#305 = VECTOR('',#306,1.);
#306 = DIRECTION('',(0.,-1.,3.3E-16));
#307 = ORIENTED_EDGE('',*,*,#272,.T.);
#308 = ORIENTED_EDGE('',*,*,#147,.F.);
#309 = ORIENTED_EDGE('',*,*,#177,.F.);
#310 = ORIENTED_EDGE('',*,*,#311,.F.);
#311 = EDGE_CURVE('',#301,#170,#312,.T.);
#312 = LINE('',#313,#314);
#313 = CARTESIAN_POINT('',(-15.73789870984,15.,-36.77388399664));
#314 = VECTOR('',#315,1.);
#315 = DIRECTION('',(0.919347099916,-1.3E-16,-0.393447467746));
#316 = PLANE('',#317);
#317 = AXIS2_PLACEMENT_3D('',#318,#319,#320);
#318 = CARTESIAN_POINT('',(-15.73789870984,15.,-36.77388399664));
#319 = DIRECTION('',(0.393447467746,3.1E-16,0.919347099916));
#320 = DIRECTION('',(0.919347099916,-1.3E-16,-0.393447467746));
#321 = ADVANCED_FACE('',(#322,#336),#347,.T.);
#322 = FACE_BOUND('',#323,.F.);
#323 = EDGE_LOOP('',(#324,#325,#332,#333,#334,#335));
#324 = ORIENTED_EDGE('',*,*,#248,.T.);
#325 = ORIENTED_EDGE('',*,*,#326,.T.);
#326 = EDGE_CURVE('',#241,#301,#327,.T.);
#327 = CIRCLE('',#328,40.);
#328 = AXIS2_PLACEMENT_3D('',#329,#330,#331);
#329 = CARTESIAN_POINT('',(0.,15.,-5.33E-15));
#330 = DIRECTION('',(0.,-1.,3.3E-16));
#331 = DIRECTION('',(1.,0.,0.));
#332 = ORIENTED_EDGE('',*,*,#311,.T.);
#333 = ORIENTED_EDGE('',*,*,#169,.T.);
#334 = ORIENTED_EDGE('',*,*,#192,.T.);
#335 = ORIENTED_EDGE('',*,*,#207,.T.);
#336 = FACE_BOUND('',#337,.T.);
#337 = EDGE_LOOP('',(#338));
#338 = ORIENTED_EDGE('',*,*,#339,.T.);
#339 = EDGE_CURVE('',#340,#340,#342,.T.);
#340 = VERTEX_POINT('',#341);
#341 = CARTESIAN_POINT('',(20.,15.,-5.E-15));
#342 = CIRCLE('',#343,20.);
#343 = AXIS2_PLACEMENT_3D('',#344,#345,#346);
#344 = CARTESIAN_POINT('',(0.,15.,-5.33E-15));
#345 = DIRECTION('',(0.,-1.,3.3E-16));
#346 = DIRECTION('',(1.,0.,0.));
#347 = PLANE('',#348);
#348 = AXIS2_PLACEMENT_3D('',#349,#350,#351);
#349 = CARTESIAN_POINT('',(25.843325437052,15.,-3.002E-13));
#350 = DIRECTION('',(0.,1.,-3.3E-16));
#351 = DIRECTION('',(0.,3.3E-16,1.));
#352 = ADVANCED_FACE('',(#353),#359,.T.);
#353 = FACE_BOUND('',#354,.T.);
#354 = EDGE_LOOP('',(#355,#356,#357,#358));
#355 = ORIENTED_EDGE('',*,*,#326,.T.);
#356 = ORIENTED_EDGE('',*,*,#300,.T.);
#357 = ORIENTED_EDGE('',*,*,#263,.F.);
#358 = ORIENTED_EDGE('',*,*,#240,.F.);
#359 = CYLINDRICAL_SURFACE('',#360,40.);
#360 = AXIS2_PLACEMENT_3D('',#361,#362,#363);
#361 = CARTESIAN_POINT('',(0.,15.,-5.E-15));
#362 = DIRECTION('',(0.,1.,-3.3E-16));
#363 = DIRECTION('',(1.,0.,0.));
#364 = ADVANCED_FACE('',(#365),#376,.F.);
#365 = FACE_BOUND('',#366,.F.);
#366 = EDGE_LOOP('',(#367,#368,#374,#375));
#367 = ORIENTED_EDGE('',*,*,#339,.T.);
#368 = ORIENTED_EDGE('',*,*,#369,.T.);
#369 = EDGE_CURVE('',#340,#284,#370,.T.);
#370 = LINE('',#371,#372);
#371 = CARTESIAN_POINT('',(20.,15.,-5.E-15));
#372 = VECTOR('',#373,1.);
#373 = DIRECTION('',(0.,-1.,3.3E-16));
#374 = ORIENTED_EDGE('',*,*,#283,.F.);
#375 = ORIENTED_EDGE('',*,*,#369,.F.);
#376 = CYLINDRICAL_SURFACE('',#377,20.);
#377 = AXIS2_PLACEMENT_3D('',#378,#379,#380);
#378 = CARTESIAN_POINT('',(0.,15.,-5.E-15));
#379 = DIRECTION('',(0.,1.,-3.3E-16));
#380 = DIRECTION('',(1.,0.,0.));
#381 = ( GEOMETRIC_REPRESENTATION_CONTEXT(3) 
GLOBAL_UNCERTAINTY_ASSIGNED_CONTEXT((#385)) GLOBAL_UNIT_ASSIGNED_CONTEXT
((#382,#383,#384)) REPRESENTATION_CONTEXT('Context #1',
  '3D Context with UNIT and UNCERTAINTY') );
#382 = ( LENGTH_UNIT() NAMED_UNIT(*) SI_UNIT(.MILLI.,.METRE.) );
#383 = ( NAMED_UNIT(*) PLANE_ANGLE_UNIT() SI_UNIT($,.RADIAN.) );
#384 = ( NAMED_UNIT(*) SI_UNIT($,.STERADIAN.) SOLID_ANGLE_UNIT() );
#385 = UNCERTAINTY_MEASURE_WITH_UNIT(LENGTH_MEASURE(1.E-07),#382,
  'distance_accuracy_value','confusion accuracy');
#386 = PRODUCT_RELATED_PRODUCT_CATEGORY('part',$,(#7));
#387 = MECHANICAL_DESIGN_GEOMETRIC_PRESENTATION_REPRESENTATION('',(#388)
  ,#381);
#388 = STYLED_ITEM('color',(#389),#15);
#389 = PRESENTATION_STYLE_ASSIGNMENT((#390,#396));
#390 = SURFACE_STYLE_USAGE(.BOTH.,#391);
#391 = SURFACE_SIDE_STYLE('',(#392));
#392 = SURFACE_STYLE_FILL_AREA(#393);
#393 = FILL_AREA_STYLE('',(#394));
#394 = FILL_AREA_STYLE_COLOUR('',#395);
#395 = DRAUGHTING_PRE_DEFINED_COLOUR('red');
#396 = CURVE_STYLE('',#397,POSITIVE_LENGTH_MEASURE(0.1),#398);
#397 = DRAUGHTING_PRE_DEFINED_CURVE_FONT('continuous');
#398 = COLOUR_RGB('',9.803921802644E-02,9.803921802644E-02,
  9.803921802644E-02);
ENDSEC;
END-ISO-10303-21;
